{
DisplayStrings = (
"\U00C6",
/Dcroat,
"Ladies and gentlemen. What you are seeing is the final version of the doge sans init. I think we can all assume that it will work as intended lol  Hi here\012\0121. this does make sense.\0122. #Wow\0123. What I dont get it /endash haha\0124. Erm what?\0125. Okay it does not need to be perfect but it's pretty fucking close\0126. bro \0127. Blaow, yeah we run dat. ",
6,
"\U00F0",
h,
E,
"\U00C9",
/Ecaron,
"/Ecaron \U00CA",
"\U00CAE/Ecircumflexacute E/Ecircumflexgrave EEE/Ecircumflextilde \U00CB/Edotaccent \U00C8/Emacron/Eogonek E/Etilde",
/rcommaaccent,

glyphs = (
{
glyphname = A;
lastChange = "2014-09-27 15:23:54 +0100";
layers = (
{
layerId = "24C63A81-7FC6-4EE9-AF2B-C1140AFD6C4B";
name = Regular;
paths = (
{
closed = 1;
nodes = (
"585 30 OFFCURVE",
"546 135 OFFCURVE",
"497 263 CURVE",
"511 271 OFFCURVE",
"519 286 OFFCURVE",
"517 303 CURVE",
"513 325 OFFCURVE",
"493 341 OFFCURVE",
"471 337 CURVE",
"469 337 LINE",
"414 478 OFFCURVE",
"357 622 OFFCURVE",
"347 643 CURVE SMOOTH",
"331 674 OFFCURVE",
"321 686 OFFCURVE",
"307 692 CURVE SMOOTH",
"296 697 OFFCURVE",
"254 697 OFFCURVE",
"243 693 CURVE SMOOTH",
"225 686 OFFCURVE",
"217 670 OFFCURVE",
"205 641 CURVE SMOOTH",
"184 587 OFFCURVE",
"26 31 OFFCURVE",
"35 50 CURVE",
"30 29 OFFCURVE",
"43 7 OFFCURVE",
"64 1 CURVE",
"86 -4 OFFCURVE",
"106 8 OFFCURVE",
"113 30 CURVE SMOOTH",
"161 198 LINE",
"416 246 LINE",
"459 134 OFFCURVE",
"495 38 OFFCURVE",
"497 27 CURVE",
"501 9 OFFCURVE",
"519 0 OFFCURVE",
"535 0 CURVE SMOOTH",
"539 0 OFFCURVE",
"544 1 OFFCURVE",
"548 2 CURVE",
"569 10 OFFCURVE",
"580 32 OFFCURVE",
"573 53 CURVE"
);
},
{
closed = 1;
nodes = (
"186 284 LINE",
"221 409 OFFCURVE",
"260 544 OFFCURVE",
"277 601 CURVE",
"289 573 OFFCURVE",
"338 448 OFFCURVE",
"387 321 CURVE"
);
}
);
width = 598;
}
);
unicode = 0041;
},
{
glyphname = Aacute;
lastChange = "2014-09-27 15:23:54 +0100";
layers = (
{
layerId = "24C63A81-7FC6-4EE9-AF2B-C1140AFD6C4B";
name = Regular;
paths = (
{
closed = 1;
nodes = (
"387 849 LINE SMOOTH",
"420 876 OFFCURVE",
"409 895 OFFCURVE",
"398 904 CURVE SMOOTH",
"387 913 OFFCURVE",
"369 918 OFFCURVE",
"326 881 CURVE SMOOTH",
"299 858 OFFCURVE",
"277 842 OFFCURVE",
"267 822 CURVE SMOOTH",
"261 809 OFFCURVE",
"263 795 OFFCURVE",
"268 788 CURVE",
"274 778 OFFCURVE",
"293 769 OFFCURVE",
"312 785 CURVE SMOOTH"
);
},
{
closed = 1;
nodes = (
"585 30 OFFCURVE",
"546 135 OFFCURVE",
"497 263 CURVE",
"511 271 OFFCURVE",
"519 286 OFFCURVE",
"517 303 CURVE",
"513 325 OFFCURVE",
"493 341 OFFCURVE",
"471 337 CURVE",
"469 337 LINE",
"414 478 OFFCURVE",
"357 622 OFFCURVE",
"347 643 CURVE SMOOTH",
"331 674 OFFCURVE",
"321 686 OFFCURVE",
"307 692 CURVE SMOOTH",
"296 697 OFFCURVE",
"254 697 OFFCURVE",
"243 693 CURVE SMOOTH",
"225 686 OFFCURVE",
"217 670 OFFCURVE",
"205 641 CURVE SMOOTH",
"184 587 OFFCURVE",
"26 31 OFFCURVE",
"35 50 CURVE",
"30 29 OFFCURVE",
"43 7 OFFCURVE",
"64 1 CURVE",
"86 -4 OFFCURVE",
"106 8 OFFCURVE",
"113 30 CURVE SMOOTH",
"161 198 LINE",
"416 246 LINE",
"459 134 OFFCURVE",
"495 38 OFFCURVE",
"497 27 CURVE",
"501 9 OFFCURVE",
"519 0 OFFCURVE",
"535 0 CURVE SMOOTH",
"539 0 OFFCURVE",
"544 1 OFFCURVE",
"548 2 CURVE",
"569 10 OFFCURVE",
"580 32 OFFCURVE",
"573 53 CURVE"
);
},
{
closed = 1;
nodes = (
"186 284 LINE",
"221 409 OFFCURVE",
"260 544 OFFCURVE",
"277 601 CURVE",
"289 573 OFFCURVE",
"338 448 OFFCURVE",
"387 321 CURVE"
);
}
);
width = 598;
}
);
unicode = 00C1;
},
{
glyphname = Abreve;
lastChange = "2014-09-27 15:23:54 +0100";
layers = (
{
layerId = "24C63A81-7FC6-4EE9-AF2B-C1140AFD6C4B";
name = Regular;
paths = (
{
closed = 1;
nodes = (
"348 747 OFFCURVE",
"401 793 OFFCURVE",
"427 850 CURVE SMOOTH",
"443 885 OFFCURVE",
"377 889 OFFCURVE",
"360 856 CURVE SMOOTH",
"354 845 OFFCURVE",
"330 807 OFFCURVE",
"281 807 CURVE SMOOTH",
"231 807 OFFCURVE",
"206 845 OFFCURVE",
"201 856 CURVE SMOOTH",
"187 887 OFFCURVE",
"127 887 OFFCURVE",
"134 850 CURVE SMOOTH",
"146 788 OFFCURVE",
"213 747 OFFCURVE",
"281 747 CURVE SMOOTH"
);
},
{
closed = 1;
nodes = (
"585 30 OFFCURVE",
"546 135 OFFCURVE",
"497 263 CURVE",
"511 271 OFFCURVE",
"519 286 OFFCURVE",
"517 303 CURVE",
"513 325 OFFCURVE",
"493 341 OFFCURVE",
"471 337 CURVE",
"469 337 LINE",
"414 478 OFFCURVE",
"357 622 OFFCURVE",
"347 643 CURVE SMOOTH",
"331 674 OFFCURVE",
"321 686 OFFCURVE",
"307 692 CURVE SMOOTH",
"296 697 OFFCURVE",
"254 697 OFFCURVE",
"243 693 CURVE SMOOTH",
"225 686 OFFCURVE",
"217 670 OFFCURVE",
"205 641 CURVE SMOOTH",
"184 587 OFFCURVE",
"26 31 OFFCURVE",
"35 50 CURVE",
"30 29 OFFCURVE",
"43 7 OFFCURVE",
"64 1 CURVE",
"86 -4 OFFCURVE",
"106 8 OFFCURVE",
"113 30 CURVE SMOOTH",
"161 198 LINE",
"416 246 LINE",
"459 134 OFFCURVE",
"495 38 OFFCURVE",
"497 27 CURVE",
"501 9 OFFCURVE",
"519 0 OFFCURVE",
"535 0 CURVE SMOOTH",
"539 0 OFFCURVE",
"544 1 OFFCURVE",
"548 2 CURVE",
"569 10 OFFCURVE",
"580 32 OFFCURVE",
"573 53 CURVE"
);
},
{
closed = 1;
nodes = (
"186 284 LINE",
"221 409 OFFCURVE",
"260 544 OFFCURVE",
"277 601 CURVE",
"289 573 OFFCURVE",
"338 448 OFFCURVE",
"387 321 CURVE"
);
}
);
width = 598;
}
);
unicode = 0102;
},
{
glyphname = Acircumflex;
lastChange = "2014-09-27 15:23:54 +0100";
layers = (
{
layerId = "24C63A81-7FC6-4EE9-AF2B-C1140AFD6C4B";
name = Regular;
paths = (
{
closed = 1;
nodes = (
"304 802 OFFCURVE",
"258 807 OFFCURVE",
"363 713 CURVE",
"389 687 OFFCURVE",
"434 726 OFFCURVE",
"396 767 CURVE SMOOTH",
"290 881 OFFCURVE",
"283 889 OFFCURVE",
"162 767 CURVE SMOOTH",
"128 732 OFFCURVE",
"160 690 OFFCURVE",
"188 711 CURVE SMOOTH"
);
},
{
closed = 1;
nodes = (
"585 30 OFFCURVE",
"546 135 OFFCURVE",
"497 263 CURVE",
"511 271 OFFCURVE",
"519 286 OFFCURVE",
"517 303 CURVE",
"513 325 OFFCURVE",
"493 341 OFFCURVE",
"471 337 CURVE",
"469 337 LINE",
"414 478 OFFCURVE",
"357 622 OFFCURVE",
"347 643 CURVE SMOOTH",
"331 674 OFFCURVE",
"321 686 OFFCURVE",
"307 692 CURVE SMOOTH",
"296 697 OFFCURVE",
"254 697 OFFCURVE",
"243 693 CURVE SMOOTH",
"225 686 OFFCURVE",
"217 670 OFFCURVE",
"205 641 CURVE SMOOTH",
"184 587 OFFCURVE",
"26 31 OFFCURVE",
"35 50 CURVE",
"30 29 OFFCURVE",
"43 7 OFFCURVE",
"64 1 CURVE",
"86 -4 OFFCURVE",
"106 8 OFFCURVE",
"113 30 CURVE SMOOTH",
"161 198 LINE",
"416 246 LINE",
"459 134 OFFCURVE",
"495 38 OFFCURVE",
"497 27 CURVE",
"501 9 OFFCURVE",
"519 0 OFFCURVE",
"535 0 CURVE SMOOTH",
"539 0 OFFCURVE",
"544 1 OFFCURVE",
"548 2 CURVE",
"569 10 OFFCURVE",
"580 32 OFFCURVE",
"573 53 CURVE"
);
},
{
closed = 1;
nodes = (
"186 284 LINE",
"221 409 OFFCURVE",
"260 544 OFFCURVE",
"277 601 CURVE",
"289 573 OFFCURVE",
"338 448 OFFCURVE",
"387 321 CURVE"
);
}
);
width = 598;
}
);
unicode = 00C2;
},
{
glyphname = Adieresis;
lastChange = "2014-09-27 15:23:54 +0100";
layers = (
{
layerId = "24C63A81-7FC6-4EE9-AF2B-C1140AFD6C4B";
name = Regular;
paths = (
{
closed = 1;
nodes = (
"194 727 OFFCURVE",
"213 743 OFFCURVE",
"222 775 CURVE SMOOTH",
"231 806 OFFCURVE",
"218 824 OFFCURVE",
"186 827 CURVE SMOOTH",
"155 830 OFFCURVE",
"134 803 OFFCURVE",
"127 772 CURVE SMOOTH",
"120 742 OFFCURVE",
"132 715 OFFCURVE",
"163 721 CURVE SMOOTH"
);
},
{
closed = 1;
nodes = (
"385 713 OFFCURVE",
"409 743 OFFCURVE",
"418 775 CURVE SMOOTH",
"427 806 OFFCURVE",
"414 824 OFFCURVE",
"382 827 CURVE SMOOTH",
"351 830 OFFCURVE",
"325 806 OFFCURVE",
"318 775 CURVE SMOOTH",
"311 745 OFFCURVE",
"326 734 OFFCURVE",
"354 724 CURVE SMOOTH"
);
},
{
closed = 1;
nodes = (
"585 30 OFFCURVE",
"546 135 OFFCURVE",
"497 263 CURVE",
"511 271 OFFCURVE",
"519 286 OFFCURVE",
"517 303 CURVE",
"513 325 OFFCURVE",
"493 341 OFFCURVE",
"471 337 CURVE",
"469 337 LINE",
"414 478 OFFCURVE",
"357 622 OFFCURVE",
"347 643 CURVE SMOOTH",
"331 674 OFFCURVE",
"321 686 OFFCURVE",
"307 692 CURVE SMOOTH",
"296 697 OFFCURVE",
"254 697 OFFCURVE",
"243 693 CURVE SMOOTH",
"225 686 OFFCURVE",
"217 670 OFFCURVE",
"205 641 CURVE SMOOTH",
"184 587 OFFCURVE",
"26 31 OFFCURVE",
"35 50 CURVE",
"30 29 OFFCURVE",
"43 7 OFFCURVE",
"64 1 CURVE",
"86 -4 OFFCURVE",
"106 8 OFFCURVE",
"113 30 CURVE SMOOTH",
"161 198 LINE",
"416 246 LINE",
"459 134 OFFCURVE",
"495 38 OFFCURVE",
"497 27 CURVE",
"501 9 OFFCURVE",
"519 0 OFFCURVE",
"535 0 CURVE SMOOTH",
"539 0 OFFCURVE",
"544 1 OFFCURVE",
"548 2 CURVE",
"569 10 OFFCURVE",
"580 32 OFFCURVE",
"573 53 CURVE"
);
},
{
closed = 1;
nodes = (
"186 284 LINE",
"221 409 OFFCURVE",
"260 544 OFFCURVE",
"277 601 CURVE",
"289 573 OFFCURVE",
"338 448 OFFCURVE",
"387 321 CURVE"
);
}
);
width = 598;
}
);
unicode = 00C4;
},
{
glyphname = Agrave;
lastChange = "2014-09-27 15:23:54 +0100";
layers = (
{
layerId = "24C63A81-7FC6-4EE9-AF2B-C1140AFD6C4B";
name = Regular;
paths = (
{
closed = 1;
nodes = (
"251 754 OFFCURVE",
"267 738 OFFCURVE",
"289 733 CURVE SMOOTH",
"322 726 OFFCURVE",
"325 763 OFFCURVE",
"306 782 CURVE SMOOTH",
"253 833 OFFCURVE",
"283 803 OFFCURVE",
"227 850 CURVE SMOOTH",
"195 877 OFFCURVE",
"130 822 OFFCURVE",
"212 776 CURVE SMOOTH"
);
},
{
closed = 1;
nodes = (
"585 30 OFFCURVE",
"546 135 OFFCURVE",
"497 263 CURVE",
"511 271 OFFCURVE",
"519 286 OFFCURVE",
"517 303 CURVE",
"513 325 OFFCURVE",
"493 341 OFFCURVE",
"471 337 CURVE",
"469 337 LINE",
"414 478 OFFCURVE",
"357 622 OFFCURVE",
"347 643 CURVE SMOOTH",
"331 674 OFFCURVE",
"321 686 OFFCURVE",
"307 692 CURVE SMOOTH",
"296 697 OFFCURVE",
"254 697 OFFCURVE",
"243 693 CURVE SMOOTH",
"225 686 OFFCURVE",
"217 670 OFFCURVE",
"205 641 CURVE SMOOTH",
"184 587 OFFCURVE",
"26 31 OFFCURVE",
"35 50 CURVE",
"30 29 OFFCURVE",
"43 7 OFFCURVE",
"64 1 CURVE",
"86 -4 OFFCURVE",
"106 8 OFFCURVE",
"113 30 CURVE SMOOTH",
"161 198 LINE",
"416 246 LINE",
"459 134 OFFCURVE",
"495 38 OFFCURVE",
"497 27 CURVE",
"501 9 OFFCURVE",
"519 0 OFFCURVE",
"535 0 CURVE SMOOTH",
"539 0 OFFCURVE",
"544 1 OFFCURVE",
"548 2 CURVE",
"569 10 OFFCURVE",
"580 32 OFFCURVE",
"573 53 CURVE"
);
},
{
closed = 1;
nodes = (
"186 284 LINE",
"221 409 OFFCURVE",
"260 544 OFFCURVE",
"277 601 CURVE",
"289 573 OFFCURVE",
"338 448 OFFCURVE",
"387 321 CURVE"
);
}
);
width = 598;
}
);
unicode = 00C0;
},
{
glyphname = Amacron;
lastChange = "2014-09-27 15:23:54 +0100";
layers = (
{
layerId = "24C63A81-7FC6-4EE9-AF2B-C1140AFD6C4B";
name = Regular;
paths = (
{
closed = 1;
nodes = (
"165 763 OFFCURVE",
"167 763 OFFCURVE",
"168 763 CURVE",
"389 771 LINE SMOOTH",
"411 772 OFFCURVE",
"421 789 OFFCURVE",
"421 799 CURVE SMOOTH",
"421 811 OFFCURVE",
"409 830 OFFCURVE",
"387 829 CURVE SMOOTH",
"169 821 LINE SMOOTH",
"147 820 OFFCURVE",
"136 804 OFFCURVE",
"136 791 CURVE SMOOTH",
"136 783 OFFCURVE",
"144 766 OFFCURVE",
"163 764 CURVE"
);
},
{
closed = 1;
nodes = (
"585 30 OFFCURVE",
"546 135 OFFCURVE",
"497 263 CURVE",
"511 271 OFFCURVE",
"519 286 OFFCURVE",
"517 303 CURVE",
"513 325 OFFCURVE",
"493 341 OFFCURVE",
"471 337 CURVE",
"469 337 LINE",
"414 478 OFFCURVE",
"357 622 OFFCURVE",
"347 643 CURVE SMOOTH",
"331 674 OFFCURVE",
"321 686 OFFCURVE",
"307 692 CURVE SMOOTH",
"296 697 OFFCURVE",
"254 697 OFFCURVE",
"243 693 CURVE SMOOTH",
"225 686 OFFCURVE",
"217 670 OFFCURVE",
"205 641 CURVE SMOOTH",
"184 587 OFFCURVE",
"26 31 OFFCURVE",
"35 50 CURVE",
"30 29 OFFCURVE",
"43 7 OFFCURVE",
"64 1 CURVE",
"86 -4 OFFCURVE",
"106 8 OFFCURVE",
"113 30 CURVE SMOOTH",
"161 198 LINE",
"416 246 LINE",
"459 134 OFFCURVE",
"495 38 OFFCURVE",
"497 27 CURVE",
"501 9 OFFCURVE",
"519 0 OFFCURVE",
"535 0 CURVE SMOOTH",
"539 0 OFFCURVE",
"544 1 OFFCURVE",
"548 2 CURVE",
"569 10 OFFCURVE",
"580 32 OFFCURVE",
"573 53 CURVE"
);
},
{
closed = 1;
nodes = (
"186 284 LINE",
"221 409 OFFCURVE",
"260 544 OFFCURVE",
"277 601 CURVE",
"289 573 OFFCURVE",
"338 448 OFFCURVE",
"387 321 CURVE"
);
}
);
width = 598;
}
);
unicode = 0100;
},
{
glyphname = Aogonek;
lastChange = "2014-09-27 15:23:54 +0100";
layers = (
{
layerId = "24C63A81-7FC6-4EE9-AF2B-C1140AFD6C4B";
name = Regular;
paths = (
{
closed = 1;
nodes = (
"509 -99 OFFCURVE",
"505 -72 OFFCURVE",
"553 4 CURVE",
"571 14 OFFCURVE",
"579 34 OFFCURVE",
"573 53 CURVE",
"585 30 OFFCURVE",
"546 135 OFFCURVE",
"497 263 CURVE",
"511 271 OFFCURVE",
"519 286 OFFCURVE",
"517 303 CURVE",
"513 325 OFFCURVE",
"493 341 OFFCURVE",
"471 337 CURVE",
"469 337 LINE",
"414 478 OFFCURVE",
"357 622 OFFCURVE",
"347 643 CURVE SMOOTH",
"331 674 OFFCURVE",
"321 686 OFFCURVE",
"307 692 CURVE SMOOTH",
"296 697 OFFCURVE",
"254 697 OFFCURVE",
"243 693 CURVE SMOOTH",
"225 686 OFFCURVE",
"217 670 OFFCURVE",
"205 641 CURVE SMOOTH",
"184 587 OFFCURVE",
"26 31 OFFCURVE",
"35 50 CURVE",
"30 29 OFFCURVE",
"43 7 OFFCURVE",
"64 1 CURVE",
"86 -4 OFFCURVE",
"106 8 OFFCURVE",
"113 30 CURVE SMOOTH",
"161 198 LINE",
"416 246 LINE",
"459 134 OFFCURVE",
"495 38 OFFCURVE",
"497 27 CURVE SMOOTH",
"498 22 LINE",
"411 -72 OFFCURVE",
"434 -179 OFFCURVE",
"579 -140 CURVE SMOOTH",
"616 -130 OFFCURVE",
"613 -60 OFFCURVE",
"578 -73 CURVE SMOOTH"
);
},
{
closed = 1;
nodes = (
"186 284 LINE",
"221 409 OFFCURVE",
"260 544 OFFCURVE",
"277 601 CURVE",
"289 573 OFFCURVE",
"338 448 OFFCURVE",
"387 321 CURVE"
);
}
);
width = 598;
}
);
unicode = 0104;
},
{
glyphname = Aring;
lastChange = "2014-09-27 15:23:54 +0100";
layers = (
{
layerId = "24C63A81-7FC6-4EE9-AF2B-C1140AFD6C4B";
name = Regular;
paths = (
{
closed = 1;
nodes = (
"323 729 OFFCURVE",
"366 772 OFFCURVE",
"367 821 CURVE SMOOTH",
"368 871 OFFCURVE",
"327 913 OFFCURVE",
"277 912 CURVE SMOOTH",
"227 911 OFFCURVE",
"182 867 OFFCURVE",
"183 817 CURVE SMOOTH",
"184 767 OFFCURVE",
"223 727 OFFCURVE",
"273 728 CURVE SMOOTH"
);
},
{
closed = 1;
nodes = (
"292 848 OFFCURVE",
"303 835 OFFCURVE",
"303 821 CURVE SMOOTH",
"303 805 OFFCURVE",
"294 795 OFFCURVE",
"276 794 CURVE SMOOTH",
"262 793 OFFCURVE",
"249 808 OFFCURVE",
"249 820 CURVE SMOOTH",
"249 838 OFFCURVE",
"262 848 OFFCURVE",
"276 848 CURVE SMOOTH"
);
},
{
closed = 1;
nodes = (
"585 30 OFFCURVE",
"546 135 OFFCURVE",
"497 263 CURVE",
"511 271 OFFCURVE",
"519 286 OFFCURVE",
"517 303 CURVE",
"513 325 OFFCURVE",
"493 341 OFFCURVE",
"471 337 CURVE",
"469 337 LINE",
"414 478 OFFCURVE",
"357 622 OFFCURVE",
"347 643 CURVE SMOOTH",
"331 674 OFFCURVE",
"321 686 OFFCURVE",
"307 692 CURVE SMOOTH",
"296 697 OFFCURVE",
"254 697 OFFCURVE",
"243 693 CURVE SMOOTH",
"225 686 OFFCURVE",
"217 670 OFFCURVE",
"205 641 CURVE SMOOTH",
"184 587 OFFCURVE",
"26 31 OFFCURVE",
"35 50 CURVE",
"30 29 OFFCURVE",
"43 7 OFFCURVE",
"64 1 CURVE",
"86 -4 OFFCURVE",
"106 8 OFFCURVE",
"113 30 CURVE SMOOTH",
"161 198 LINE",
"416 246 LINE",
"459 134 OFFCURVE",
"495 38 OFFCURVE",
"497 27 CURVE",
"501 9 OFFCURVE",
"519 0 OFFCURVE",
"535 0 CURVE SMOOTH",
"539 0 OFFCURVE",
"544 1 OFFCURVE",
"548 2 CURVE",
"569 10 OFFCURVE",
"580 32 OFFCURVE",
"573 53 CURVE"
);
},
{
closed = 1;
nodes = (
"186 284 LINE",
"221 409 OFFCURVE",
"260 544 OFFCURVE",
"277 601 CURVE",
"289 573 OFFCURVE",
"338 448 OFFCURVE",
"387 321 CURVE"
);
}
);
width = 598;
}
);
unicode = 00C5;
},
{
glyphname = Atilde;
lastChange = "2014-09-27 15:23:54 +0100";
layers = (
{
layerId = "24C63A81-7FC6-4EE9-AF2B-C1140AFD6C4B";
name = Regular;
paths = (
{
closed = 1;
nodes = (
"211 745 OFFCURVE",
"193 805 OFFCURVE",
"234 805 CURVE SMOOTH",
"270 805 OFFCURVE",
"294 740 OFFCURVE",
"351 741 CURVE SMOOTH",
"410 742 OFFCURVE",
"447 780 OFFCURVE",
"447 838 CURVE SMOOTH",
"447 857 OFFCURVE",
"428 865 OFFCURVE",
"417 865 CURVE SMOOTH",
"356 865 OFFCURVE",
"401 805 OFFCURVE",
"351 804 CURVE SMOOTH",
"317 803 OFFCURVE",
"297 870 OFFCURVE",
"237 870 CURVE SMOOTH",
"178 870 OFFCURVE",
"141 833 OFFCURVE",
"141 774 CURVE SMOOTH",
"141 761 OFFCURVE",
"149 745 OFFCURVE",
"171 745 CURVE SMOOTH"
);
},
{
closed = 1;
nodes = (
"585 30 OFFCURVE",
"546 135 OFFCURVE",
"497 263 CURVE",
"511 271 OFFCURVE",
"519 286 OFFCURVE",
"517 303 CURVE",
"513 325 OFFCURVE",
"493 341 OFFCURVE",
"471 337 CURVE",
"469 337 LINE",
"414 478 OFFCURVE",
"357 622 OFFCURVE",
"347 643 CURVE SMOOTH",
"331 674 OFFCURVE",
"321 686 OFFCURVE",
"307 692 CURVE SMOOTH",
"296 697 OFFCURVE",
"254 697 OFFCURVE",
"243 693 CURVE SMOOTH",
"225 686 OFFCURVE",
"217 670 OFFCURVE",
"205 641 CURVE SMOOTH",
"184 587 OFFCURVE",
"26 31 OFFCURVE",
"35 50 CURVE",
"30 29 OFFCURVE",
"43 7 OFFCURVE",
"64 1 CURVE",
"86 -4 OFFCURVE",
"106 8 OFFCURVE",
"113 30 CURVE SMOOTH",
"161 198 LINE",
"416 246 LINE",
"459 134 OFFCURVE",
"495 38 OFFCURVE",
"497 27 CURVE",
"501 9 OFFCURVE",
"519 0 OFFCURVE",
"535 0 CURVE SMOOTH",
"539 0 OFFCURVE",
"544 1 OFFCURVE",
"548 2 CURVE",
"569 10 OFFCURVE",
"580 32 OFFCURVE",
"573 53 CURVE"
);
},
{
closed = 1;
nodes = (
"186 284 LINE",
"221 409 OFFCURVE",
"260 544 OFFCURVE",
"277 601 CURVE",
"289 573 OFFCURVE",
"338 448 OFFCURVE",
"387 321 CURVE"
);
}
);
width = 598;
}
);
unicode = 00C3;
},
{
glyphname = AE;
lastChange = "2014-09-27 15:23:54 +0100";
layers = (
{
layerId = "24C63A81-7FC6-4EE9-AF2B-C1140AFD6C4B";
name = Regular;
paths = (
{
closed = 1;
nodes = (
"914 73 OFFCURVE",
"895 88 OFFCURVE",
"873 86 CURVE",
"741 81 LINE SMOOTH",
"653 77 OFFCURVE",
"606 76 OFFCURVE",
"581 76 CURVE",
"579 116 OFFCURVE",
"568 198 OFFCURVE",
"555 287 CURVE",
"759 317 LINE SMOOTH",
"781 320 OFFCURVE",
"796 340 OFFCURVE",
"793 362 CURVE",
"789 384 OFFCURVE",
"769 399 OFFCURVE",
"747 396 CURVE SMOOTH",
"542 368 LINE",
"526 472 OFFCURVE",
"508 571 OFFCURVE",
"497 618 CURVE",
"613 617 LINE SMOOTH",
"704 616 OFFCURVE",
"849 620 OFFCURVE",
"850 620 CURVE",
"872 618 OFFCURVE",
"891 635 OFFCURVE",
"892 657 CURVE",
"894 679 OFFCURVE",
"877 698 OFFCURVE",
"855 700 CURVE",
"854 700 OFFCURVE",
"698 696 OFFCURVE",
"600 697 CURVE SMOOTH",
"548 698 OFFCURVE",
"506 699 OFFCURVE",
"474 698 CURVE SMOOTH",
"456 698 OFFCURVE",
"441 697 OFFCURVE",
"429 695 CURVE",
"413 697 OFFCURVE",
"392 696 OFFCURVE",
"385 693 CURVE SMOOTH",
"367 686 OFFCURVE",
"359 670 OFFCURVE",
"347 641 CURVE",
"337 614 OFFCURVE",
"258 463 OFFCURVE",
"183 320 CURVE",
"154 316 LINE SMOOTH",
"132 313 OFFCURVE",
"117 292 OFFCURVE",
"121 270 CURVE SMOOTH",
"123 257 OFFCURVE",
"131 246 OFFCURVE",
"141 240 CURVE",
"86 137 OFFCURVE",
"42 54 OFFCURVE",
"39 50 CURVE",
"34 29 OFFCURVE",
"47 7 OFFCURVE",
"68 1 CURVE",
"90 -4 OFFCURVE",
"110 8 OFFCURVE",
"117 30 CURVE SMOOTH",
"120 40 OFFCURVE",
"175 134 OFFCURVE",
"237 244 CURVE",
"283 250 OFFCURVE",
"357 259 OFFCURVE",
"471 275 CURVE",
"486 152 OFFCURVE",
"499 39 OFFCURVE",
"501 27 CURVE SMOOTH",
"504 11 OFFCURVE",
"519 2 OFFCURVE",
"533 0 CURVE",
"544 -3 OFFCURVE",
"560 -4 OFFCURVE",
"589 -4 CURVE SMOOTH",
"606 -4 LINE SMOOTH",
"637 -4 OFFCURVE",
"679 -2 OFFCURVE",
"731 0 CURVE SMOOTH",
"878 6 LINE SMOOTH",
"900 7 OFFCURVE",
"917 29 OFFCURVE",
"915 51 CURVE"
);
},
{
closed = 1;
nodes = (
"287 334 LINE",
"347 443 OFFCURVE",
"404 551 OFFCURVE",
"419 601 CURVE",
"430 576 OFFCURVE",
"446 471 OFFCURVE",
"461 357 CURVE"
);
}
);
width = 958;
}
);
unicode = 00C6;
},
{
glyphname = B;
lastChange = "2014-09-27 15:23:54 +0100";
layers = (
{
layerId = "24C63A81-7FC6-4EE9-AF2B-C1140AFD6C4B";
name = Regular;
paths = (
{
closed = 1;
nodes = (
"119 674 OFFCURVE",
"74 659 OFFCURVE",
"67 644 CURVE SMOOTH",
"53 615 OFFCURVE",
"70 596 OFFCURVE",
"102 596 CURVE",
"102 40 LINE SMOOTH",
"102 17 OFFCURVE",
"119 0 OFFCURVE",
"142 0 CURVE SMOOTH",
"143 0 LINE SMOOTH",
"259 0 OFFCURVE",
"549 50 OFFCURVE",
"549 229 CURVE SMOOTH",
"549 330 OFFCURVE",
"464 397 OFFCURVE",
"330 407 CURVE",
"404 415 OFFCURVE",
"481 467 OFFCURVE",
"481 572 CURVE SMOOTH",
"481 738 OFFCURVE",
"251 705 OFFCURVE",
"131 677 CURVE SMOOTH"
);
},
{
closed = 1;
nodes = (
"182 610 LINE",
"271 627 OFFCURVE",
"401 654 OFFCURVE",
"401 569 CURVE SMOOTH",
"401 476 OFFCURVE",
"238 434 OFFCURVE",
"182 423 CURVE"
);
},
{
closed = 1;
nodes = (
"182 341 LINE",
"260 346 OFFCURVE",
"469 352 OFFCURVE",
"469 229 CURVE SMOOTH",
"469 126 OFFCURVE",
"265 91 OFFCURVE",
"182 83 CURVE"
);
}
);
width = 578;
}
);
unicode = 0042;
},
{
glyphname = C;
lastChange = "2014-09-27 15:23:54 +0100";
layers = (
{
layerId = "24C63A81-7FC6-4EE9-AF2B-C1140AFD6C4B";
name = Regular;
paths = (
{
closed = 1;
nodes = (
"215 697 OFFCURVE",
"69 570 OFFCURVE",
"69 341 CURVE SMOOTH",
"69 116 OFFCURVE",
"181 3 OFFCURVE",
"353 3 CURVE SMOOTH",
"468 3 OFFCURVE",
"559 50 OFFCURVE",
"603 161 CURVE SMOOTH",
"612 182 OFFCURVE",
"602 205 OFFCURVE",
"581 213 CURVE SMOOTH",
"561 221 OFFCURVE",
"537 211 OFFCURVE",
"529 191 CURVE SMOOTH",
"502 125 OFFCURVE",
"453 85 OFFCURVE",
"357 85 CURVE SMOOTH",
"231 85 OFFCURVE",
"148 166 OFFCURVE",
"148 341 CURVE SMOOTH",
"148 489 OFFCURVE",
"239 616 OFFCURVE",
"363 616 CURVE SMOOTH",
"463 616 OFFCURVE",
"501 585 OFFCURVE",
"524 530 CURVE",
"531 509 OFFCURVE",
"554 498 OFFCURVE",
"575 506 CURVE",
"596 513 OFFCURVE",
"606 536 OFFCURVE",
"599 557 CURVE SMOOTH",
"565 651 OFFCURVE",
"496 697 OFFCURVE",
"363 697 CURVE SMOOTH"
);
}
);
width = 658;
}
);
unicode = 0043;
},
{
glyphname = Cacute;
lastChange = "2014-09-27 15:23:54 +0100";
layers = (
{
layerId = "24C63A81-7FC6-4EE9-AF2B-C1140AFD6C4B";
name = Regular;
paths = (
{
closed = 1;
nodes = (
"466 830 LINE SMOOTH",
"499 857 OFFCURVE",
"488 876 OFFCURVE",
"477 885 CURVE SMOOTH",
"466 894 OFFCURVE",
"448 899 OFFCURVE",
"405 862 CURVE SMOOTH",
"378 839 OFFCURVE",
"356 823 OFFCURVE",
"346 803 CURVE SMOOTH",
"340 790 OFFCURVE",
"342 776 OFFCURVE",
"347 769 CURVE",
"353 759 OFFCURVE",
"372 750 OFFCURVE",
"391 766 CURVE SMOOTH"
);
},
{
closed = 1;
nodes = (
"215 697 OFFCURVE",
"69 570 OFFCURVE",
"69 341 CURVE SMOOTH",
"69 116 OFFCURVE",
"181 3 OFFCURVE",
"353 3 CURVE SMOOTH",
"468 3 OFFCURVE",
"559 50 OFFCURVE",
"603 161 CURVE SMOOTH",
"612 182 OFFCURVE",
"602 205 OFFCURVE",
"581 213 CURVE SMOOTH",
"561 221 OFFCURVE",
"537 211 OFFCURVE",
"529 191 CURVE SMOOTH",
"502 125 OFFCURVE",
"453 85 OFFCURVE",
"357 85 CURVE SMOOTH",
"231 85 OFFCURVE",
"148 166 OFFCURVE",
"148 341 CURVE SMOOTH",
"148 489 OFFCURVE",
"239 616 OFFCURVE",
"363 616 CURVE SMOOTH",
"463 616 OFFCURVE",
"501 585 OFFCURVE",
"524 530 CURVE",
"531 509 OFFCURVE",
"554 498 OFFCURVE",
"575 506 CURVE",
"596 513 OFFCURVE",
"606 536 OFFCURVE",
"599 557 CURVE SMOOTH",
"565 651 OFFCURVE",
"496 697 OFFCURVE",
"363 697 CURVE SMOOTH"
);
}
);
width = 658;
}
);
unicode = 0106;
},
{
glyphname = Ccaron;
lastChange = "2014-09-27 15:23:54 +0100";
layers = (
{
layerId = "24C63A81-7FC6-4EE9-AF2B-C1140AFD6C4B";
name = Regular;
paths = (
{
closed = 1;
nodes = (
"338 731 OFFCURVE",
"345 723 OFFCURVE",
"465 846 CURVE SMOOTH",
"498 882 OFFCURVE",
"466 923 OFFCURVE",
"438 902 CURVE SMOOTH",
"323 810 OFFCURVE",
"369 805 OFFCURVE",
"263 898 CURVE",
"237 924 OFFCURVE",
"192 884 OFFCURVE",
"231 844 CURVE SMOOTH"
);
},
{
closed = 1;
nodes = (
"215 697 OFFCURVE",
"69 570 OFFCURVE",
"69 341 CURVE SMOOTH",
"69 116 OFFCURVE",
"181 3 OFFCURVE",
"353 3 CURVE SMOOTH",
"468 3 OFFCURVE",
"559 50 OFFCURVE",
"603 161 CURVE SMOOTH",
"612 182 OFFCURVE",
"602 205 OFFCURVE",
"581 213 CURVE SMOOTH",
"561 221 OFFCURVE",
"537 211 OFFCURVE",
"529 191 CURVE SMOOTH",
"502 125 OFFCURVE",
"453 85 OFFCURVE",
"357 85 CURVE SMOOTH",
"231 85 OFFCURVE",
"148 166 OFFCURVE",
"148 341 CURVE SMOOTH",
"148 489 OFFCURVE",
"239 616 OFFCURVE",
"363 616 CURVE SMOOTH",
"463 616 OFFCURVE",
"501 585 OFFCURVE",
"524 530 CURVE",
"531 509 OFFCURVE",
"554 498 OFFCURVE",
"575 506 CURVE",
"596 513 OFFCURVE",
"606 536 OFFCURVE",
"599 557 CURVE SMOOTH",
"565 651 OFFCURVE",
"496 697 OFFCURVE",
"363 697 CURVE SMOOTH"
);
}
);
width = 658;
}
);
unicode = 010C;
},
{
glyphname = Ccedilla;
lastChange = "2014-09-27 15:23:54 +0100";
layers = (
{
layerId = "24C63A81-7FC6-4EE9-AF2B-C1140AFD6C4B";
name = Regular;
paths = (
{
closed = 1;
nodes = (
"561 221 OFFCURVE",
"537 211 OFFCURVE",
"529 191 CURVE SMOOTH",
"502 125 OFFCURVE",
"453 85 OFFCURVE",
"357 85 CURVE SMOOTH",
"231 85 OFFCURVE",
"148 166 OFFCURVE",
"148 341 CURVE SMOOTH",
"148 489 OFFCURVE",
"239 616 OFFCURVE",
"363 616 CURVE SMOOTH",
"463 616 OFFCURVE",
"501 585 OFFCURVE",
"524 530 CURVE",
"531 509 OFFCURVE",
"554 498 OFFCURVE",
"575 506 CURVE",
"596 513 OFFCURVE",
"606 536 OFFCURVE",
"599 557 CURVE SMOOTH",
"565 651 OFFCURVE",
"496 697 OFFCURVE",
"363 697 CURVE SMOOTH",
"215 697 OFFCURVE",
"69 570 OFFCURVE",
"69 341 CURVE SMOOTH",
"69 138 OFFCURVE",
"160 26 OFFCURVE",
"305 6 CURVE",
"279 -42 LINE",
"277 -45 OFFCURVE",
"279 -49 OFFCURVE",
"283 -51 CURVE",
"375 -89 OFFCURVE",
"355 -126 OFFCURVE",
"276 -119 CURVE",
"272 -118 OFFCURVE",
"269 -121 OFFCURVE",
"269 -125 CURVE",
"267 -164 LINE",
"267 -168 OFFCURVE",
"270 -171 OFFCURVE",
"274 -171 CURVE",
"425 -159 OFFCURVE",
"475 -57 OFFCURVE",
"355 -31 CURVE",
"349 -30 OFFCURVE",
"347 -25 OFFCURVE",
"350 -20 CURVE",
"365 3 LINE",
"474 6 OFFCURVE",
"561 54 OFFCURVE",
"603 161 CURVE SMOOTH",
"612 182 OFFCURVE",
"602 205 OFFCURVE",
"581 213 CURVE SMOOTH"
);
}
);
width = 658;
}
);
unicode = 00C7;
},
{
glyphname = D;
lastChange = "2014-09-27 15:23:54 +0100";
layers = (
{
layerId = "24C63A81-7FC6-4EE9-AF2B-C1140AFD6C4B";
name = Regular;
paths = (
{
closed = 1;
nodes = (
"132 686 LINE",
"113 683 OFFCURVE",
"58 676 OFFCURVE",
"58 637 CURVE SMOOTH",
"58 621 OFFCURVE",
"58 596 OFFCURVE",
"99 596 CURVE",
"99 47 LINE SMOOTH",
"99 27 OFFCURVE",
"113 10 OFFCURVE",
"132 7 CURVE",
"134 7 OFFCURVE",
"175 0 OFFCURVE",
"232 0 CURVE SMOOTH",
"455 0 OFFCURVE",
"601 99 OFFCURVE",
"601 289 CURVE SMOOTH",
"601 546 OFFCURVE",
"469 692 OFFCURVE",
"207 692 CURVE"
);
},
{
closed = 1;
nodes = (
"179 611 LINE",
"313 611 OFFCURVE",
"521 604 OFFCURVE",
"521 289 CURVE SMOOTH",
"521 76 OFFCURVE",
"279 75 OFFCURVE",
"179 82 CURVE"
);
}
);
width = 658;
}
);
unicode = 0044;
},
{
glyphname = Eth;
lastChange = "2014-09-27 15:23:54 +0100";
layers = (
{
layerId = "24C63A81-7FC6-4EE9-AF2B-C1140AFD6C4B";
name = Regular;
paths = (
{
closed = 1;
nodes = (
"132 686 LINE",
"113 683 OFFCURVE",
"58 676 OFFCURVE",
"58 637 CURVE SMOOTH",
"58 621 OFFCURVE",
"58 596 OFFCURVE",
"99 596 CURVE",
"99 359 LINE",
"70 356 OFFCURVE",
"75 345 OFFCURVE",
"74 314 CURVE SMOOTH",
"73 295 OFFCURVE",
"73 289 OFFCURVE",
"99 286 CURVE",
"99 47 LINE SMOOTH",
"99 27 OFFCURVE",
"113 10 OFFCURVE",
"132 7 CURVE",
"134 7 OFFCURVE",
"175 0 OFFCURVE",
"232 0 CURVE SMOOTH",
"455 0 OFFCURVE",
"601 99 OFFCURVE",
"601 289 CURVE SMOOTH",
"601 546 OFFCURVE",
"469 692 OFFCURVE",
"207 692 CURVE"
);
},
{
closed = 1;
nodes = (
"179 285 LINE",
"236 285 LINE SMOOTH",
"359 284 OFFCURVE",
"361 275 OFFCURVE",
"361 321 CURVE SMOOTH",
"361 372 OFFCURVE",
"387 361 OFFCURVE",
"225 361 CURVE SMOOTH",
"179 361 LINE",
"179 611 LINE",
"313 611 OFFCURVE",
"521 604 OFFCURVE",
"521 289 CURVE SMOOTH",
"521 76 OFFCURVE",
"279 75 OFFCURVE",
"179 82 CURVE"
);
}
);
width = 658;
}
);
unicode = 00D0;
},
{
glyphname = Dcaron;
lastChange = "2014-09-27 15:23:54 +0100";
layers = (
{
layerId = "24C63A81-7FC6-4EE9-AF2B-C1140AFD6C4B";
name = Regular;
paths = (
{
closed = 1;
nodes = (
"304 710 OFFCURVE",
"311 702 OFFCURVE",
"431 825 CURVE SMOOTH",
"464 861 OFFCURVE",
"432 902 OFFCURVE",
"404 881 CURVE SMOOTH",
"289 789 OFFCURVE",
"335 784 OFFCURVE",
"229 877 CURVE",
"203 903 OFFCURVE",
"158 863 OFFCURVE",
"197 823 CURVE SMOOTH"
);
},
{
closed = 1;
nodes = (
"132 686 LINE",
"113 683 OFFCURVE",
"58 676 OFFCURVE",
"58 637 CURVE SMOOTH",
"58 621 OFFCURVE",
"58 596 OFFCURVE",
"99 596 CURVE",
"99 47 LINE SMOOTH",
"99 27 OFFCURVE",
"113 10 OFFCURVE",
"132 7 CURVE",
"134 7 OFFCURVE",
"175 0 OFFCURVE",
"232 0 CURVE SMOOTH",
"455 0 OFFCURVE",
"601 99 OFFCURVE",
"601 289 CURVE SMOOTH",
"601 546 OFFCURVE",
"469 692 OFFCURVE",
"207 692 CURVE"
);
},
{
closed = 1;
nodes = (
"179 611 LINE",
"313 611 OFFCURVE",
"521 604 OFFCURVE",
"521 289 CURVE SMOOTH",
"521 76 OFFCURVE",
"279 75 OFFCURVE",
"179 82 CURVE"
);
}
);
width = 658;
}
);
unicode = 010E;
},
{
glyphname = Dcroat;
lastChange = "2014-11-05 23:43:18 +0100";
layers = (
{
layerId = "24C63A81-7FC6-4EE9-AF2B-C1140AFD6C4B";
name = Regular;
paths = (
{
closed = 1;
nodes = (
"132 686 LINE",
"113 683 OFFCURVE",
"58 676 OFFCURVE",
"58 637 CURVE SMOOTH",
"58 621 OFFCURVE",
"58 596 OFFCURVE",
"99 596 CURVE",
"99 369 LINE",
"50 369 OFFCURVE",
"25 362 OFFCURVE",
"24 327 CURVE SMOOTH",
"24 295 OFFCURVE",
"48 289 OFFCURVE",
"99 286 CURVE",
"99 206 OFFCURVE",
"99 127 OFFCURVE",
"99 47 CURVE SMOOTH",
"99 27 OFFCURVE",
"113 10 OFFCURVE",
"132 7 CURVE",
"134 7 OFFCURVE",
"175 0 OFFCURVE",
"232 0 CURVE SMOOTH",
"455 0 OFFCURVE",
"601 99 OFFCURVE",
"601 289 CURVE SMOOTH",
"601 546 OFFCURVE",
"469 692 OFFCURVE",
"207 692 CURVE"
);
},
{
closed = 1;
nodes = (
"179 285 LINE",
"236 285 LINE SMOOTH",
"292 285 OFFCURVE",
"331 286 OFFCURVE",
"331 321 CURVE SMOOTH",
"331 371 OFFCURVE",
"304 371 OFFCURVE",
"225 371 CURVE SMOOTH",
"179 371 LINE",
"179 611 LINE",
"313 611 OFFCURVE",
"521 604 OFFCURVE",
"521 289 CURVE SMOOTH",
"521 76 OFFCURVE",
"279 75 OFFCURVE",
"179 82 CURVE"
);
}
);
width = 658;
}
);
unicode = 0110;
},
{
glyphname = E;
lastChange = "2014-11-05 19:35:57 +0100";
layers = (
{
layerId = "24C63A81-7FC6-4EE9-AF2B-C1140AFD6C4B";
name = Regular;
paths = (
{
closed = 1;
nodes = (
"145 697 OFFCURVE",
"95 709 OFFCURVE",
"93 633 CURVE SMOOTH",
"86 399 LINE",
"71 383 OFFCURVE",
"64 348 OFFCURVE",
"86 331 CURVE",
"86 98 OFFCURVE",
"90 29 OFFCURVE",
"113 9 CURVE",
"142 -13 OFFCURVE",
"258 -2 OFFCURVE",
"515 6 CURVE",
"537 8 OFFCURVE",
"554 29 OFFCURVE",
"552 51 CURVE",
"551 73 OFFCURVE",
"532 88 OFFCURVE",
"510 86 CURVE",
"173 76 LINE",
"166 326 LINE SMOOTH",
"377 342 LINE SMOOTH",
"399 344 OFFCURVE",
"414 365 OFFCURVE",
"411 387 CURVE",
"409 409 OFFCURVE",
"389 424 OFFCURVE",
"367 422 CURVE SMOOTH",
"166 407 LINE SMOOTH",
"173 617 LINE SMOOTH",
"232 623 OFFCURVE",
"474 611 OFFCURVE",
"510 611 CURVE",
"532 609 OFFCURVE",
"551 626 OFFCURVE",
"552 648 CURVE",
"554 670 OFFCURVE",
"537 689 OFFCURVE",
"515 691 CURVE",
"567 691 OFFCURVE",
"264 700 OFFCURVE",
"203 698 CURVE SMOOTH"
);
}
);
width = 581;
}
);
unicode = 0045;
},
{
glyphname = Eacute;
lastChange = "2014-11-05 19:36:44 +0100";
layers = (
{
components = (
{
name = E;
transform = "{1, 0, 0, 1, 0, 0}";
}
);
layerId = "24C63A81-7FC6-4EE9-AF2B-C1140AFD6C4B";
name = Regular;
paths = (
{
closed = 1;
nodes = (
"425 830 LINE SMOOTH",
"458 857 OFFCURVE",
"447 876 OFFCURVE",
"436 885 CURVE SMOOTH",
"425 894 OFFCURVE",
"407 899 OFFCURVE",
"364 862 CURVE SMOOTH",
"337 839 OFFCURVE",
"315 823 OFFCURVE",
"305 803 CURVE SMOOTH",
"299 790 OFFCURVE",
"301 776 OFFCURVE",
"306 769 CURVE",
"312 759 OFFCURVE",
"331 750 OFFCURVE",
"350 766 CURVE SMOOTH"
);
}
);
width = 581;
}
);
unicode = 00C9;
},
{
glyphname = Ecaron;
lastChange = "2014-11-05 19:37:03 +0100";
layers = (
{
components = (
{
name = E;
transform = "{1, 0, 0, 1, 0, 0}";
}
);
layerId = "24C63A81-7FC6-4EE9-AF2B-C1140AFD6C4B";
name = Regular;
paths = (
{
closed = 1;
nodes = (
"464 880 OFFCURVE",
"432 921 OFFCURVE",
"404 900 CURVE SMOOTH",
"289 808 OFFCURVE",
"335 803 OFFCURVE",
"229 896 CURVE",
"203 922 OFFCURVE",
"158 882 OFFCURVE",
"197 842 CURVE SMOOTH",
"304 729 OFFCURVE",
"311 721 OFFCURVE",
"431 844 CURVE SMOOTH"
);
}
);
width = 581;
}
);
unicode = 011A;
},
{
glyphname = Ecircumflex;
lastChange = "2014-11-05 19:37:34 +0100";
layers = (
{
components = (
{
name = E;
transform = "{1, 0, 0, 1, 0, 0}";
}
);
layerId = "24C63A81-7FC6-4EE9-AF2B-C1140AFD6C4B";
name = Regular;
paths = (
{
closed = 1;
nodes = (
"336 848 OFFCURVE",
"290 853 OFFCURVE",
"395 759 CURVE",
"421 733 OFFCURVE",
"466 772 OFFCURVE",
"428 813 CURVE SMOOTH",
"322 927 OFFCURVE",
"315 935 OFFCURVE",
"194 813 CURVE SMOOTH",
"160 778 OFFCURVE",
"192 736 OFFCURVE",
"220 757 CURVE SMOOTH"
);
}
);
width = 581;
}
);
unicode = 00CA;
},
{
glyphname = Edieresis;
lastChange = "2014-11-05 19:38:26 +0100";
layers = (
{
components = (
{
name = E;
transform = "{1, 0, 0, 1, 0, 0}";
}
);
layerId = "24C63A81-7FC6-4EE9-AF2B-C1140AFD6C4B";
name = Regular;
paths = (
{
closed = 1;
nodes = (
"242 760 OFFCURVE",
"261 776 OFFCURVE",
"270 808 CURVE SMOOTH",
"279 839 OFFCURVE",
"266 857 OFFCURVE",
"234 860 CURVE SMOOTH",
"203 863 OFFCURVE",
"182 836 OFFCURVE",
"175 805 CURVE SMOOTH",
"168 775 OFFCURVE",
"180 748 OFFCURVE",
"211 754 CURVE SMOOTH"
);
},
{
closed = 1;
nodes = (
"433 746 OFFCURVE",
"457 776 OFFCURVE",
"466 808 CURVE SMOOTH",
"475 839 OFFCURVE",
"462 857 OFFCURVE",
"430 860 CURVE SMOOTH",
"399 863 OFFCURVE",
"373 839 OFFCURVE",
"366 808 CURVE SMOOTH",
"359 778 OFFCURVE",
"374 767 OFFCURVE",
"402 757 CURVE SMOOTH"
);
}
);
width = 581;
}
);
unicode = 00CB;
},
{
glyphname = Edotaccent;
lastChange = "2014-11-05 19:38:34 +0100";
layers = (
{
components = (
{
name = E;
transform = "{1, 0, 0, 1, 0, 0}";
}
);
layerId = "24C63A81-7FC6-4EE9-AF2B-C1140AFD6C4B";
name = Regular;
paths = (
{
closed = 1;
nodes = (
"350 752 OFFCURVE",
"373 774 OFFCURVE",
"373 801 CURVE SMOOTH",
"373 828 OFFCURVE",
"350 850 OFFCURVE",
"322 850 CURVE SMOOTH",
"293 850 OFFCURVE",
"270 828 OFFCURVE",
"270 801 CURVE SMOOTH",
"270 774 OFFCURVE",
"293 752 OFFCURVE",
"322 752 CURVE SMOOTH"
);
}
);
width = 594;
}
);
unicode = 0116;
},
{
glyphname = Egrave;
lastChange = "2014-11-05 19:38:48 +0100";
layers = (
{
components = (
{
name = E;
transform = "{1, 0, 0, 1, 0, 0}";
}
);
layerId = "24C63A81-7FC6-4EE9-AF2B-C1140AFD6C4B";
name = Regular;
paths = (
{
closed = 1;
nodes = (
"293 756 OFFCURVE",
"309 740 OFFCURVE",
"331 735 CURVE SMOOTH",
"364 728 OFFCURVE",
"367 765 OFFCURVE",
"348 784 CURVE SMOOTH",
"295 835 OFFCURVE",
"325 805 OFFCURVE",
"269 852 CURVE SMOOTH",
"237 879 OFFCURVE",
"172 824 OFFCURVE",
"254 778 CURVE SMOOTH"
);
}
);
width = 581;
}
);
unicode = 00C8;
},
{
glyphname = Emacron;
lastChange = "2014-11-05 19:38:55 +0100";
layers = (
{
components = (
{
name = E;
transform = "{1, 0, 0, 1, 0, 0}";
}
);
layerId = "24C63A81-7FC6-4EE9-AF2B-C1140AFD6C4B";
name = Regular;
paths = (
{
closed = 1;
nodes = (
"210 765 OFFCURVE",
"212 765 OFFCURVE",
"213 765 CURVE",
"434 773 LINE SMOOTH",
"456 774 OFFCURVE",
"466 791 OFFCURVE",
"466 801 CURVE SMOOTH",
"466 813 OFFCURVE",
"454 832 OFFCURVE",
"432 831 CURVE SMOOTH",
"214 823 LINE SMOOTH",
"192 822 OFFCURVE",
"181 806 OFFCURVE",
"181 793 CURVE SMOOTH",
"181 785 OFFCURVE",
"189 768 OFFCURVE",
"208 766 CURVE"
);
}
);
width = 581;
}
);
unicode = 0112;
},
{
glyphname = Eogonek;
lastChange = "2014-11-05 19:39:53 +0100";
layers = (
{
components = (
{
name = E;
transform = "{1, 0, 0, 1, 0, 0}";
}
);
layerId = "24C63A81-7FC6-4EE9-AF2B-C1140AFD6C4B";
name = Regular;
paths = (
{
closed = 1;
nodes = (
"494 -97 OFFCURVE",
"532 -13 OFFCURVE",
"541 9 CURVE SMOOTH",
"587 116 OFFCURVE",
"471 22 OFFCURVE",
"471 5 CURVE",
"406 -84 OFFCURVE",
"436 -172 OFFCURVE",
"570 -136 CURVE SMOOTH",
"607 -126 OFFCURVE",
"604 -56 OFFCURVE",
"569 -69 CURVE SMOOTH"
);
}
);
width = 581;
}
);
unicode = 0118;
},
{
glyphname = F;
lastChange = "2014-09-27 15:23:54 +0100";
layers = (
{
layerId = "24C63A81-7FC6-4EE9-AF2B-C1140AFD6C4B";
name = Regular;
paths = (
{
closed = 1;
nodes = (
"450 701 OFFCURVE",
"365 704 OFFCURVE",
"286 704 CURVE SMOOTH",
"130 704 OFFCURVE",
"100 693 OFFCURVE",
"85 683 CURVE SMOOTH",
"61 668 OFFCURVE",
"54 637 OFFCURVE",
"51 547 CURVE SMOOTH",
"49 504 OFFCURVE",
"50 450 OFFCURVE",
"52 384 CURVE",
"38 376 OFFCURVE",
"30 358 OFFCURVE",
"33 342 CURVE SMOOTH",
"35 329 OFFCURVE",
"43 318 OFFCURVE",
"54 312 CURVE",
"58 172 OFFCURVE",
"66 39 OFFCURVE",
"66 38 CURVE",
"67 16 OFFCURVE",
"85 0 OFFCURVE",
"106 0 CURVE SMOOTH",
"109 0 LINE",
"131 1 OFFCURVE",
"147 20 OFFCURVE",
"146 42 CURVE",
"146 44 OFFCURVE",
"138 176 OFFCURVE",
"133 315 CURVE",
"343 337 LINE SMOOTH",
"365 339 OFFCURVE",
"379 362 OFFCURVE",
"376 383 CURVE",
"372 405 OFFCURVE",
"351 418 OFFCURVE",
"329 416 CURVE SMOOTH",
"131 395 LINE",
"130 443 OFFCURVE",
"129 484 OFFCURVE",
"130 518 CURVE SMOOTH",
"131 576 OFFCURVE",
"134 604 OFFCURVE",
"136 617 CURVE",
"153 620 OFFCURVE",
"196 624 OFFCURVE",
"294 624 CURVE SMOOTH",
"368 624 OFFCURVE",
"447 621 OFFCURVE",
"448 621 CURVE",
"470 620 OFFCURVE",
"489 638 OFFCURVE",
"489 660 CURVE",
"490 682 OFFCURVE",
"473 700 OFFCURVE",
"451 701 CURVE"
);
}
);
width = 496;
}
);
unicode = 0046;
},
{
glyphname = G;
lastChange = "2014-09-27 15:23:54 +0100";
layers = (
{
layerId = "24C63A81-7FC6-4EE9-AF2B-C1140AFD6C4B";
name = Regular;
paths = (
{
closed = 1;
nodes = (
"607 350 OFFCURVE",
"587 365 OFFCURVE",
"565 363 CURVE SMOOTH",
"292 338 LINE SMOOTH",
"270 336 OFFCURVE",
"254 315 OFFCURVE",
"257 293 CURVE SMOOTH",
"260 273 OFFCURVE",
"277 258 OFFCURVE",
"297 258 CURVE",
"491 275 LINE",
"491 265 OFFCURVE",
"490 252 OFFCURVE",
"489 239 CURVE SMOOTH",
"481 153 OFFCURVE",
"443 114 OFFCURVE",
"360 89 CURVE SMOOTH",
"212 45 OFFCURVE",
"108 154 OFFCURVE",
"108 362 CURVE SMOOTH",
"108 479 OFFCURVE",
"172 615 OFFCURVE",
"309 615 CURVE SMOOTH",
"373 615 OFFCURVE",
"455 572 OFFCURVE",
"474 518 CURVE SMOOTH",
"481 497 OFFCURVE",
"500 483 OFFCURVE",
"520 487 CURVE SMOOTH",
"545 492 OFFCURVE",
"553 513 OFFCURVE",
"549 535 CURVE SMOOTH",
"530 642 OFFCURVE",
"412 695 OFFCURVE",
"309 695 CURVE SMOOTH",
"114 695 OFFCURVE",
"28 514 OFFCURVE",
"28 362 CURVE SMOOTH",
"28 129 OFFCURVE",
"143 0 OFFCURVE",
"300 0 CURVE SMOOTH",
"427 0 OFFCURVE",
"551 61 OFFCURVE",
"569 233 CURVE SMOOTH",
"571 251 OFFCURVE",
"572 268 OFFCURVE",
"572 283 CURVE",
"575 283 LINE",
"597 286 OFFCURVE",
"613 306 OFFCURVE",
"610 328 CURVE SMOOTH"
);
}
);
width = 640;
}
);
unicode = 0047;
},
{
glyphname = H;
lastChange = "2014-11-05 23:41:27 +0100";
layers = (
{
layerId = "24C63A81-7FC6-4EE9-AF2B-C1140AFD6C4B";
name = Regular;
paths = (
{
closed = 1;
nodes = (
"483 703 OFFCURVE",
"465 685 OFFCURVE",
"465 663 CURVE SMOOTH",
"464 411 LINE",
"363 411 OFFCURVE",
"305 380 OFFCURVE",
"160 380 CURVE",
"159 663 LINE SMOOTH",
"159 685 OFFCURVE",
"141 703 OFFCURVE",
"119 703 CURVE SMOOTH",
"96 703 OFFCURVE",
"79 685 OFFCURVE",
"79 663 CURVE SMOOTH",
"79 343 LINE",
"79 40 LINE SMOOTH",
"79 18 OFFCURVE",
"96 0 OFFCURVE",
"119 0 CURVE SMOOTH",
"141 0 OFFCURVE",
"159 18 OFFCURVE",
"159 40 CURVE SMOOTH",
"159 303 LINE",
"278 303 OFFCURVE",
"368 331 OFFCURVE",
"465 331 CURVE",
"465 40 LINE SMOOTH",
"465 18 OFFCURVE",
"483 0 OFFCURVE",
"505 0 CURVE SMOOTH",
"527 0 OFFCURVE",
"545 18 OFFCURVE",
"545 40 CURVE SMOOTH",
"545 663 LINE SMOOTH",
"545 685 OFFCURVE",
"527 703 OFFCURVE",
"505 703 CURVE SMOOTH"
);
}
);
width = 608;
}
);
unicode = 0048;
},
{
glyphname = I;
lastChange = "2014-09-27 15:23:54 +0100";
layers = (
{
layerId = "24C63A81-7FC6-4EE9-AF2B-C1140AFD6C4B";
name = Regular;
paths = (
{
closed = 1;
nodes = (
"226 87 LINE",
"226 619 LINE",
"254 621 LINE SMOOTH",
"276 623 OFFCURVE",
"292 643 OFFCURVE",
"290 665 CURVE SMOOTH",
"288 687 OFFCURVE",
"269 703 OFFCURVE",
"247 701 CURVE SMOOTH",
"120 689 LINE SMOOTH",
"98 687 OFFCURVE",
"82 668 OFFCURVE",
"84 646 CURVE",
"85 625 OFFCURVE",
"103 610 OFFCURVE",
"123 610 CURVE SMOOTH",
"127 610 LINE",
"146 612 LINE",
"146 80 LINE",
"120 78 LINE SMOOTH",
"98 76 OFFCURVE",
"82 56 OFFCURVE",
"84 34 CURVE",
"85 14 OFFCURVE",
"103 -2 OFFCURVE",
"123 -2 CURVE SMOOTH",
"127 -2 LINE",
"254 10 LINE SMOOTH",
"276 12 OFFCURVE",
"292 31 OFFCURVE",
"290 53 CURVE SMOOTH",
"288 75 OFFCURVE",
"269 91 OFFCURVE",
"247 89 CURVE SMOOTH"
);
}
);
width = 347;
}
);
unicode = 0049;
},
{
glyphname = IJ;
lastChange = "2014-09-27 15:23:54 +0100";
layers = (
{
layerId = "24C63A81-7FC6-4EE9-AF2B-C1140AFD6C4B";
name = Regular;
paths = (
{
closed = 1;
nodes = (
"226 619 LINE",
"254 621 LINE SMOOTH",
"276 623 OFFCURVE",
"292 643 OFFCURVE",
"290 665 CURVE SMOOTH",
"288 687 OFFCURVE",
"269 703 OFFCURVE",
"247 701 CURVE SMOOTH",
"120 689 LINE SMOOTH",
"98 687 OFFCURVE",
"82 668 OFFCURVE",
"84 646 CURVE",
"85 625 OFFCURVE",
"103 610 OFFCURVE",
"123 610 CURVE SMOOTH",
"127 610 LINE",
"146 612 LINE",
"146 80 LINE",
"120 78 LINE SMOOTH",
"98 76 OFFCURVE",
"82 56 OFFCURVE",
"84 34 CURVE",
"85 14 OFFCURVE",
"103 -2 OFFCURVE",
"123 -2 CURVE SMOOTH",
"127 -2 LINE",
"254 10 LINE SMOOTH",
"276 12 OFFCURVE",
"292 31 OFFCURVE",
"290 53 CURVE SMOOTH",
"288 75 OFFCURVE",
"269 91 OFFCURVE",
"247 89 CURVE SMOOTH",
"226 87 LINE"
);
},
{
closed = 1;
nodes = (
"672 699 LINE",
"510 688 LINE SMOOTH",
"488 687 OFFCURVE",
"472 666 OFFCURVE",
"474 644 CURVE SMOOTH",
"476 623 OFFCURVE",
"494 608 OFFCURVE",
"514 608 CURVE SMOOTH",
"518 608 LINE",
"636 616 LINE",
"636 140 LINE SMOOTH",
"636 95 OFFCURVE",
"590 67 OFFCURVE",
"547 67 CURVE SMOOTH",
"464 67 OFFCURVE",
"462 141 OFFCURVE",
"462 141 CURVE",
"458 173 OFFCURVE",
"445 198 OFFCURVE",
"421 198 CURVE SMOOTH",
"390 198 OFFCURVE",
"383 171 OFFCURVE",
"387 145 CURVE SMOOTH",
"402 49 OFFCURVE",
"447 2 OFFCURVE",
"546 0 CURVE SMOOTH",
"552 0 LINE SMOOTH",
"642 0 OFFCURVE",
"716 45 OFFCURVE",
"716 140 CURVE SMOOTH",
"716 659 LINE SMOOTH",
"716 681 OFFCURVE",
"699 699 OFFCURVE",
"676 699 CURVE SMOOTH"
);
}
);
width = 796;
}
);
unicode = 0132;
},
{
glyphname = Iacute;
lastChange = "2014-09-27 15:23:54 +0100";
layers = (
{
layerId = "24C63A81-7FC6-4EE9-AF2B-C1140AFD6C4B";
name = Regular;
paths = (
{
closed = 1;
nodes = (
"287 906 OFFCURVE",
"269 911 OFFCURVE",
"226 874 CURVE SMOOTH",
"199 851 OFFCURVE",
"177 835 OFFCURVE",
"167 815 CURVE SMOOTH",
"161 802 OFFCURVE",
"163 788 OFFCURVE",
"168 781 CURVE",
"174 771 OFFCURVE",
"193 762 OFFCURVE",
"212 778 CURVE SMOOTH",
"287 842 LINE SMOOTH",
"320 869 OFFCURVE",
"309 888 OFFCURVE",
"298 897 CURVE SMOOTH"
);
},
{
closed = 1;
nodes = (
"226 619 LINE",
"254 621 LINE SMOOTH",
"276 623 OFFCURVE",
"292 643 OFFCURVE",
"290 665 CURVE SMOOTH",
"288 687 OFFCURVE",
"269 703 OFFCURVE",
"247 701 CURVE SMOOTH",
"120 689 LINE SMOOTH",
"98 687 OFFCURVE",
"82 668 OFFCURVE",
"84 646 CURVE",
"85 625 OFFCURVE",
"103 610 OFFCURVE",
"123 610 CURVE SMOOTH",
"127 610 LINE",
"146 612 LINE",
"146 80 LINE",
"120 78 LINE SMOOTH",
"98 76 OFFCURVE",
"82 56 OFFCURVE",
"84 34 CURVE",
"85 14 OFFCURVE",
"103 -2 OFFCURVE",
"123 -2 CURVE SMOOTH",
"127 -2 LINE",
"254 10 LINE SMOOTH",
"276 12 OFFCURVE",
"292 31 OFFCURVE",
"290 53 CURVE SMOOTH",
"288 75 OFFCURVE",
"269 91 OFFCURVE",
"247 89 CURVE SMOOTH",
"226 87 LINE"
);
}
);
width = 347;
}
);
unicode = 00CD;
},
{
glyphname = Icircumflex;
lastChange = "2014-09-27 15:23:54 +0100";
layers = (
{
layerId = "24C63A81-7FC6-4EE9-AF2B-C1140AFD6C4B";
name = Regular;
paths = (
{
closed = 1;
nodes = (
"200 914 OFFCURVE",
"193 922 OFFCURVE",
"72 800 CURVE SMOOTH",
"38 765 OFFCURVE",
"70 723 OFFCURVE",
"98 744 CURVE SMOOTH",
"214 835 OFFCURVE",
"168 840 OFFCURVE",
"273 746 CURVE",
"299 720 OFFCURVE",
"344 759 OFFCURVE",
"306 800 CURVE SMOOTH"
);
},
{
closed = 1;
nodes = (
"226 619 LINE",
"254 621 LINE SMOOTH",
"276 623 OFFCURVE",
"292 643 OFFCURVE",
"290 665 CURVE SMOOTH",
"288 687 OFFCURVE",
"269 703 OFFCURVE",
"247 701 CURVE SMOOTH",
"120 689 LINE SMOOTH",
"98 687 OFFCURVE",
"82 668 OFFCURVE",
"84 646 CURVE",
"85 625 OFFCURVE",
"103 610 OFFCURVE",
"123 610 CURVE SMOOTH",
"127 610 LINE",
"146 612 LINE",
"146 80 LINE",
"120 78 LINE SMOOTH",
"98 76 OFFCURVE",
"82 56 OFFCURVE",
"84 34 CURVE",
"85 14 OFFCURVE",
"103 -2 OFFCURVE",
"123 -2 CURVE SMOOTH",
"127 -2 LINE",
"254 10 LINE SMOOTH",
"276 12 OFFCURVE",
"292 31 OFFCURVE",
"290 53 CURVE SMOOTH",
"288 75 OFFCURVE",
"269 91 OFFCURVE",
"247 89 CURVE SMOOTH",
"226 87 LINE"
);
}
);
width = 347;
}
);
unicode = 00CE;
},
{
glyphname = Idieresis;
lastChange = "2014-09-27 15:23:54 +0100";
layers = (
{
layerId = "24C63A81-7FC6-4EE9-AF2B-C1140AFD6C4B";
name = Regular;
paths = (
{
closed = 1;
nodes = (
"143 857 OFFCURVE",
"130 875 OFFCURVE",
"98 878 CURVE SMOOTH",
"67 881 OFFCURVE",
"46 854 OFFCURVE",
"39 823 CURVE SMOOTH",
"32 793 OFFCURVE",
"44 766 OFFCURVE",
"75 772 CURVE SMOOTH",
"106 778 OFFCURVE",
"125 794 OFFCURVE",
"134 826 CURVE SMOOTH"
);
},
{
closed = 1;
nodes = (
"263 881 OFFCURVE",
"237 857 OFFCURVE",
"230 826 CURVE SMOOTH",
"223 796 OFFCURVE",
"238 785 OFFCURVE",
"266 775 CURVE SMOOTH",
"297 764 OFFCURVE",
"321 794 OFFCURVE",
"330 826 CURVE SMOOTH",
"339 857 OFFCURVE",
"326 875 OFFCURVE",
"294 878 CURVE SMOOTH"
);
},
{
closed = 1;
nodes = (
"226 619 LINE",
"254 621 LINE SMOOTH",
"276 623 OFFCURVE",
"292 643 OFFCURVE",
"290 665 CURVE SMOOTH",
"288 687 OFFCURVE",
"269 703 OFFCURVE",
"247 701 CURVE SMOOTH",
"120 689 LINE SMOOTH",
"98 687 OFFCURVE",
"82 668 OFFCURVE",
"84 646 CURVE",
"85 625 OFFCURVE",
"103 610 OFFCURVE",
"123 610 CURVE SMOOTH",
"127 610 LINE",
"146 612 LINE",
"146 80 LINE",
"120 78 LINE SMOOTH",
"98 76 OFFCURVE",
"82 56 OFFCURVE",
"84 34 CURVE",
"85 14 OFFCURVE",
"103 -2 OFFCURVE",
"123 -2 CURVE SMOOTH",
"127 -2 LINE",
"254 10 LINE SMOOTH",
"276 12 OFFCURVE",
"292 31 OFFCURVE",
"290 53 CURVE SMOOTH",
"288 75 OFFCURVE",
"269 91 OFFCURVE",
"247 89 CURVE SMOOTH",
"226 87 LINE"
);
}
);
width = 347;
}
);
unicode = 00CF;
},
{
glyphname = Igrave;
lastChange = "2014-09-27 15:23:54 +0100";
layers = (
{
layerId = "24C63A81-7FC6-4EE9-AF2B-C1140AFD6C4B";
name = Regular;
paths = (
{
closed = 1;
nodes = (
"210 750 OFFCURVE",
"213 787 OFFCURVE",
"194 806 CURVE SMOOTH",
"141 857 OFFCURVE",
"171 827 OFFCURVE",
"115 874 CURVE SMOOTH",
"83 901 OFFCURVE",
"18 846 OFFCURVE",
"100 800 CURVE SMOOTH",
"139 778 OFFCURVE",
"155 762 OFFCURVE",
"177 757 CURVE SMOOTH"
);
},
{
closed = 1;
nodes = (
"226 87 LINE",
"226 619 LINE",
"254 621 LINE SMOOTH",
"276 623 OFFCURVE",
"292 643 OFFCURVE",
"290 665 CURVE SMOOTH",
"288 687 OFFCURVE",
"269 703 OFFCURVE",
"247 701 CURVE SMOOTH",
"120 689 LINE SMOOTH",
"98 687 OFFCURVE",
"82 668 OFFCURVE",
"84 646 CURVE",
"85 625 OFFCURVE",
"103 610 OFFCURVE",
"123 610 CURVE SMOOTH",
"127 610 LINE",
"146 612 LINE",
"146 80 LINE",
"120 78 LINE SMOOTH",
"98 76 OFFCURVE",
"82 56 OFFCURVE",
"84 34 CURVE",
"85 14 OFFCURVE",
"103 -2 OFFCURVE",
"123 -2 CURVE SMOOTH",
"127 -2 LINE",
"254 10 LINE SMOOTH",
"276 12 OFFCURVE",
"292 31 OFFCURVE",
"290 53 CURVE SMOOTH",
"288 75 OFFCURVE",
"269 91 OFFCURVE",
"247 89 CURVE SMOOTH"
);
}
);
width = 347;
}
);
unicode = 00CC;
},
{
glyphname = Imacron;
lastChange = "2014-09-27 15:23:54 +0100";
layers = (
{
layerId = "24C63A81-7FC6-4EE9-AF2B-C1140AFD6C4B";
name = Regular;
paths = (
{
closed = 1;
nodes = (
"67 839 LINE SMOOTH",
"45 838 OFFCURVE",
"34 822 OFFCURVE",
"34 809 CURVE SMOOTH",
"34 801 OFFCURVE",
"42 784 OFFCURVE",
"61 782 CURVE",
"63 781 OFFCURVE",
"65 781 OFFCURVE",
"66 781 CURVE",
"287 789 LINE SMOOTH",
"309 790 OFFCURVE",
"319 807 OFFCURVE",
"319 817 CURVE SMOOTH",
"319 829 OFFCURVE",
"307 848 OFFCURVE",
"285 847 CURVE SMOOTH"
);
},
{
closed = 1;
nodes = (
"226 619 LINE",
"254 621 LINE SMOOTH",
"276 623 OFFCURVE",
"292 643 OFFCURVE",
"290 665 CURVE SMOOTH",
"288 687 OFFCURVE",
"269 703 OFFCURVE",
"247 701 CURVE SMOOTH",
"120 689 LINE SMOOTH",
"98 687 OFFCURVE",
"82 668 OFFCURVE",
"84 646 CURVE",
"85 625 OFFCURVE",
"103 610 OFFCURVE",
"123 610 CURVE SMOOTH",
"127 610 LINE",
"146 612 LINE",
"146 80 LINE",
"120 78 LINE SMOOTH",
"98 76 OFFCURVE",
"82 56 OFFCURVE",
"84 34 CURVE",
"85 14 OFFCURVE",
"103 -2 OFFCURVE",
"123 -2 CURVE SMOOTH",
"127 -2 LINE",
"254 10 LINE SMOOTH",
"276 12 OFFCURVE",
"292 31 OFFCURVE",
"290 53 CURVE SMOOTH",
"288 75 OFFCURVE",
"269 91 OFFCURVE",
"247 89 CURVE SMOOTH",
"226 87 LINE"
);
}
);
width = 347;
}
);
unicode = 012A;
},
{
glyphname = Iogonek;
lastChange = "2014-09-27 15:23:54 +0100";
layers = (
{
layerId = "24C63A81-7FC6-4EE9-AF2B-C1140AFD6C4B";
name = Regular;
paths = (
{
closed = 1;
nodes = (
"230 -83 OFFCURVE",
"225 -58 OFFCURVE",
"271 15 CURVE",
"283 23 OFFCURVE",
"291 37 OFFCURVE",
"290 53 CURVE SMOOTH",
"288 75 OFFCURVE",
"269 91 OFFCURVE",
"247 89 CURVE SMOOTH",
"226 87 LINE",
"226 619 LINE",
"254 621 LINE SMOOTH",
"276 623 OFFCURVE",
"292 643 OFFCURVE",
"290 665 CURVE SMOOTH",
"288 687 OFFCURVE",
"269 703 OFFCURVE",
"247 701 CURVE SMOOTH",
"120 689 LINE SMOOTH",
"98 687 OFFCURVE",
"82 668 OFFCURVE",
"84 646 CURVE",
"85 625 OFFCURVE",
"103 610 OFFCURVE",
"123 610 CURVE SMOOTH",
"127 610 LINE",
"146 612 LINE",
"146 80 LINE",
"120 78 LINE SMOOTH",
"98 76 OFFCURVE",
"82 56 OFFCURVE",
"84 34 CURVE",
"85 14 OFFCURVE",
"103 -2 OFFCURVE",
"123 -2 CURVE SMOOTH",
"127 -2 LINE",
"193 4 LINE",
"138 -80 OFFCURVE",
"171 -159 OFFCURVE",
"299 -125 CURVE SMOOTH",
"336 -115 OFFCURVE",
"333 -45 OFFCURVE",
"298 -58 CURVE SMOOTH"
);
}
);
width = 347;
}
);
unicode = 012E;
},
{
glyphname = J;
lastChange = "2014-09-27 15:23:54 +0100";
layers = (
{
layerId = "24C63A81-7FC6-4EE9-AF2B-C1140AFD6C4B";
name = Regular;
paths = (
{
closed = 1;
nodes = (
"363 699 LINE",
"201 688 LINE SMOOTH",
"179 687 OFFCURVE",
"163 666 OFFCURVE",
"165 644 CURVE SMOOTH",
"167 623 OFFCURVE",
"185 608 OFFCURVE",
"205 608 CURVE SMOOTH",
"209 608 LINE",
"327 616 LINE",
"327 140 LINE SMOOTH",
"327 95 OFFCURVE",
"281 67 OFFCURVE",
"238 67 CURVE SMOOTH",
"155 67 OFFCURVE",
"153 141 OFFCURVE",
"153 141 CURVE",
"149 173 OFFCURVE",
"136 198 OFFCURVE",
"112 198 CURVE SMOOTH",
"81 198 OFFCURVE",
"74 171 OFFCURVE",
"78 145 CURVE SMOOTH",
"93 49 OFFCURVE",
"138 2 OFFCURVE",
"237 0 CURVE SMOOTH",
"243 0 LINE SMOOTH",
"333 0 OFFCURVE",
"407 45 OFFCURVE",
"407 140 CURVE SMOOTH",
"407 659 LINE SMOOTH",
"407 681 OFFCURVE",
"390 699 OFFCURVE",
"367 699 CURVE SMOOTH"
);
}
);
width = 487;
}
);
unicode = 004A;
},
{
glyphname = K;
lastChange = "2014-09-27 15:23:54 +0100";
layers = (
{
layerId = "24C63A81-7FC6-4EE9-AF2B-C1140AFD6C4B";
name = Regular;
paths = (
{
closed = 1;
nodes = (
"420 258 OFFCURVE",
"357 326 OFFCURVE",
"296 362 CURVE",
"349 424 OFFCURVE",
"420 508 OFFCURVE",
"520 634 CURVE SMOOTH",
"534 651 OFFCURVE",
"532 676 OFFCURVE",
"514 690 CURVE SMOOTH",
"497 704 OFFCURVE",
"472 701 OFFCURVE",
"458 684 CURVE SMOOTH",
"279 459 OFFCURVE",
"255 433 OFFCURVE",
"159 327 CURVE",
"159 656 LINE SMOOTH",
"159 678 OFFCURVE",
"142 696 OFFCURVE",
"119 696 CURVE SMOOTH",
"97 696 OFFCURVE",
"79 678 OFFCURVE",
"79 656 CURVE SMOOTH",
"79 40 LINE SMOOTH",
"79 18 OFFCURVE",
"97 0 OFFCURVE",
"119 0 CURVE SMOOTH",
"142 0 OFFCURVE",
"159 18 OFFCURVE",
"159 40 CURVE SMOOTH",
"159 209 LINE",
"239 298 LINE",
"265 280 OFFCURVE",
"352 216 OFFCURVE",
"384 161 CURVE SMOOTH",
"427 85 OFFCURVE",
"443 28 OFFCURVE",
"443 27 CURVE",
"449 11 OFFCURVE",
"464 0 OFFCURVE",
"481 0 CURVE SMOOTH",
"485 0 OFFCURVE",
"489 1 OFFCURVE",
"494 2 CURVE",
"515 9 OFFCURVE",
"526 32 OFFCURVE",
"519 53 CURVE",
"517 57 OFFCURVE",
"501 117 OFFCURVE",
"453 200 CURVE SMOOTH"
);
}
);
width = 577;
}
);
unicode = 004B;
},
{
glyphname = L;
lastChange = "2014-09-27 15:23:54 +0100";
layers = (
{
layerId = "24C63A81-7FC6-4EE9-AF2B-C1140AFD6C4B";
name = Regular;
paths = (
{
closed = 1;
nodes = (
"114 697 OFFCURVE",
"96 680 OFFCURVE",
"96 657 CURVE SMOOTH",
"96 40 LINE SMOOTH",
"96 28 OFFCURVE",
"101 17 OFFCURVE",
"110 10 CURVE",
"117 3 OFFCURVE",
"126 0 OFFCURVE",
"136 0 CURVE SMOOTH",
"142 0 LINE",
"469 41 LINE SMOOTH",
"491 44 OFFCURVE",
"506 64 OFFCURVE",
"503 86 CURVE SMOOTH",
"500 108 OFFCURVE",
"480 123 OFFCURVE",
"458 120 CURVE SMOOTH",
"176 86 LINE",
"176 657 LINE SMOOTH",
"176 680 OFFCURVE",
"158 697 OFFCURVE",
"136 697 CURVE SMOOTH"
);
}
);
width = 547;
}
);
unicode = 004C;
},
{
glyphname = Lacute;
lastChange = "2014-09-27 15:23:54 +0100";
layers = (
{
layerId = "24C63A81-7FC6-4EE9-AF2B-C1140AFD6C4B";
name = Regular;
paths = (
{
closed = 1;
nodes = (
"223 813 LINE SMOOTH",
"256 840 OFFCURVE",
"245 859 OFFCURVE",
"234 868 CURVE SMOOTH",
"223 877 OFFCURVE",
"205 882 OFFCURVE",
"162 845 CURVE SMOOTH",
"135 822 OFFCURVE",
"113 806 OFFCURVE",
"103 786 CURVE SMOOTH",
"97 773 OFFCURVE",
"99 759 OFFCURVE",
"104 752 CURVE",
"110 742 OFFCURVE",
"129 733 OFFCURVE",
"148 749 CURVE SMOOTH"
);
},
{
closed = 1;
nodes = (
"114 697 OFFCURVE",
"96 680 OFFCURVE",
"96 657 CURVE SMOOTH",
"96 40 LINE SMOOTH",
"96 28 OFFCURVE",
"101 17 OFFCURVE",
"110 10 CURVE",
"117 3 OFFCURVE",
"126 0 OFFCURVE",
"136 0 CURVE SMOOTH",
"142 0 LINE",
"469 41 LINE SMOOTH",
"491 44 OFFCURVE",
"506 64 OFFCURVE",
"503 86 CURVE SMOOTH",
"500 108 OFFCURVE",
"480 123 OFFCURVE",
"458 120 CURVE SMOOTH",
"176 86 LINE",
"176 657 LINE SMOOTH",
"176 680 OFFCURVE",
"158 697 OFFCURVE",
"136 697 CURVE SMOOTH"
);
}
);
width = 547;
}
);
unicode = 0139;
},
{
glyphname = Ldot;
lastChange = "2014-09-27 15:23:54 +0100";
layers = (
{
layerId = "24C63A81-7FC6-4EE9-AF2B-C1140AFD6C4B";
name = Regular;
paths = (
{
closed = 1;
nodes = (
"114 697 OFFCURVE",
"96 680 OFFCURVE",
"96 657 CURVE SMOOTH",
"96 40 LINE SMOOTH",
"96 28 OFFCURVE",
"101 17 OFFCURVE",
"110 10 CURVE",
"117 3 OFFCURVE",
"126 0 OFFCURVE",
"136 0 CURVE SMOOTH",
"142 0 LINE",
"469 41 LINE SMOOTH",
"491 44 OFFCURVE",
"506 64 OFFCURVE",
"503 86 CURVE SMOOTH",
"500 108 OFFCURVE",
"480 123 OFFCURVE",
"458 120 CURVE SMOOTH",
"176 86 LINE",
"176 657 LINE SMOOTH",
"176 680 OFFCURVE",
"158 697 OFFCURVE",
"136 697 CURVE SMOOTH"
);
},
{
closed = 1;
nodes = (
"286 362 OFFCURVE",
"261 337 OFFCURVE",
"261 307 CURVE SMOOTH",
"261 277 OFFCURVE",
"286 252 OFFCURVE",
"317 252 CURVE SMOOTH",
"348 252 OFFCURVE",
"372 277 OFFCURVE",
"372 307 CURVE SMOOTH",
"372 337 OFFCURVE",
"348 362 OFFCURVE",
"317 362 CURVE SMOOTH"
);
}
);
width = 547;
}
);
unicode = 013F;
},
{
glyphname = Lslash;
lastChange = "2014-09-27 15:23:54 +0100";
layers = (
{
layerId = "24C63A81-7FC6-4EE9-AF2B-C1140AFD6C4B";
name = Regular;
paths = (
{
closed = 1;
nodes = (
"500 108 OFFCURVE",
"480 123 OFFCURVE",
"458 120 CURVE SMOOTH",
"176 86 LINE",
"176 305 LINE",
"211 337 LINE SMOOTH",
"346 459 OFFCURVE",
"355 455 OFFCURVE",
"323 488 CURVE SMOOTH",
"289 522 OFFCURVE",
"297 521 OFFCURVE",
"176 409 CURVE",
"176 657 LINE SMOOTH",
"176 680 OFFCURVE",
"158 697 OFFCURVE",
"136 697 CURVE SMOOTH",
"114 697 OFFCURVE",
"96 680 OFFCURVE",
"96 657 CURVE SMOOTH",
"96 335 LINE",
"-28 221 OFFCURVE",
"-27 223 OFFCURVE",
"5 187 CURVE",
"23 169 OFFCURVE",
"23 166 OFFCURVE",
"96 232 CURVE",
"96 40 LINE SMOOTH",
"96 28 OFFCURVE",
"101 17 OFFCURVE",
"110 10 CURVE",
"117 3 OFFCURVE",
"126 0 OFFCURVE",
"136 0 CURVE SMOOTH",
"142 0 LINE",
"469 41 LINE SMOOTH",
"491 44 OFFCURVE",
"506 64 OFFCURVE",
"503 86 CURVE SMOOTH"
);
}
);
width = 547;
}
);
unicode = 0141;
},
{
glyphname = M;
lastChange = "2014-09-27 15:23:54 +0100";
layers = (
{
layerId = "24C63A81-7FC6-4EE9-AF2B-C1140AFD6C4B";
name = Regular;
paths = (
{
closed = 1;
nodes = (
"128 704 OFFCURVE",
"60 744 OFFCURVE",
"60 548 CURVE SMOOTH",
"60 39 LINE",
"61 14 OFFCURVE",
"82 -1 OFFCURVE",
"102 1 CURVE SMOOTH",
"121 3 OFFCURVE",
"141 21 OFFCURVE",
"141 41 CURVE SMOOTH",
"142 163 OFFCURVE",
"142 418 OFFCURVE",
"142 550 CURVE",
"177 502 OFFCURVE",
"291 332 OFFCURVE",
"320 332 CURVE SMOOTH",
"351 332 OFFCURVE",
"473 496 OFFCURVE",
"502 543 CURVE",
"500 430 OFFCURVE",
"498 154 OFFCURVE",
"501 41 CURVE SMOOTH",
"502 16 OFFCURVE",
"526 4 OFFCURVE",
"543 4 CURVE SMOOTH",
"561 4 OFFCURVE",
"582 18 OFFCURVE",
"582 43 CURVE SMOOTH",
"584 150 OFFCURVE",
"584 512 OFFCURVE",
"582 644 CURVE SMOOTH",
"581 725 OFFCURVE",
"516 711 OFFCURVE",
"493 670 CURVE",
"435 589 OFFCURVE",
"374 510 OFFCURVE",
"323 442 CURVE",
"277 510 OFFCURVE",
"209 602 OFFCURVE",
"155 671 CURVE SMOOTH"
);
}
);
width = 647;
}
);
unicode = 004D;
},
{
glyphname = N;
lastChange = "2014-09-27 15:23:54 +0100";
layers = (
{
layerId = "24C63A81-7FC6-4EE9-AF2B-C1140AFD6C4B";
name = Regular;
paths = (
{
closed = 1;
nodes = (
"496 699 OFFCURVE",
"478 681 OFFCURVE",
"478 659 CURVE SMOOTH",
"478 179 LINE",
"153 680 LINE SMOOTH",
"143 695 OFFCURVE",
"125 703 OFFCURVE",
"108 698 CURVE SMOOTH",
"90 693 OFFCURVE",
"78 677 OFFCURVE",
"78 659 CURVE SMOOTH",
"80 45 LINE SMOOTH",
"80 23 OFFCURVE",
"98 5 OFFCURVE",
"120 5 CURVE SMOOTH",
"142 5 OFFCURVE",
"160 23 OFFCURVE",
"160 45 CURVE",
"158 513 LINE",
"484 13 LINE SMOOTH",
"493 0 OFFCURVE",
"504 -7 OFFCURVE",
"518 -7 CURVE SMOOTH",
"522 -7 OFFCURVE",
"525 -7 OFFCURVE",
"529 -6 CURVE",
"546 -1 OFFCURVE",
"558 15 OFFCURVE",
"558 33 CURVE SMOOTH",
"558 659 LINE SMOOTH",
"558 681 OFFCURVE",
"540 699 OFFCURVE",
"518 699 CURVE SMOOTH"
);
}
);
width = 638;
}
);
unicode = 004E;
},
{
glyphname = Nacute;
lastChange = "2014-09-27 15:23:54 +0100";
layers = (
{
layerId = "24C63A81-7FC6-4EE9-AF2B-C1140AFD6C4B";
name = Regular;
paths = (
{
closed = 1;
nodes = (
"419 760 LINE SMOOTH",
"452 787 OFFCURVE",
"441 806 OFFCURVE",
"430 815 CURVE SMOOTH",
"419 824 OFFCURVE",
"401 829 OFFCURVE",
"358 792 CURVE SMOOTH",
"331 769 OFFCURVE",
"309 753 OFFCURVE",
"299 733 CURVE SMOOTH",
"293 720 OFFCURVE",
"295 706 OFFCURVE",
"300 699 CURVE",
"306 689 OFFCURVE",
"325 680 OFFCURVE",
"344 696 CURVE SMOOTH"
);
},
{
closed = 1;
nodes = (
"496 699 OFFCURVE",
"478 681 OFFCURVE",
"478 659 CURVE SMOOTH",
"478 179 LINE",
"153 680 LINE SMOOTH",
"143 695 OFFCURVE",
"125 703 OFFCURVE",
"108 698 CURVE SMOOTH",
"90 693 OFFCURVE",
"78 677 OFFCURVE",
"78 659 CURVE SMOOTH",
"80 45 LINE SMOOTH",
"80 23 OFFCURVE",
"98 5 OFFCURVE",
"120 5 CURVE SMOOTH",
"142 5 OFFCURVE",
"160 23 OFFCURVE",
"160 45 CURVE",
"158 513 LINE",
"484 13 LINE SMOOTH",
"493 0 OFFCURVE",
"504 -7 OFFCURVE",
"518 -7 CURVE SMOOTH",
"522 -7 OFFCURVE",
"525 -7 OFFCURVE",
"529 -6 CURVE",
"546 -1 OFFCURVE",
"558 15 OFFCURVE",
"558 33 CURVE SMOOTH",
"558 659 LINE SMOOTH",
"558 681 OFFCURVE",
"540 699 OFFCURVE",
"518 699 CURVE SMOOTH"
);
}
);
width = 638;
}
);
unicode = 0143;
},
{
glyphname = Ncaron;
lastChange = "2014-09-27 15:23:54 +0100";
layers = (
{
layerId = "24C63A81-7FC6-4EE9-AF2B-C1140AFD6C4B";
name = Regular;
paths = (
{
closed = 1;
nodes = (
"291 687 OFFCURVE",
"298 679 OFFCURVE",
"418 802 CURVE SMOOTH",
"451 838 OFFCURVE",
"419 879 OFFCURVE",
"391 858 CURVE SMOOTH",
"276 766 OFFCURVE",
"322 761 OFFCURVE",
"216 854 CURVE",
"190 880 OFFCURVE",
"145 840 OFFCURVE",
"184 800 CURVE SMOOTH"
);
},
{
closed = 1;
nodes = (
"496 699 OFFCURVE",
"478 681 OFFCURVE",
"478 659 CURVE SMOOTH",
"478 179 LINE",
"153 680 LINE SMOOTH",
"143 695 OFFCURVE",
"125 703 OFFCURVE",
"108 698 CURVE SMOOTH",
"90 693 OFFCURVE",
"78 677 OFFCURVE",
"78 659 CURVE SMOOTH",
"80 45 LINE SMOOTH",
"80 23 OFFCURVE",
"98 5 OFFCURVE",
"120 5 CURVE SMOOTH",
"142 5 OFFCURVE",
"160 23 OFFCURVE",
"160 45 CURVE",
"158 513 LINE",
"484 13 LINE SMOOTH",
"493 0 OFFCURVE",
"504 -7 OFFCURVE",
"518 -7 CURVE SMOOTH",
"522 -7 OFFCURVE",
"525 -7 OFFCURVE",
"529 -6 CURVE",
"546 -1 OFFCURVE",
"558 15 OFFCURVE",
"558 33 CURVE SMOOTH",
"558 659 LINE SMOOTH",
"558 681 OFFCURVE",
"540 699 OFFCURVE",
"518 699 CURVE SMOOTH"
);
}
);
width = 638;
}
);
unicode = 0147;
},
{
glyphname = Eng;
lastChange = "2014-09-27 15:23:54 +0100";
layers = (
{
components = (
{
name = N;
transform = "{1, 0, 0, 1, -18, 0}";
}
);
layerId = "24C63A81-7FC6-4EE9-AF2B-C1140AFD6C4B";
name = Regular;
paths = (
{
closed = 1;
nodes = (
"457 7 OFFCURVE",
"474 -38 OFFCURVE",
"437 -67 CURVE",
"417 -87 OFFCURVE",
"370 -81 OFFCURVE",
"356 -81 CURVE SMOOTH",
"302 -81 OFFCURVE",
"302 -146 OFFCURVE",
"356 -146 CURVE SMOOTH",
"429 -146 OFFCURVE",
"528 -148 OFFCURVE",
"528 -37 CURVE",
"528 32 LINE SMOOTH",
"434 46 LINE"
);
}
);
width = 638;
}
);
unicode = 014A;
},
{
glyphname = Ntilde;
lastChange = "2014-09-27 15:23:54 +0100";
layers = (
{
layerId = "24C63A81-7FC6-4EE9-AF2B-C1140AFD6C4B";
name = Regular;
paths = (
{
closed = 1;
nodes = (
"202 852 OFFCURVE",
"165 815 OFFCURVE",
"165 756 CURVE SMOOTH",
"165 743 OFFCURVE",
"173 727 OFFCURVE",
"195 727 CURVE SMOOTH",
"235 727 OFFCURVE",
"217 787 OFFCURVE",
"258 787 CURVE SMOOTH",
"294 787 OFFCURVE",
"318 722 OFFCURVE",
"375 723 CURVE SMOOTH",
"434 724 OFFCURVE",
"471 762 OFFCURVE",
"471 820 CURVE SMOOTH",
"471 839 OFFCURVE",
"452 847 OFFCURVE",
"441 847 CURVE SMOOTH",
"380 847 OFFCURVE",
"425 787 OFFCURVE",
"375 786 CURVE SMOOTH",
"341 785 OFFCURVE",
"321 852 OFFCURVE",
"261 852 CURVE SMOOTH"
);
},
{
closed = 1;
nodes = (
"496 699 OFFCURVE",
"478 681 OFFCURVE",
"478 659 CURVE SMOOTH",
"478 179 LINE",
"153 680 LINE SMOOTH",
"143 695 OFFCURVE",
"125 703 OFFCURVE",
"108 698 CURVE SMOOTH",
"90 693 OFFCURVE",
"78 677 OFFCURVE",
"78 659 CURVE SMOOTH",
"80 45 LINE SMOOTH",
"80 23 OFFCURVE",
"98 5 OFFCURVE",
"120 5 CURVE SMOOTH",
"142 5 OFFCURVE",
"160 23 OFFCURVE",
"160 45 CURVE",
"158 513 LINE",
"484 13 LINE SMOOTH",
"493 0 OFFCURVE",
"504 -7 OFFCURVE",
"518 -7 CURVE SMOOTH",
"522 -7 OFFCURVE",
"525 -7 OFFCURVE",
"529 -6 CURVE",
"546 -1 OFFCURVE",
"558 15 OFFCURVE",
"558 33 CURVE SMOOTH",
"558 659 LINE SMOOTH",
"558 681 OFFCURVE",
"540 699 OFFCURVE",
"518 699 CURVE SMOOTH"
);
}
);
width = 638;
}
);
unicode = 00D1;
},
{
glyphname = O;
lastChange = "2014-09-27 15:23:54 +0100";
layers = (
{
layerId = "24C63A81-7FC6-4EE9-AF2B-C1140AFD6C4B";
name = Regular;
paths = (
{
closed = 1;
nodes = (
"185 707 OFFCURVE",
"40 552 OFFCURVE",
"40 338 CURVE SMOOTH",
"40 160 OFFCURVE",
"172 -2 OFFCURVE",
"342 -2 CURVE SMOOTH",
"535 -2 OFFCURVE",
"643 194 OFFCURVE",
"643 338 CURVE SMOOTH",
"643 549 OFFCURVE",
"499 707 OFFCURVE",
"342 707 CURVE SMOOTH"
);
},
{
closed = 1;
nodes = (
"462 627 OFFCURVE",
"563 474 OFFCURVE",
"563 338 CURVE SMOOTH",
"563 199 OFFCURVE",
"460 77 OFFCURVE",
"342 77 CURVE SMOOTH",
"224 77 OFFCURVE",
"121 199 OFFCURVE",
"121 338 CURVE SMOOTH",
"121 478 OFFCURVE",
"224 627 OFFCURVE",
"342 627 CURVE SMOOTH"
);
}
);
width = 688;
}
);
unicode = 004F;
},
{
glyphname = Oacute;
lastChange = "2014-09-27 15:23:54 +0100";
layers = (
{
layerId = "24C63A81-7FC6-4EE9-AF2B-C1140AFD6C4B";
name = Regular;
paths = (
{
closed = 1;
nodes = (
"438 828 LINE SMOOTH",
"471 855 OFFCURVE",
"460 874 OFFCURVE",
"449 883 CURVE SMOOTH",
"438 892 OFFCURVE",
"420 897 OFFCURVE",
"377 860 CURVE SMOOTH",
"350 837 OFFCURVE",
"328 821 OFFCURVE",
"318 801 CURVE SMOOTH",
"312 788 OFFCURVE",
"314 774 OFFCURVE",
"319 767 CURVE",
"325 757 OFFCURVE",
"344 748 OFFCURVE",
"363 764 CURVE SMOOTH"
);
},
{
closed = 1;
nodes = (
"185 707 OFFCURVE",
"40 552 OFFCURVE",
"40 338 CURVE SMOOTH",
"40 160 OFFCURVE",
"172 -2 OFFCURVE",
"342 -2 CURVE SMOOTH",
"535 -2 OFFCURVE",
"643 194 OFFCURVE",
"643 338 CURVE SMOOTH",
"643 549 OFFCURVE",
"499 707 OFFCURVE",
"342 707 CURVE SMOOTH"
);
},
{
closed = 1;
nodes = (
"462 627 OFFCURVE",
"563 474 OFFCURVE",
"563 338 CURVE SMOOTH",
"563 199 OFFCURVE",
"460 77 OFFCURVE",
"342 77 CURVE SMOOTH",
"224 77 OFFCURVE",
"121 199 OFFCURVE",
"121 338 CURVE SMOOTH",
"121 478 OFFCURVE",
"224 627 OFFCURVE",
"342 627 CURVE SMOOTH"
);
}
);
width = 688;
}
);
unicode = 00D3;
},
{
glyphname = Ocircumflex;
lastChange = "2014-09-27 15:23:54 +0100";
layers = (
{
layerId = "24C63A81-7FC6-4EE9-AF2B-C1140AFD6C4B";
name = Regular;
paths = (
{
closed = 1;
nodes = (
"348 887 OFFCURVE",
"341 895 OFFCURVE",
"220 773 CURVE SMOOTH",
"186 738 OFFCURVE",
"218 696 OFFCURVE",
"246 717 CURVE SMOOTH",
"362 808 OFFCURVE",
"316 813 OFFCURVE",
"421 719 CURVE",
"447 693 OFFCURVE",
"492 732 OFFCURVE",
"454 773 CURVE SMOOTH"
);
},
{
closed = 1;
nodes = (
"185 707 OFFCURVE",
"40 552 OFFCURVE",
"40 338 CURVE SMOOTH",
"40 160 OFFCURVE",
"172 -2 OFFCURVE",
"342 -2 CURVE SMOOTH",
"535 -2 OFFCURVE",
"643 194 OFFCURVE",
"643 338 CURVE SMOOTH",
"643 549 OFFCURVE",
"499 707 OFFCURVE",
"342 707 CURVE SMOOTH"
);
},
{
closed = 1;
nodes = (
"462 627 OFFCURVE",
"563 474 OFFCURVE",
"563 338 CURVE SMOOTH",
"563 199 OFFCURVE",
"460 77 OFFCURVE",
"342 77 CURVE SMOOTH",
"224 77 OFFCURVE",
"121 199 OFFCURVE",
"121 338 CURVE SMOOTH",
"121 478 OFFCURVE",
"224 627 OFFCURVE",
"342 627 CURVE SMOOTH"
);
}
);
width = 688;
}
);
unicode = 00D4;
},
{
glyphname = Odieresis;
lastChange = "2014-09-27 15:23:54 +0100";
layers = (
{
layerId = "24C63A81-7FC6-4EE9-AF2B-C1140AFD6C4B";
name = Regular;
paths = (
{
closed = 1;
nodes = (
"234 841 OFFCURVE",
"213 814 OFFCURVE",
"206 783 CURVE SMOOTH",
"199 753 OFFCURVE",
"211 726 OFFCURVE",
"242 732 CURVE SMOOTH",
"273 738 OFFCURVE",
"292 754 OFFCURVE",
"301 786 CURVE SMOOTH",
"310 817 OFFCURVE",
"297 835 OFFCURVE",
"265 838 CURVE SMOOTH"
);
},
{
closed = 1;
nodes = (
"430 841 OFFCURVE",
"404 817 OFFCURVE",
"397 786 CURVE SMOOTH",
"390 756 OFFCURVE",
"405 745 OFFCURVE",
"433 735 CURVE SMOOTH",
"464 724 OFFCURVE",
"488 754 OFFCURVE",
"497 786 CURVE SMOOTH",
"506 817 OFFCURVE",
"493 835 OFFCURVE",
"461 838 CURVE SMOOTH"
);
},
{
closed = 1;
nodes = (
"185 707 OFFCURVE",
"40 552 OFFCURVE",
"40 338 CURVE SMOOTH",
"40 160 OFFCURVE",
"172 -2 OFFCURVE",
"342 -2 CURVE SMOOTH",
"535 -2 OFFCURVE",
"643 194 OFFCURVE",
"643 338 CURVE SMOOTH",
"643 549 OFFCURVE",
"499 707 OFFCURVE",
"342 707 CURVE SMOOTH"
);
},
{
closed = 1;
nodes = (
"462 627 OFFCURVE",
"563 474 OFFCURVE",
"563 338 CURVE SMOOTH",
"563 199 OFFCURVE",
"460 77 OFFCURVE",
"342 77 CURVE SMOOTH",
"224 77 OFFCURVE",
"121 199 OFFCURVE",
"121 338 CURVE SMOOTH",
"121 478 OFFCURVE",
"224 627 OFFCURVE",
"342 627 CURVE SMOOTH"
);
}
);
width = 688;
}
);
unicode = 00D6;
},
{
glyphname = Ograve;
lastChange = "2014-09-27 15:23:54 +0100";
layers = (
{
layerId = "24C63A81-7FC6-4EE9-AF2B-C1140AFD6C4B";
name = Regular;
paths = (
{
closed = 1;
nodes = (
"241 882 OFFCURVE",
"176 827 OFFCURVE",
"258 781 CURVE SMOOTH",
"297 759 OFFCURVE",
"313 743 OFFCURVE",
"335 738 CURVE SMOOTH",
"368 731 OFFCURVE",
"371 768 OFFCURVE",
"352 787 CURVE SMOOTH",
"299 838 OFFCURVE",
"329 808 OFFCURVE",
"273 855 CURVE SMOOTH"
);
},
{
closed = 1;
nodes = (
"185 707 OFFCURVE",
"40 552 OFFCURVE",
"40 338 CURVE SMOOTH",
"40 160 OFFCURVE",
"172 -2 OFFCURVE",
"342 -2 CURVE SMOOTH",
"535 -2 OFFCURVE",
"643 194 OFFCURVE",
"643 338 CURVE SMOOTH",
"643 549 OFFCURVE",
"499 707 OFFCURVE",
"342 707 CURVE SMOOTH"
);
},
{
closed = 1;
nodes = (
"462 627 OFFCURVE",
"563 474 OFFCURVE",
"563 338 CURVE SMOOTH",
"563 199 OFFCURVE",
"460 77 OFFCURVE",
"342 77 CURVE SMOOTH",
"224 77 OFFCURVE",
"121 199 OFFCURVE",
"121 338 CURVE SMOOTH",
"121 478 OFFCURVE",
"224 627 OFFCURVE",
"342 627 CURVE SMOOTH"
);
}
);
width = 688;
}
);
unicode = 00D2;
},
{
glyphname = Ohungarumlaut;
lastChange = "2014-09-27 15:23:54 +0100";
layers = (
{
layerId = "24C63A81-7FC6-4EE9-AF2B-C1140AFD6C4B";
name = Regular;
paths = (
{
closed = 1;
nodes = (
"398 879 OFFCURVE",
"323 901 OFFCURVE",
"297 862 CURVE SMOOTH",
"272 825 OFFCURVE",
"259 807 OFFCURVE",
"254 785 CURVE SMOOTH",
"247 752 OFFCURVE",
"284 749 OFFCURVE",
"303 768 CURVE SMOOTH",
"354 821 OFFCURVE",
"324 791 OFFCURVE",
"371 847 CURVE SMOOTH"
);
},
{
closed = 1;
nodes = (
"528 879 OFFCURVE",
"453 901 OFFCURVE",
"427 862 CURVE SMOOTH",
"402 825 OFFCURVE",
"389 807 OFFCURVE",
"384 785 CURVE SMOOTH",
"377 752 OFFCURVE",
"414 749 OFFCURVE",
"433 768 CURVE SMOOTH",
"484 821 OFFCURVE",
"454 791 OFFCURVE",
"501 847 CURVE SMOOTH"
);
},
{
closed = 1;
nodes = (
"185 707 OFFCURVE",
"40 552 OFFCURVE",
"40 338 CURVE SMOOTH",
"40 160 OFFCURVE",
"172 -2 OFFCURVE",
"342 -2 CURVE SMOOTH",
"535 -2 OFFCURVE",
"643 194 OFFCURVE",
"643 338 CURVE SMOOTH",
"643 549 OFFCURVE",
"499 707 OFFCURVE",
"342 707 CURVE SMOOTH"
);
},
{
closed = 1;
nodes = (
"462 627 OFFCURVE",
"563 474 OFFCURVE",
"563 338 CURVE SMOOTH",
"563 199 OFFCURVE",
"460 77 OFFCURVE",
"342 77 CURVE SMOOTH",
"224 77 OFFCURVE",
"121 199 OFFCURVE",
"121 338 CURVE SMOOTH",
"121 478 OFFCURVE",
"224 627 OFFCURVE",
"342 627 CURVE SMOOTH"
);
}
);
width = 688;
}
);
unicode = 0150;
},
{
glyphname = Omacron;
lastChange = "2014-09-27 15:23:54 +0100";
layers = (
{
layerId = "24C63A81-7FC6-4EE9-AF2B-C1140AFD6C4B";
name = Regular;
paths = (
{
closed = 1;
nodes = (
"250 835 LINE SMOOTH",
"228 834 OFFCURVE",
"217 818 OFFCURVE",
"217 805 CURVE SMOOTH",
"217 797 OFFCURVE",
"225 780 OFFCURVE",
"244 778 CURVE",
"246 777 OFFCURVE",
"248 777 OFFCURVE",
"249 777 CURVE",
"470 785 LINE SMOOTH",
"492 786 OFFCURVE",
"502 803 OFFCURVE",
"502 813 CURVE SMOOTH",
"502 825 OFFCURVE",
"490 844 OFFCURVE",
"468 843 CURVE SMOOTH"
);
},
{
closed = 1;
nodes = (
"185 707 OFFCURVE",
"40 552 OFFCURVE",
"40 338 CURVE SMOOTH",
"40 160 OFFCURVE",
"172 -2 OFFCURVE",
"342 -2 CURVE SMOOTH",
"535 -2 OFFCURVE",
"643 194 OFFCURVE",
"643 338 CURVE SMOOTH",
"643 549 OFFCURVE",
"499 707 OFFCURVE",
"342 707 CURVE SMOOTH"
);
},
{
closed = 1;
nodes = (
"462 627 OFFCURVE",
"563 474 OFFCURVE",
"563 338 CURVE SMOOTH",
"563 199 OFFCURVE",
"460 77 OFFCURVE",
"342 77 CURVE SMOOTH",
"224 77 OFFCURVE",
"121 199 OFFCURVE",
"121 338 CURVE SMOOTH",
"121 478 OFFCURVE",
"224 627 OFFCURVE",
"342 627 CURVE SMOOTH"
);
}
);
width = 688;
}
);
unicode = 014C;
},
{
glyphname = Oslash;
lastChange = "2014-09-27 15:23:54 +0100";
layers = (
{
layerId = "24C63A81-7FC6-4EE9-AF2B-C1140AFD6C4B";
name = Regular;
paths = (
{
closed = 1;
nodes = (
"480 724 LINE SMOOTH",
"486 745 OFFCURVE",
"474 767 OFFCURVE",
"452 773 CURVE SMOOTH",
"431 779 OFFCURVE",
"409 767 OFFCURVE",
"403 746 CURVE SMOOTH",
"390 702 LINE",
"374 705 OFFCURVE",
"358 707 OFFCURVE",
"342 707 CURVE SMOOTH",
"185 707 OFFCURVE",
"40 552 OFFCURVE",
"40 338 CURVE SMOOTH",
"40 215 OFFCURVE",
"103 100 OFFCURVE",
"197 41 CURVE",
"175 -36 LINE SMOOTH",
"169 -57 OFFCURVE",
"181 -79 OFFCURVE",
"202 -85 CURVE SMOOTH",
"206 -86 OFFCURVE",
"210 -87 OFFCURVE",
"213 -87 CURVE SMOOTH",
"231 -87 OFFCURVE",
"247 -76 OFFCURVE",
"252 -58 CURVE SMOOTH",
"271 8 LINE",
"294 1 OFFCURVE",
"317 -2 OFFCURVE",
"342 -2 CURVE SMOOTH",
"535 -2 OFFCURVE",
"643 194 OFFCURVE",
"643 338 CURVE SMOOTH",
"643 491 OFFCURVE",
"567 617 OFFCURVE",
"465 674 CURVE"
);
},
{
closed = 1;
nodes = (
"121 478 OFFCURVE",
"224 627 OFFCURVE",
"342 627 CURVE SMOOTH",
"351 627 OFFCURVE",
"359 626 OFFCURVE",
"368 625 CURVE",
"221 122 LINE",
"162 170 OFFCURVE",
"121 251 OFFCURVE",
"121 338 CURVE SMOOTH"
);
},
{
closed = 1;
nodes = (
"325 77 OFFCURVE",
"309 79 OFFCURVE",
"293 84 CURVE",
"441 591 LINE",
"513 538 OFFCURVE",
"563 434 OFFCURVE",
"563 338 CURVE SMOOTH",
"563 199 OFFCURVE",
"460 77 OFFCURVE",
"342 77 CURVE SMOOTH"
);
}
);
width = 688;
}
);
unicode = 00D8;
},
{
glyphname = Otilde;
lastChange = "2014-09-27 15:23:54 +0100";
layers = (
{
layerId = "24C63A81-7FC6-4EE9-AF2B-C1140AFD6C4B";
name = Regular;
paths = (
{
closed = 1;
nodes = (
"233 875 OFFCURVE",
"196 838 OFFCURVE",
"196 779 CURVE SMOOTH",
"196 766 OFFCURVE",
"204 750 OFFCURVE",
"226 750 CURVE SMOOTH",
"266 750 OFFCURVE",
"248 810 OFFCURVE",
"289 810 CURVE SMOOTH",
"325 810 OFFCURVE",
"349 745 OFFCURVE",
"406 746 CURVE SMOOTH",
"465 747 OFFCURVE",
"502 785 OFFCURVE",
"502 843 CURVE SMOOTH",
"502 862 OFFCURVE",
"483 870 OFFCURVE",
"472 870 CURVE SMOOTH",
"411 870 OFFCURVE",
"456 810 OFFCURVE",
"406 809 CURVE SMOOTH",
"372 808 OFFCURVE",
"352 875 OFFCURVE",
"292 875 CURVE SMOOTH"
);
},
{
closed = 1;
nodes = (
"185 707 OFFCURVE",
"40 552 OFFCURVE",
"40 338 CURVE SMOOTH",
"40 160 OFFCURVE",
"172 -2 OFFCURVE",
"342 -2 CURVE SMOOTH",
"535 -2 OFFCURVE",
"643 194 OFFCURVE",
"643 338 CURVE SMOOTH",
"643 549 OFFCURVE",
"499 707 OFFCURVE",
"342 707 CURVE SMOOTH"
);
},
{
closed = 1;
nodes = (
"462 627 OFFCURVE",
"563 474 OFFCURVE",
"563 338 CURVE SMOOTH",
"563 199 OFFCURVE",
"460 77 OFFCURVE",
"342 77 CURVE SMOOTH",
"224 77 OFFCURVE",
"121 199 OFFCURVE",
"121 338 CURVE SMOOTH",
"121 478 OFFCURVE",
"224 627 OFFCURVE",
"342 627 CURVE SMOOTH"
);
}
);
width = 688;
}
);
unicode = 00D5;
},
{
glyphname = OE;
lastChange = "2014-09-27 15:23:54 +0100";
layers = (
{
layerId = "24C63A81-7FC6-4EE9-AF2B-C1140AFD6C4B";
name = Regular;
paths = (
{
closed = 1;
nodes = (
"882 86 OFFCURVE",
"824 83 OFFCURVE",
"731 81 CURVE SMOOTH",
"637 79 OFFCURVE",
"590 76 OFFCURVE",
"566 76 CURVE",
"563 118 OFFCURVE",
"559 210 OFFCURVE",
"559 326 CURVE",
"770 342 LINE SMOOTH",
"792 344 OFFCURVE",
"807 365 OFFCURVE",
"804 387 CURVE",
"802 409 OFFCURVE",
"782 424 OFFCURVE",
"760 422 CURVE SMOOTH",
"559 407 LINE",
"560 520 OFFCURVE",
"563 586 OFFCURVE",
"566 617 CURVE",
"586 619 OFFCURVE",
"633 618 OFFCURVE",
"735 617 CURVE SMOOTH",
"826 616 OFFCURVE",
"882 611 OFFCURVE",
"883 611 CURVE",
"905 609 OFFCURVE",
"924 626 OFFCURVE",
"925 648 CURVE",
"927 670 OFFCURVE",
"910 689 OFFCURVE",
"888 691 CURVE",
"887 691 OFFCURVE",
"820 696 OFFCURVE",
"722 697 CURVE SMOOTH",
"670 698 OFFCURVE",
"628 699 OFFCURVE",
"596 698 CURVE SMOOTH",
"538 697 OFFCURVE",
"516 691 OFFCURVE",
"502 675 CURVE",
"495 668 OFFCURVE",
"491 659 OFFCURVE",
"488 635 CURVE",
"453 680 OFFCURVE",
"399 707 OFFCURVE",
"315 707 CURVE SMOOTH",
"137 707 OFFCURVE",
"42 552 OFFCURVE",
"42 338 CURVE SMOOTH",
"42 160 OFFCURVE",
"154 -2 OFFCURVE",
"304 -2 CURVE SMOOTH",
"395 -2 OFFCURVE",
"452 22 OFFCURVE",
"488 58 CURVE",
"490 35 OFFCURVE",
"493 20 OFFCURVE",
"506 9 CURVE",
"519 -1 OFFCURVE",
"533 -4 OFFCURVE",
"579 -4 CURVE SMOOTH",
"596 -4 LINE SMOOTH",
"627 -4 OFFCURVE",
"669 -2 OFFCURVE",
"721 0 CURVE SMOOTH",
"819 3 OFFCURVE",
"887 6 OFFCURVE",
"888 6 CURVE",
"910 8 OFFCURVE",
"927 29 OFFCURVE",
"925 51 CURVE",
"924 73 OFFCURVE",
"905 88 OFFCURVE",
"883 86 CURVE"
);
},
{
closed = 1;
nodes = (
"206 77 OFFCURVE",
"123 199 OFFCURVE",
"123 338 CURVE SMOOTH",
"123 478 OFFCURVE",
"176 627 OFFCURVE",
"315 627 CURVE SMOOTH",
"484 627 OFFCURVE",
"476 474 OFFCURVE",
"476 338 CURVE SMOOTH",
"476 199 OFFCURVE",
"492 77 OFFCURVE",
"304 77 CURVE SMOOTH"
);
}
);
width = 954;
}
);
unicode = 0152;
},
{
glyphname = P;
lastChange = "2014-09-27 15:23:54 +0100";
layers = (
{
layerId = "24C63A81-7FC6-4EE9-AF2B-C1140AFD6C4B";
name = Regular;
paths = (
{
closed = 1;
nodes = (
"192 702 OFFCURVE",
"141 690 OFFCURVE",
"139 689 CURVE",
"85 674 OFFCURVE",
"57 655 OFFCURVE",
"57 623 CURVE SMOOTH",
"57 592 OFFCURVE",
"74 582 OFFCURVE",
"109 592 CURVE",
"109 281 LINE",
"109 40 LINE SMOOTH",
"109 18 OFFCURVE",
"127 0 OFFCURVE",
"149 0 CURVE SMOOTH",
"171 0 OFFCURVE",
"189 18 OFFCURVE",
"189 40 CURVE SMOOTH",
"189 247 LINE",
"318 270 OFFCURVE",
"548 345 OFFCURVE",
"548 511 CURVE SMOOTH",
"548 659 OFFCURVE",
"414 717 OFFCURVE",
"255 706 CURVE SMOOTH"
);
},
{
closed = 1;
nodes = (
"189 618 LINE",
"294 636 OFFCURVE",
"468 645 OFFCURVE",
"468 511 CURVE SMOOTH",
"468 398 OFFCURVE",
"276 348 OFFCURVE",
"189 328 CURVE"
);
}
);
width = 578;
}
);
unicode = 0050;
},
{
glyphname = Thorn;
lastChange = "2014-09-27 15:23:54 +0100";
layers = (
{
layerId = "24C63A81-7FC6-4EE9-AF2B-C1140AFD6C4B";
name = Regular;
paths = (
{
closed = 1;
nodes = (
"459 480 OFFCURVE",
"321 480 CURVE SMOOTH",
"252 480 OFFCURVE",
"192 457 OFFCURVE",
"165 432 CURVE",
"165 636 OFFCURVE",
"111 640 OFFCURVE",
"82 628 CURVE SMOOTH",
"40 610 OFFCURVE",
"62 570 OFFCURVE",
"71 557 CURVE SMOOTH",
"89 529 OFFCURVE",
"87 347 OFFCURVE",
"85 299 CURVE SMOOTH",
"79 171 OFFCURVE",
"68 -24 OFFCURVE",
"68 -28 CURVE",
"66 -50 OFFCURVE",
"83 -69 OFFCURVE",
"105 -70 CURVE",
"108 -70 LINE SMOOTH",
"129 -70 OFFCURVE",
"146 -53 OFFCURVE",
"147 -32 CURVE",
"148 -23 OFFCURVE",
"149 48 OFFCURVE",
"154 151 CURVE",
"190 95 OFFCURVE",
"274 79 OFFCURVE",
"342 79 CURVE SMOOTH",
"434 79 OFFCURVE",
"547 144 OFFCURVE",
"547 263 CURVE SMOOTH",
"547 392 OFFCURVE"
);
},
{
closed = 1;
nodes = (
"381 159 OFFCURVE",
"313 159 CURVE SMOOTH",
"209 159 OFFCURVE",
"165 229 OFFCURVE",
"165 294 CURVE SMOOTH",
"165 365 OFFCURVE",
"224 403 OFFCURVE",
"321 403 CURVE SMOOTH",
"393 403 OFFCURVE",
"467 360 OFFCURVE",
"467 263 CURVE SMOOTH",
"467 183 OFFCURVE"
);
}
);
width = 543;
}
);
unicode = 00DE;
},
{
glyphname = Q;
lastChange = "2014-09-27 15:23:54 +0100";
layers = (
{
layerId = "24C63A81-7FC6-4EE9-AF2B-C1140AFD6C4B";
name = Regular;
paths = (
{
closed = 1;
nodes = (
"547 111 OFFCURVE",
"537 121 OFFCURVE",
"526 130 CURVE",
"562 191 OFFCURVE",
"579 265 OFFCURVE",
"579 329 CURVE SMOOTH",
"579 512 OFFCURVE",
"470 701 OFFCURVE",
"308 701 CURVE SMOOTH",
"142 701 OFFCURVE",
"36 508 OFFCURVE",
"36 329 CURVE SMOOTH",
"36 181 OFFCURVE",
"117 1 OFFCURVE",
"308 1 CURVE SMOOTH",
"380 1 OFFCURVE",
"436 28 OFFCURVE",
"478 69 CURVE",
"487 61 OFFCURVE",
"494 53 OFFCURVE",
"502 44 CURVE SMOOTH",
"520 23 OFFCURVE",
"542 5 OFFCURVE",
"567 25 CURVE SMOOTH",
"594 46 OFFCURVE",
"579 76 OFFCURVE",
"556 101 CURVE SMOOTH"
);
},
{
closed = 1;
nodes = (
"420 631 OFFCURVE",
"499 467 OFFCURVE",
"499 329 CURVE SMOOTH",
"499 271 OFFCURVE",
"486 217 OFFCURVE",
"463 174 CURVE",
"369 227 OFFCURVE",
"249 245 OFFCURVE",
"139 202 CURVE",
"124 240 OFFCURVE",
"116 283 OFFCURVE",
"116 329 CURVE SMOOTH",
"116 472 OFFCURVE",
"198 631 OFFCURVE",
"308 631 CURVE SMOOTH"
);
},
{
closed = 1;
nodes = (
"256 71 OFFCURVE",
"213 94 OFFCURVE",
"180 132 CURVE",
"260 161 OFFCURVE",
"344 156 OFFCURVE",
"418 115 CURVE",
"387 87 OFFCURVE",
"350 71 OFFCURVE",
"308 71 CURVE SMOOTH"
);
}
);
width = 630;
}
);
unicode = 0051;
},
{
glyphname = R;
lastChange = "2014-09-27 15:23:54 +0100";
layers = (
{
layerId = "24C63A81-7FC6-4EE9-AF2B-C1140AFD6C4B";
name = Regular;
paths = (
{
closed = 1;
nodes = (
"176 691 OFFCURVE",
"123 677 OFFCURVE",
"121 676 CURVE",
"66 661 OFFCURVE",
"46 644 OFFCURVE",
"46 627 CURVE SMOOTH",
"46 601 OFFCURVE",
"48 577 OFFCURVE",
"92 586 CURVE",
"92 40 LINE SMOOTH",
"92 18 OFFCURVE",
"110 0 OFFCURVE",
"132 0 CURVE SMOOTH",
"154 0 OFFCURVE",
"172 18 OFFCURVE",
"172 40 CURVE SMOOTH",
"172 259 LINE",
"185 260 OFFCURVE",
"200 260 OFFCURVE",
"218 259 CURVE SMOOTH",
"258 258 OFFCURVE",
"314 249 OFFCURVE",
"356 216 CURVE SMOOTH",
"411 173 OFFCURVE",
"434 109 OFFCURVE",
"445 70 CURVE SMOOTH",
"465 -1 OFFCURVE",
"490 -4 OFFCURVE",
"508 1 CURVE SMOOTH",
"524 6 OFFCURVE",
"540 22 OFFCURVE",
"523 84 CURVE SMOOTH",
"498 178 OFFCURVE",
"432 285 OFFCURVE",
"325 309 CURVE",
"482 341 OFFCURVE",
"520 451 OFFCURVE",
"520 512 CURVE SMOOTH",
"520 541 OFFCURVE",
"514 570 OFFCURVE",
"502 595 CURVE SMOOTH",
"491 618 OFFCURVE",
"475 638 OFFCURVE",
"454 654 CURVE SMOOTH",
"406 691 OFFCURVE",
"334 705 OFFCURVE",
"241 697 CURVE SMOOTH"
);
},
{
closed = 1;
nodes = (
"320 623 OFFCURVE",
"374 614 OFFCURVE",
"406 590 CURVE SMOOTH",
"414 584 OFFCURVE",
"440 565 OFFCURVE",
"440 512 CURVE SMOOTH",
"440 481 OFFCURVE",
"427 454 OFFCURVE",
"399 429 CURVE SMOOTH",
"375 407 OFFCURVE",
"339 387 OFFCURVE",
"294 371 CURVE SMOOTH",
"249 355 OFFCURVE",
"204 345 OFFCURVE",
"172 340 CURVE",
"172 606 LINE",
"191 610 OFFCURVE",
"219 615 OFFCURVE",
"249 617 CURVE SMOOTH"
);
}
);
width = 588;
}
);
unicode = 0052;
},
{
glyphname = Racute;
lastChange = "2014-09-27 15:23:54 +0100";
layers = (
{
layerId = "24C63A81-7FC6-4EE9-AF2B-C1140AFD6C4B";
name = Regular;
paths = (
{
closed = 1;
nodes = (
"381 830 LINE SMOOTH",
"414 857 OFFCURVE",
"403 876 OFFCURVE",
"392 885 CURVE SMOOTH",
"381 894 OFFCURVE",
"363 899 OFFCURVE",
"320 862 CURVE SMOOTH",
"293 839 OFFCURVE",
"271 823 OFFCURVE",
"261 803 CURVE SMOOTH",
"255 790 OFFCURVE",
"257 776 OFFCURVE",
"262 769 CURVE",
"268 759 OFFCURVE",
"287 750 OFFCURVE",
"306 766 CURVE SMOOTH"
);
},
{
closed = 1;
nodes = (
"176 691 OFFCURVE",
"123 677 OFFCURVE",
"121 676 CURVE",
"66 661 OFFCURVE",
"46 644 OFFCURVE",
"46 627 CURVE SMOOTH",
"46 601 OFFCURVE",
"48 577 OFFCURVE",
"92 586 CURVE",
"92 40 LINE SMOOTH",
"92 18 OFFCURVE",
"110 0 OFFCURVE",
"132 0 CURVE SMOOTH",
"154 0 OFFCURVE",
"172 18 OFFCURVE",
"172 40 CURVE SMOOTH",
"172 259 LINE",
"185 260 OFFCURVE",
"200 260 OFFCURVE",
"218 259 CURVE SMOOTH",
"258 258 OFFCURVE",
"314 249 OFFCURVE",
"356 216 CURVE SMOOTH",
"411 173 OFFCURVE",
"434 109 OFFCURVE",
"445 70 CURVE SMOOTH",
"465 -1 OFFCURVE",
"490 -4 OFFCURVE",
"508 1 CURVE SMOOTH",
"524 6 OFFCURVE",
"540 22 OFFCURVE",
"523 84 CURVE SMOOTH",
"498 178 OFFCURVE",
"432 285 OFFCURVE",
"325 309 CURVE",
"482 341 OFFCURVE",
"520 451 OFFCURVE",
"520 512 CURVE SMOOTH",
"520 541 OFFCURVE",
"514 570 OFFCURVE",
"502 595 CURVE SMOOTH",
"491 618 OFFCURVE",
"475 638 OFFCURVE",
"454 654 CURVE SMOOTH",
"406 691 OFFCURVE",
"334 705 OFFCURVE",
"241 697 CURVE SMOOTH"
);
},
{
closed = 1;
nodes = (
"320 623 OFFCURVE",
"374 614 OFFCURVE",
"406 590 CURVE SMOOTH",
"414 584 OFFCURVE",
"440 565 OFFCURVE",
"440 512 CURVE SMOOTH",
"440 481 OFFCURVE",
"427 454 OFFCURVE",
"399 429 CURVE SMOOTH",
"375 407 OFFCURVE",
"339 387 OFFCURVE",
"294 371 CURVE SMOOTH",
"249 355 OFFCURVE",
"204 345 OFFCURVE",
"172 340 CURVE",
"172 606 LINE",
"191 610 OFFCURVE",
"219 615 OFFCURVE",
"249 617 CURVE SMOOTH"
);
}
);
width = 588;
}
);
unicode = 0154;
},
{
glyphname = Rcaron;
lastChange = "2014-09-27 15:23:54 +0100";
layers = (
{
layerId = "24C63A81-7FC6-4EE9-AF2B-C1140AFD6C4B";
name = Regular;
paths = (
{
closed = 1;
nodes = (
"253 719 OFFCURVE",
"260 711 OFFCURVE",
"380 834 CURVE SMOOTH",
"413 870 OFFCURVE",
"381 911 OFFCURVE",
"353 890 CURVE SMOOTH",
"238 798 OFFCURVE",
"284 793 OFFCURVE",
"178 886 CURVE",
"152 912 OFFCURVE",
"107 872 OFFCURVE",
"146 832 CURVE SMOOTH"
);
},
{
closed = 1;
nodes = (
"176 691 OFFCURVE",
"123 677 OFFCURVE",
"121 676 CURVE",
"66 661 OFFCURVE",
"46 644 OFFCURVE",
"46 627 CURVE SMOOTH",
"46 601 OFFCURVE",
"48 577 OFFCURVE",
"92 586 CURVE",
"92 40 LINE SMOOTH",
"92 18 OFFCURVE",
"110 0 OFFCURVE",
"132 0 CURVE SMOOTH",
"154 0 OFFCURVE",
"172 18 OFFCURVE",
"172 40 CURVE SMOOTH",
"172 259 LINE",
"185 260 OFFCURVE",
"200 260 OFFCURVE",
"218 259 CURVE SMOOTH",
"258 258 OFFCURVE",
"314 249 OFFCURVE",
"356 216 CURVE SMOOTH",
"411 173 OFFCURVE",
"434 109 OFFCURVE",
"445 70 CURVE SMOOTH",
"465 -1 OFFCURVE",
"490 -4 OFFCURVE",
"508 1 CURVE SMOOTH",
"524 6 OFFCURVE",
"540 22 OFFCURVE",
"523 84 CURVE SMOOTH",
"498 178 OFFCURVE",
"432 285 OFFCURVE",
"325 309 CURVE",
"482 341 OFFCURVE",
"520 451 OFFCURVE",
"520 512 CURVE SMOOTH",
"520 541 OFFCURVE",
"514 570 OFFCURVE",
"502 595 CURVE SMOOTH",
"491 618 OFFCURVE",
"475 638 OFFCURVE",
"454 654 CURVE SMOOTH",
"406 691 OFFCURVE",
"334 705 OFFCURVE",
"241 697 CURVE SMOOTH"
);
},
{
closed = 1;
nodes = (
"320 623 OFFCURVE",
"374 614 OFFCURVE",
"406 590 CURVE SMOOTH",
"414 584 OFFCURVE",
"440 565 OFFCURVE",
"440 512 CURVE SMOOTH",
"440 481 OFFCURVE",
"427 454 OFFCURVE",
"399 429 CURVE SMOOTH",
"375 407 OFFCURVE",
"339 387 OFFCURVE",
"294 371 CURVE SMOOTH",
"249 355 OFFCURVE",
"204 345 OFFCURVE",
"172 340 CURVE",
"172 606 LINE",
"191 610 OFFCURVE",
"219 615 OFFCURVE",
"249 617 CURVE SMOOTH"
);
}
);
width = 588;
}
);
unicode = 0158;
},
{
glyphname = S;
lastChange = "2014-09-27 15:23:54 +0100";
layers = (
{
layerId = "24C63A81-7FC6-4EE9-AF2B-C1140AFD6C4B";
name = Regular;
paths = (
{
closed = 1;
nodes = (
"170 692 OFFCURVE",
"74 616 OFFCURVE",
"60 535 CURVE SMOOTH",
"41 422 OFFCURVE",
"143 368 OFFCURVE",
"257 325 CURVE SMOOTH",
"363 285 OFFCURVE",
"396 239 OFFCURVE",
"388 181 CURVE SMOOTH",
"380 123 OFFCURVE",
"314 81 OFFCURVE",
"258 82 CURVE SMOOTH",
"143 84 OFFCURVE",
"137 130 OFFCURVE",
"134 144 CURVE SMOOTH",
"124 193 OFFCURVE",
"44 175 OFFCURVE",
"51 125 CURVE",
"70 36 OFFCURVE",
"173 0 OFFCURVE",
"250 0 CURVE SMOOTH",
"345 0 OFFCURVE",
"450 58 OFFCURVE",
"467 160 CURVE SMOOTH",
"476 213 OFFCURVE",
"483 328 OFFCURVE",
"285 403 CURVE SMOOTH",
"232 423 OFFCURVE",
"129 450 OFFCURVE",
"142 518 CURVE SMOOTH",
"150 567 OFFCURVE",
"195 611 OFFCURVE",
"252 611 CURVE SMOOTH",
"338 611 OFFCURVE",
"362 578 OFFCURVE",
"386 551 CURVE SMOOTH",
"405 529 OFFCURVE",
"429 535 OFFCURVE",
"441 551 CURVE SMOOTH",
"453 566 OFFCURVE",
"454 590 OFFCURVE",
"434 612 CURVE SMOOTH",
"420 627 OFFCURVE",
"366 692 OFFCURVE",
"249 692 CURVE SMOOTH"
);
}
);
width = 511;
}
);
unicode = 0053;
},
{
glyphname = Sacute;
lastChange = "2014-09-27 15:23:54 +0100";
layers = (
{
layerId = "24C63A81-7FC6-4EE9-AF2B-C1140AFD6C4B";
name = Regular;
paths = (
{
closed = 1;
nodes = (
"356 823 LINE SMOOTH",
"389 850 OFFCURVE",
"378 869 OFFCURVE",
"367 878 CURVE SMOOTH",
"356 887 OFFCURVE",
"338 892 OFFCURVE",
"295 855 CURVE SMOOTH",
"268 832 OFFCURVE",
"246 816 OFFCURVE",
"236 796 CURVE SMOOTH",
"230 783 OFFCURVE",
"232 769 OFFCURVE",
"237 762 CURVE",
"243 752 OFFCURVE",
"262 743 OFFCURVE",
"281 759 CURVE SMOOTH"
);
},
{
closed = 1;
nodes = (
"170 692 OFFCURVE",
"74 616 OFFCURVE",
"60 535 CURVE SMOOTH",
"41 422 OFFCURVE",
"143 368 OFFCURVE",
"257 325 CURVE SMOOTH",
"363 285 OFFCURVE",
"396 239 OFFCURVE",
"388 181 CURVE SMOOTH",
"380 123 OFFCURVE",
"314 81 OFFCURVE",
"258 82 CURVE SMOOTH",
"143 84 OFFCURVE",
"137 130 OFFCURVE",
"134 144 CURVE SMOOTH",
"124 193 OFFCURVE",
"44 175 OFFCURVE",
"51 125 CURVE",
"70 36 OFFCURVE",
"173 0 OFFCURVE",
"250 0 CURVE SMOOTH",
"345 0 OFFCURVE",
"450 58 OFFCURVE",
"467 160 CURVE SMOOTH",
"476 213 OFFCURVE",
"483 328 OFFCURVE",
"285 403 CURVE SMOOTH",
"232 423 OFFCURVE",
"129 450 OFFCURVE",
"142 518 CURVE SMOOTH",
"150 567 OFFCURVE",
"195 611 OFFCURVE",
"252 611 CURVE SMOOTH",
"338 611 OFFCURVE",
"362 578 OFFCURVE",
"386 551 CURVE SMOOTH",
"405 529 OFFCURVE",
"429 535 OFFCURVE",
"441 551 CURVE SMOOTH",
"453 566 OFFCURVE",
"454 590 OFFCURVE",
"434 612 CURVE SMOOTH",
"420 627 OFFCURVE",
"366 692 OFFCURVE",
"249 692 CURVE SMOOTH"
);
}
);
width = 511;
}
);
unicode = 015A;
},
{
glyphname = Scaron;
lastChange = "2014-09-27 15:23:54 +0100";
layers = (
{
layerId = "24C63A81-7FC6-4EE9-AF2B-C1140AFD6C4B";
name = Regular;
paths = (
{
closed = 1;
nodes = (
"243 726 OFFCURVE",
"250 718 OFFCURVE",
"370 841 CURVE SMOOTH",
"403 877 OFFCURVE",
"371 918 OFFCURVE",
"343 897 CURVE SMOOTH",
"228 805 OFFCURVE",
"274 800 OFFCURVE",
"168 893 CURVE",
"142 919 OFFCURVE",
"97 879 OFFCURVE",
"136 839 CURVE SMOOTH"
);
},
{
closed = 1;
nodes = (
"170 692 OFFCURVE",
"74 616 OFFCURVE",
"60 535 CURVE SMOOTH",
"41 422 OFFCURVE",
"143 368 OFFCURVE",
"257 325 CURVE SMOOTH",
"363 285 OFFCURVE",
"396 239 OFFCURVE",
"388 181 CURVE SMOOTH",
"380 123 OFFCURVE",
"314 81 OFFCURVE",
"258 82 CURVE SMOOTH",
"143 84 OFFCURVE",
"137 130 OFFCURVE",
"134 144 CURVE SMOOTH",
"124 193 OFFCURVE",
"44 175 OFFCURVE",
"51 125 CURVE",
"70 36 OFFCURVE",
"173 0 OFFCURVE",
"250 0 CURVE SMOOTH",
"345 0 OFFCURVE",
"450 58 OFFCURVE",
"467 160 CURVE SMOOTH",
"476 213 OFFCURVE",
"483 328 OFFCURVE",
"285 403 CURVE SMOOTH",
"232 423 OFFCURVE",
"129 450 OFFCURVE",
"142 518 CURVE SMOOTH",
"150 567 OFFCURVE",
"195 611 OFFCURVE",
"252 611 CURVE SMOOTH",
"338 611 OFFCURVE",
"362 578 OFFCURVE",
"386 551 CURVE SMOOTH",
"405 529 OFFCURVE",
"429 535 OFFCURVE",
"441 551 CURVE SMOOTH",
"453 566 OFFCURVE",
"454 590 OFFCURVE",
"434 612 CURVE SMOOTH",
"420 627 OFFCURVE",
"366 692 OFFCURVE",
"249 692 CURVE SMOOTH"
);
}
);
width = 511;
}
);
unicode = 0160;
},
{
glyphname = Scedilla;
lastChange = "2014-09-27 15:23:54 +0100";
layers = (
{
layerId = "24C63A81-7FC6-4EE9-AF2B-C1140AFD6C4B";
name = Regular;
paths = (
{
closed = 1;
nodes = (
"232 423 OFFCURVE",
"129 450 OFFCURVE",
"142 518 CURVE SMOOTH",
"150 567 OFFCURVE",
"195 611 OFFCURVE",
"252 611 CURVE SMOOTH",
"338 611 OFFCURVE",
"362 578 OFFCURVE",
"386 551 CURVE SMOOTH",
"405 529 OFFCURVE",
"429 535 OFFCURVE",
"441 551 CURVE SMOOTH",
"453 566 OFFCURVE",
"454 590 OFFCURVE",
"434 612 CURVE SMOOTH",
"420 627 OFFCURVE",
"366 692 OFFCURVE",
"249 692 CURVE SMOOTH",
"170 692 OFFCURVE",
"74 616 OFFCURVE",
"60 535 CURVE SMOOTH",
"41 422 OFFCURVE",
"143 368 OFFCURVE",
"257 325 CURVE SMOOTH",
"363 285 OFFCURVE",
"396 239 OFFCURVE",
"388 181 CURVE SMOOTH",
"380 123 OFFCURVE",
"314 81 OFFCURVE",
"258 82 CURVE SMOOTH",
"143 84 OFFCURVE",
"137 130 OFFCURVE",
"134 144 CURVE SMOOTH",
"124 193 OFFCURVE",
"44 175 OFFCURVE",
"51 125 CURVE",
"68 46 OFFCURVE",
"151 9 OFFCURVE",
"223 1 CURVE",
"196 -49 LINE",
"194 -52 OFFCURVE",
"196 -56 OFFCURVE",
"200 -58 CURVE",
"292 -96 OFFCURVE",
"272 -133 OFFCURVE",
"193 -126 CURVE",
"189 -125 OFFCURVE",
"186 -128 OFFCURVE",
"186 -132 CURVE",
"184 -171 LINE",
"184 -175 OFFCURVE",
"187 -178 OFFCURVE",
"191 -178 CURVE",
"342 -166 OFFCURVE",
"392 -64 OFFCURVE",
"272 -38 CURVE",
"266 -37 OFFCURVE",
"264 -32 OFFCURVE",
"267 -27 CURVE",
"287 3 LINE",
"370 15 OFFCURVE",
"452 71 OFFCURVE",
"467 160 CURVE SMOOTH",
"476 213 OFFCURVE",
"483 328 OFFCURVE",
"285 403 CURVE SMOOTH"
);
}
);
width = 511;
}
);
unicode = 015E;
},
{
glyphname = T;
lastChange = "2014-09-27 15:23:54 +0100";
layers = (
{
layerId = "24C63A81-7FC6-4EE9-AF2B-C1140AFD6C4B";
name = Regular;
paths = (
{
closed = 1;
nodes = (
"572 680 OFFCURVE",
"555 697 OFFCURVE",
"533 697 CURVE SMOOTH",
"106 686 LINE SMOOTH",
"84 685 OFFCURVE",
"67 667 OFFCURVE",
"68 645 CURVE",
"68 623 OFFCURVE",
"86 606 OFFCURVE",
"108 606 CURVE SMOOTH",
"109 606 LINE",
"279 611 LINE",
"279 40 LINE SMOOTH",
"279 18 OFFCURVE",
"297 0 OFFCURVE",
"319 0 CURVE SMOOTH",
"341 0 OFFCURVE",
"359 18 OFFCURVE",
"359 40 CURVE SMOOTH",
"359 613 LINE",
"534 618 LINE SMOOTH",
"556 618 OFFCURVE",
"574 636 OFFCURVE",
"573 659 CURVE SMOOTH"
);
}
);
width = 587;
}
);
unicode = 0054;
},
{
glyphname = Tbar;
lastChange = "2014-11-05 23:44:52 +0100";
layers = (
{
layerId = "24C63A81-7FC6-4EE9-AF2B-C1140AFD6C4B";
name = Regular;
paths = (
{
closed = 1;
nodes = (
"106 686 LINE SMOOTH",
"84 685 OFFCURVE",
"67 667 OFFCURVE",
"68 645 CURVE",
"68 623 OFFCURVE",
"86 606 OFFCURVE",
"108 606 CURVE SMOOTH",
"109 606 LINE",
"279 611 LINE",
"279 40 LINE SMOOTH",
"279 18 OFFCURVE",
"297 0 OFFCURVE",
"319 0 CURVE SMOOTH",
"341 0 OFFCURVE",
"359 18 OFFCURVE",
"359 40 CURVE SMOOTH",
"359 613 LINE",
"534 618 LINE SMOOTH",
"556 618 OFFCURVE",
"574 636 OFFCURVE",
"573 659 CURVE SMOOTH",
"572 680 OFFCURVE",
"555 697 OFFCURVE",
"533 697 CURVE SMOOTH"
);
},
{
closed = 1;
nodes = (
"212 439 LINE SMOOTH",
"190 438 OFFCURVE",
"179 413 OFFCURVE",
"179 400 CURVE SMOOTH",
"179 392 OFFCURVE",
"187 375 OFFCURVE",
"206 373 CURVE",
"208 372 OFFCURVE",
"210 372 OFFCURVE",
"211 372 CURVE",
"432 380 LINE SMOOTH",
"454 381 OFFCURVE",
"464 398 OFFCURVE",
"464 408 CURVE SMOOTH",
"464 420 OFFCURVE",
"452 448 OFFCURVE",
"430 447 CURVE SMOOTH"
);
}
);
width = 587;
}
);
unicode = 0166;
},
{
glyphname = Tcaron;
lastChange = "2014-09-27 15:23:54 +0100";
layers = (
{
layerId = "24C63A81-7FC6-4EE9-AF2B-C1140AFD6C4B";
name = Regular;
paths = (
{
closed = 1;
nodes = (
"464 885 OFFCURVE",
"432 926 OFFCURVE",
"404 905 CURVE SMOOTH",
"289 813 OFFCURVE",
"335 808 OFFCURVE",
"229 901 CURVE",
"203 927 OFFCURVE",
"158 887 OFFCURVE",
"197 847 CURVE SMOOTH",
"304 734 OFFCURVE",
"311 726 OFFCURVE",
"431 849 CURVE SMOOTH"
);
},
{
closed = 1;
nodes = (
"572 680 OFFCURVE",
"555 697 OFFCURVE",
"533 697 CURVE SMOOTH",
"106 686 LINE SMOOTH",
"84 685 OFFCURVE",
"67 667 OFFCURVE",
"68 645 CURVE",
"68 623 OFFCURVE",
"86 606 OFFCURVE",
"108 606 CURVE SMOOTH",
"109 606 LINE",
"279 611 LINE",
"279 40 LINE SMOOTH",
"279 18 OFFCURVE",
"297 0 OFFCURVE",
"319 0 CURVE SMOOTH",
"341 0 OFFCURVE",
"359 18 OFFCURVE",
"359 40 CURVE SMOOTH",
"359 613 LINE",
"534 618 LINE SMOOTH",
"556 618 OFFCURVE",
"574 636 OFFCURVE",
"573 659 CURVE SMOOTH"
);
}
);
width = 587;
}
);
unicode = 0164;
},
{
glyphname = Tcedilla;
lastChange = "2014-09-27 15:23:54 +0100";
layers = (
{
layerId = "24C63A81-7FC6-4EE9-AF2B-C1140AFD6C4B";
name = Regular;
paths = (
{
closed = 1;
nodes = (
"572 680 OFFCURVE",
"555 697 OFFCURVE",
"533 697 CURVE SMOOTH",
"106 686 LINE SMOOTH",
"84 685 OFFCURVE",
"67 667 OFFCURVE",
"68 645 CURVE",
"68 623 OFFCURVE",
"86 606 OFFCURVE",
"108 606 CURVE SMOOTH",
"109 606 LINE",
"279 611 LINE",
"279 40 LINE",
"280 33 LINE",
"250 -22 LINE",
"248 -25 OFFCURVE",
"250 -29 OFFCURVE",
"254 -31 CURVE",
"346 -69 OFFCURVE",
"326 -106 OFFCURVE",
"247 -99 CURVE",
"243 -98 OFFCURVE",
"240 -101 OFFCURVE",
"240 -105 CURVE",
"238 -144 LINE",
"238 -148 OFFCURVE",
"241 -151 OFFCURVE",
"245 -151 CURVE",
"396 -139 OFFCURVE",
"446 -37 OFFCURVE",
"326 -11 CURVE",
"320 -10 OFFCURVE",
"318 -5 OFFCURVE",
"321 0 CURVE",
"342 1 OFFCURVE",
"359 19 OFFCURVE",
"359 40 CURVE SMOOTH",
"359 613 LINE",
"534 618 LINE SMOOTH",
"556 618 OFFCURVE",
"574 636 OFFCURVE",
"573 659 CURVE SMOOTH"
);
}
);
width = 587;
}
);
unicode = 0162;
},
{
glyphname = U;
lastChange = "2014-09-27 15:23:54 +0100";
layers = (
{
layerId = "24C63A81-7FC6-4EE9-AF2B-C1140AFD6C4B";
name = Regular;
paths = (
{
closed = 1;
nodes = (
"502 690 OFFCURVE",
"486 670 OFFCURVE",
"488 648 CURVE",
"488 647 OFFCURVE",
"498 550 OFFCURVE",
"492 436 CURVE SMOOTH",
"484 291 OFFCURVE",
"455 184 OFFCURVE",
"408 127 CURVE SMOOTH",
"385 99 OFFCURVE",
"357 84 OFFCURVE",
"324 81 CURVE SMOOTH",
"281 77 OFFCURVE",
"247 89 OFFCURVE",
"220 117 CURVE SMOOTH",
"194 145 OFFCURVE",
"174 189 OFFCURVE",
"161 248 CURVE SMOOTH",
"150 298 OFFCURVE",
"143 357 OFFCURVE",
"143 425 CURVE",
"142 543 OFFCURVE",
"157 645 OFFCURVE",
"157 646 CURVE",
"160 668 OFFCURVE",
"145 689 OFFCURVE",
"124 692 CURVE SMOOTH",
"102 695 OFFCURVE",
"81 680 OFFCURVE",
"78 659 CURVE",
"77 654 OFFCURVE",
"62 550 OFFCURVE",
"63 426 CURVE SMOOTH",
"64 253 OFFCURVE",
"98 131 OFFCURVE",
"162 63 CURVE SMOOTH",
"183 40 OFFCURVE",
"208 23 OFFCURVE",
"235 13 CURVE SMOOTH",
"258 4 OFFCURVE",
"282 0 OFFCURVE",
"309 0 CURVE SMOOTH",
"316 0 OFFCURVE",
"323 0 OFFCURVE",
"331 1 CURVE SMOOTH",
"386 6 OFFCURVE",
"433 31 OFFCURVE",
"470 76 CURVE SMOOTH",
"529 148 OFFCURVE",
"563 268 OFFCURVE",
"572 433 CURVE SMOOTH",
"578 553 OFFCURVE",
"568 652 OFFCURVE",
"568 656 CURVE",
"565 678 OFFCURVE",
"546 694 OFFCURVE",
"524 692 CURVE SMOOTH"
);
}
);
width = 628;
}
);
unicode = 0055;
},
{
glyphname = Uacute;
lastChange = "2014-09-27 15:23:54 +0100";
layers = (
{
layerId = "24C63A81-7FC6-4EE9-AF2B-C1140AFD6C4B";
name = Regular;
paths = (
{
closed = 1;
nodes = (
"421 789 LINE SMOOTH",
"454 816 OFFCURVE",
"443 835 OFFCURVE",
"432 844 CURVE SMOOTH",
"421 853 OFFCURVE",
"403 858 OFFCURVE",
"360 821 CURVE SMOOTH",
"333 798 OFFCURVE",
"311 782 OFFCURVE",
"301 762 CURVE SMOOTH",
"295 749 OFFCURVE",
"297 735 OFFCURVE",
"302 728 CURVE",
"308 718 OFFCURVE",
"327 709 OFFCURVE",
"346 725 CURVE SMOOTH"
);
},
{
closed = 1;
nodes = (
"502 690 OFFCURVE",
"486 670 OFFCURVE",
"488 648 CURVE",
"488 647 OFFCURVE",
"498 550 OFFCURVE",
"492 436 CURVE SMOOTH",
"484 291 OFFCURVE",
"455 184 OFFCURVE",
"408 127 CURVE SMOOTH",
"385 99 OFFCURVE",
"357 84 OFFCURVE",
"324 81 CURVE SMOOTH",
"281 77 OFFCURVE",
"247 89 OFFCURVE",
"220 117 CURVE SMOOTH",
"194 145 OFFCURVE",
"174 189 OFFCURVE",
"161 248 CURVE SMOOTH",
"150 298 OFFCURVE",
"143 357 OFFCURVE",
"143 425 CURVE",
"142 543 OFFCURVE",
"157 645 OFFCURVE",
"157 646 CURVE",
"160 668 OFFCURVE",
"145 689 OFFCURVE",
"124 692 CURVE SMOOTH",
"102 695 OFFCURVE",
"81 680 OFFCURVE",
"78 659 CURVE",
"77 654 OFFCURVE",
"62 550 OFFCURVE",
"63 426 CURVE SMOOTH",
"64 253 OFFCURVE",
"98 131 OFFCURVE",
"162 63 CURVE SMOOTH",
"183 40 OFFCURVE",
"208 23 OFFCURVE",
"235 13 CURVE SMOOTH",
"258 4 OFFCURVE",
"282 0 OFFCURVE",
"309 0 CURVE SMOOTH",
"316 0 OFFCURVE",
"323 0 OFFCURVE",
"331 1 CURVE SMOOTH",
"386 6 OFFCURVE",
"433 31 OFFCURVE",
"470 76 CURVE SMOOTH",
"529 148 OFFCURVE",
"563 268 OFFCURVE",
"572 433 CURVE SMOOTH",
"578 553 OFFCURVE",
"568 652 OFFCURVE",
"568 656 CURVE",
"565 678 OFFCURVE",
"546 694 OFFCURVE",
"524 692 CURVE SMOOTH"
);
}
);
width = 628;
}
);
unicode = 00DA;
},
{
glyphname = Ucircumflex;
lastChange = "2014-09-27 15:23:54 +0100";
layers = (
{
layerId = "24C63A81-7FC6-4EE9-AF2B-C1140AFD6C4B";
name = Regular;
paths = (
{
closed = 1;
nodes = (
"327 877 OFFCURVE",
"320 885 OFFCURVE",
"199 763 CURVE SMOOTH",
"165 728 OFFCURVE",
"197 686 OFFCURVE",
"225 707 CURVE SMOOTH",
"341 798 OFFCURVE",
"295 803 OFFCURVE",
"400 709 CURVE",
"426 683 OFFCURVE",
"471 722 OFFCURVE",
"433 763 CURVE SMOOTH"
);
},
{
closed = 1;
nodes = (
"502 690 OFFCURVE",
"486 670 OFFCURVE",
"488 648 CURVE",
"488 647 OFFCURVE",
"498 550 OFFCURVE",
"492 436 CURVE SMOOTH",
"484 291 OFFCURVE",
"455 184 OFFCURVE",
"408 127 CURVE SMOOTH",
"385 99 OFFCURVE",
"357 84 OFFCURVE",
"324 81 CURVE SMOOTH",
"281 77 OFFCURVE",
"247 89 OFFCURVE",
"220 117 CURVE SMOOTH",
"194 145 OFFCURVE",
"174 189 OFFCURVE",
"161 248 CURVE SMOOTH",
"150 298 OFFCURVE",
"143 357 OFFCURVE",
"143 425 CURVE",
"142 543 OFFCURVE",
"157 645 OFFCURVE",
"157 646 CURVE",
"160 668 OFFCURVE",
"145 689 OFFCURVE",
"124 692 CURVE SMOOTH",
"102 695 OFFCURVE",
"81 680 OFFCURVE",
"78 659 CURVE",
"77 654 OFFCURVE",
"62 550 OFFCURVE",
"63 426 CURVE SMOOTH",
"64 253 OFFCURVE",
"98 131 OFFCURVE",
"162 63 CURVE SMOOTH",
"183 40 OFFCURVE",
"208 23 OFFCURVE",
"235 13 CURVE SMOOTH",
"258 4 OFFCURVE",
"282 0 OFFCURVE",
"309 0 CURVE SMOOTH",
"316 0 OFFCURVE",
"323 0 OFFCURVE",
"331 1 CURVE SMOOTH",
"386 6 OFFCURVE",
"433 31 OFFCURVE",
"470 76 CURVE SMOOTH",
"529 148 OFFCURVE",
"563 268 OFFCURVE",
"572 433 CURVE SMOOTH",
"578 553 OFFCURVE",
"568 652 OFFCURVE",
"568 656 CURVE",
"565 678 OFFCURVE",
"546 694 OFFCURVE",
"524 692 CURVE SMOOTH"
);
}
);
width = 628;
}
);
unicode = 00DB;
},
{
glyphname = Udieresis;
lastChange = "2014-09-27 15:23:54 +0100";
layers = (
{
layerId = "24C63A81-7FC6-4EE9-AF2B-C1140AFD6C4B";
name = Regular;
paths = (
{
closed = 1;
nodes = (
"193 830 OFFCURVE",
"172 803 OFFCURVE",
"165 772 CURVE SMOOTH",
"158 742 OFFCURVE",
"170 715 OFFCURVE",
"201 721 CURVE SMOOTH",
"232 727 OFFCURVE",
"251 743 OFFCURVE",
"260 775 CURVE SMOOTH",
"269 806 OFFCURVE",
"256 824 OFFCURVE",
"224 827 CURVE SMOOTH"
);
},
{
closed = 1;
nodes = (
"389 830 OFFCURVE",
"363 806 OFFCURVE",
"356 775 CURVE SMOOTH",
"349 745 OFFCURVE",
"364 734 OFFCURVE",
"392 724 CURVE SMOOTH",
"423 713 OFFCURVE",
"447 743 OFFCURVE",
"456 775 CURVE SMOOTH",
"465 806 OFFCURVE",
"452 824 OFFCURVE",
"420 827 CURVE SMOOTH"
);
},
{
closed = 1;
nodes = (
"502 690 OFFCURVE",
"486 670 OFFCURVE",
"488 648 CURVE",
"488 647 OFFCURVE",
"498 550 OFFCURVE",
"492 436 CURVE SMOOTH",
"484 291 OFFCURVE",
"455 184 OFFCURVE",
"408 127 CURVE SMOOTH",
"385 99 OFFCURVE",
"357 84 OFFCURVE",
"324 81 CURVE SMOOTH",
"281 77 OFFCURVE",
"247 89 OFFCURVE",
"220 117 CURVE SMOOTH",
"194 145 OFFCURVE",
"174 189 OFFCURVE",
"161 248 CURVE SMOOTH",
"150 298 OFFCURVE",
"143 357 OFFCURVE",
"143 425 CURVE",
"142 543 OFFCURVE",
"157 645 OFFCURVE",
"157 646 CURVE",
"160 668 OFFCURVE",
"145 689 OFFCURVE",
"124 692 CURVE SMOOTH",
"102 695 OFFCURVE",
"81 680 OFFCURVE",
"78 659 CURVE",
"77 654 OFFCURVE",
"62 550 OFFCURVE",
"63 426 CURVE SMOOTH",
"64 253 OFFCURVE",
"98 131 OFFCURVE",
"162 63 CURVE SMOOTH",
"183 40 OFFCURVE",
"208 23 OFFCURVE",
"235 13 CURVE SMOOTH",
"258 4 OFFCURVE",
"282 0 OFFCURVE",
"309 0 CURVE SMOOTH",
"316 0 OFFCURVE",
"323 0 OFFCURVE",
"331 1 CURVE SMOOTH",
"386 6 OFFCURVE",
"433 31 OFFCURVE",
"470 76 CURVE SMOOTH",
"529 148 OFFCURVE",
"563 268 OFFCURVE",
"572 433 CURVE SMOOTH",
"578 553 OFFCURVE",
"568 652 OFFCURVE",
"568 656 CURVE",
"565 678 OFFCURVE",
"546 694 OFFCURVE",
"524 692 CURVE SMOOTH"
);
}
);
width = 628;
}
);
unicode = 00DC;
},
{
glyphname = Ugrave;
lastChange = "2014-09-27 15:23:54 +0100";
layers = (
{
layerId = "24C63A81-7FC6-4EE9-AF2B-C1140AFD6C4B";
name = Regular;
paths = (
{
closed = 1;
nodes = (
"244 858 OFFCURVE",
"179 803 OFFCURVE",
"261 757 CURVE SMOOTH",
"300 735 OFFCURVE",
"316 719 OFFCURVE",
"338 714 CURVE SMOOTH",
"371 707 OFFCURVE",
"374 744 OFFCURVE",
"355 763 CURVE SMOOTH",
"302 814 OFFCURVE",
"332 784 OFFCURVE",
"276 831 CURVE SMOOTH"
);
},
{
closed = 1;
nodes = (
"502 690 OFFCURVE",
"486 670 OFFCURVE",
"488 648 CURVE",
"488 647 OFFCURVE",
"498 550 OFFCURVE",
"492 436 CURVE SMOOTH",
"484 291 OFFCURVE",
"455 184 OFFCURVE",
"408 127 CURVE SMOOTH",
"385 99 OFFCURVE",
"357 84 OFFCURVE",
"324 81 CURVE SMOOTH",
"281 77 OFFCURVE",
"247 89 OFFCURVE",
"220 117 CURVE SMOOTH",
"194 145 OFFCURVE",
"174 189 OFFCURVE",
"161 248 CURVE SMOOTH",
"150 298 OFFCURVE",
"143 357 OFFCURVE",
"143 425 CURVE",
"142 543 OFFCURVE",
"157 645 OFFCURVE",
"157 646 CURVE",
"160 668 OFFCURVE",
"145 689 OFFCURVE",
"124 692 CURVE SMOOTH",
"102 695 OFFCURVE",
"81 680 OFFCURVE",
"78 659 CURVE",
"77 654 OFFCURVE",
"62 550 OFFCURVE",
"63 426 CURVE SMOOTH",
"64 253 OFFCURVE",
"98 131 OFFCURVE",
"162 63 CURVE SMOOTH",
"183 40 OFFCURVE",
"208 23 OFFCURVE",
"235 13 CURVE SMOOTH",
"258 4 OFFCURVE",
"282 0 OFFCURVE",
"309 0 CURVE SMOOTH",
"316 0 OFFCURVE",
"323 0 OFFCURVE",
"331 1 CURVE SMOOTH",
"386 6 OFFCURVE",
"433 31 OFFCURVE",
"470 76 CURVE SMOOTH",
"529 148 OFFCURVE",
"563 268 OFFCURVE",
"572 433 CURVE SMOOTH",
"578 553 OFFCURVE",
"568 652 OFFCURVE",
"568 656 CURVE",
"565 678 OFFCURVE",
"546 694 OFFCURVE",
"524 692 CURVE SMOOTH"
);
}
);
width = 628;
}
);
unicode = 00D9;
},
{
glyphname = Uhungarumlaut;
lastChange = "2014-09-27 15:23:54 +0100";
layers = (
{
layerId = "24C63A81-7FC6-4EE9-AF2B-C1140AFD6C4B";
name = Regular;
paths = (
{
closed = 1;
nodes = (
"360 828 OFFCURVE",
"285 850 OFFCURVE",
"259 811 CURVE SMOOTH",
"234 774 OFFCURVE",
"221 756 OFFCURVE",
"216 734 CURVE SMOOTH",
"209 701 OFFCURVE",
"246 698 OFFCURVE",
"265 717 CURVE SMOOTH",
"316 770 OFFCURVE",
"286 740 OFFCURVE",
"333 796 CURVE SMOOTH"
);
},
{
closed = 1;
nodes = (
"490 828 OFFCURVE",
"415 850 OFFCURVE",
"389 811 CURVE SMOOTH",
"364 774 OFFCURVE",
"351 756 OFFCURVE",
"346 734 CURVE SMOOTH",
"339 701 OFFCURVE",
"376 698 OFFCURVE",
"395 717 CURVE SMOOTH",
"446 770 OFFCURVE",
"416 740 OFFCURVE",
"463 796 CURVE SMOOTH"
);
},
{
closed = 1;
nodes = (
"502 690 OFFCURVE",
"486 670 OFFCURVE",
"488 648 CURVE",
"488 647 OFFCURVE",
"498 550 OFFCURVE",
"492 436 CURVE SMOOTH",
"484 291 OFFCURVE",
"455 184 OFFCURVE",
"408 127 CURVE SMOOTH",
"385 99 OFFCURVE",
"357 84 OFFCURVE",
"324 81 CURVE SMOOTH",
"281 77 OFFCURVE",
"247 89 OFFCURVE",
"220 117 CURVE SMOOTH",
"194 145 OFFCURVE",
"174 189 OFFCURVE",
"161 248 CURVE SMOOTH",
"150 298 OFFCURVE",
"143 357 OFFCURVE",
"143 425 CURVE",
"142 543 OFFCURVE",
"157 645 OFFCURVE",
"157 646 CURVE",
"160 668 OFFCURVE",
"145 689 OFFCURVE",
"124 692 CURVE SMOOTH",
"102 695 OFFCURVE",
"81 680 OFFCURVE",
"78 659 CURVE",
"77 654 OFFCURVE",
"62 550 OFFCURVE",
"63 426 CURVE SMOOTH",
"64 253 OFFCURVE",
"98 131 OFFCURVE",
"162 63 CURVE SMOOTH",
"183 40 OFFCURVE",
"208 23 OFFCURVE",
"235 13 CURVE SMOOTH",
"258 4 OFFCURVE",
"282 0 OFFCURVE",
"309 0 CURVE SMOOTH",
"316 0 OFFCURVE",
"323 0 OFFCURVE",
"331 1 CURVE SMOOTH",
"386 6 OFFCURVE",
"433 31 OFFCURVE",
"470 76 CURVE SMOOTH",
"529 148 OFFCURVE",
"563 268 OFFCURVE",
"572 433 CURVE SMOOTH",
"578 553 OFFCURVE",
"568 652 OFFCURVE",
"568 656 CURVE",
"565 678 OFFCURVE",
"546 694 OFFCURVE",
"524 692 CURVE SMOOTH"
);
}
);
width = 628;
}
);
unicode = 0170;
},
{
glyphname = Umacron;
lastChange = "2014-09-27 15:23:54 +0100";
layers = (
{
layerId = "24C63A81-7FC6-4EE9-AF2B-C1140AFD6C4B";
name = Regular;
paths = (
{
closed = 1;
nodes = (
"214 815 LINE SMOOTH",
"192 814 OFFCURVE",
"181 798 OFFCURVE",
"181 785 CURVE SMOOTH",
"181 777 OFFCURVE",
"189 760 OFFCURVE",
"208 758 CURVE",
"210 757 OFFCURVE",
"212 757 OFFCURVE",
"213 757 CURVE",
"434 765 LINE SMOOTH",
"456 766 OFFCURVE",
"466 783 OFFCURVE",
"466 793 CURVE SMOOTH",
"466 805 OFFCURVE",
"454 824 OFFCURVE",
"432 823 CURVE SMOOTH"
);
},
{
closed = 1;
nodes = (
"502 690 OFFCURVE",
"486 670 OFFCURVE",
"488 648 CURVE",
"488 647 OFFCURVE",
"498 550 OFFCURVE",
"492 436 CURVE SMOOTH",
"484 291 OFFCURVE",
"455 184 OFFCURVE",
"408 127 CURVE SMOOTH",
"385 99 OFFCURVE",
"357 84 OFFCURVE",
"324 81 CURVE SMOOTH",
"281 77 OFFCURVE",
"247 89 OFFCURVE",
"220 117 CURVE SMOOTH",
"194 145 OFFCURVE",
"174 189 OFFCURVE",
"161 248 CURVE SMOOTH",
"150 298 OFFCURVE",
"143 357 OFFCURVE",
"143 425 CURVE",
"142 543 OFFCURVE",
"157 645 OFFCURVE",
"157 646 CURVE",
"160 668 OFFCURVE",
"145 689 OFFCURVE",
"124 692 CURVE SMOOTH",
"102 695 OFFCURVE",
"81 680 OFFCURVE",
"78 659 CURVE",
"77 654 OFFCURVE",
"62 550 OFFCURVE",
"63 426 CURVE SMOOTH",
"64 253 OFFCURVE",
"98 131 OFFCURVE",
"162 63 CURVE SMOOTH",
"183 40 OFFCURVE",
"208 23 OFFCURVE",
"235 13 CURVE SMOOTH",
"258 4 OFFCURVE",
"282 0 OFFCURVE",
"309 0 CURVE SMOOTH",
"316 0 OFFCURVE",
"323 0 OFFCURVE",
"331 1 CURVE SMOOTH",
"386 6 OFFCURVE",
"433 31 OFFCURVE",
"470 76 CURVE SMOOTH",
"529 148 OFFCURVE",
"563 268 OFFCURVE",
"572 433 CURVE SMOOTH",
"578 553 OFFCURVE",
"568 652 OFFCURVE",
"568 656 CURVE",
"565 678 OFFCURVE",
"546 694 OFFCURVE",
"524 692 CURVE SMOOTH"
);
}
);
width = 628;
}
);
unicode = 016A;
},
{
glyphname = Uogonek;
lastChange = "2014-09-27 15:23:54 +0100";
layers = (
{
layerId = "24C63A81-7FC6-4EE9-AF2B-C1140AFD6C4B";
name = Regular;
paths = (
{
closed = 1;
nodes = (
"565 678 OFFCURVE",
"546 694 OFFCURVE",
"524 692 CURVE SMOOTH",
"502 690 OFFCURVE",
"486 670 OFFCURVE",
"488 648 CURVE",
"488 647 OFFCURVE",
"498 550 OFFCURVE",
"492 436 CURVE SMOOTH",
"484 291 OFFCURVE",
"455 184 OFFCURVE",
"408 127 CURVE SMOOTH",
"385 99 OFFCURVE",
"357 84 OFFCURVE",
"324 81 CURVE SMOOTH",
"281 77 OFFCURVE",
"247 89 OFFCURVE",
"220 117 CURVE SMOOTH",
"194 145 OFFCURVE",
"174 189 OFFCURVE",
"161 248 CURVE SMOOTH",
"150 298 OFFCURVE",
"143 357 OFFCURVE",
"143 425 CURVE",
"142 543 OFFCURVE",
"157 645 OFFCURVE",
"157 646 CURVE",
"160 668 OFFCURVE",
"145 689 OFFCURVE",
"124 692 CURVE SMOOTH",
"102 695 OFFCURVE",
"81 680 OFFCURVE",
"78 659 CURVE",
"77 654 OFFCURVE",
"62 550 OFFCURVE",
"63 426 CURVE SMOOTH",
"64 253 OFFCURVE",
"98 131 OFFCURVE",
"162 63 CURVE SMOOTH",
"183 40 OFFCURVE",
"208 23 OFFCURVE",
"235 13 CURVE SMOOTH",
"258 4 OFFCURVE",
"282 0 OFFCURVE",
"309 0 CURVE SMOOTH",
"315 0 LINE",
"237 -92 OFFCURVE",
"262 -192 OFFCURVE",
"403 -154 CURVE SMOOTH",
"440 -144 OFFCURVE",
"437 -74 OFFCURVE",
"402 -87 CURVE SMOOTH",
"327 -115 OFFCURVE",
"329 -81 OFFCURVE",
"390 10 CURVE",
"391 12 OFFCURVE",
"391 14 OFFCURVE",
"390 15 CURVE",
"420 28 OFFCURVE",
"447 48 OFFCURVE",
"470 76 CURVE SMOOTH",
"529 148 OFFCURVE",
"563 268 OFFCURVE",
"572 433 CURVE SMOOTH",
"578 553 OFFCURVE",
"568 652 OFFCURVE",
"568 656 CURVE"
);
}
);
width = 628;
}
);
unicode = 0172;
},
{
glyphname = Uring;
lastChange = "2014-09-27 15:23:54 +0100";
layers = (
{
layerId = "24C63A81-7FC6-4EE9-AF2B-C1140AFD6C4B";
name = Regular;
paths = (
{
closed = 1;
nodes = (
"272 874 OFFCURVE",
"227 830 OFFCURVE",
"228 780 CURVE SMOOTH",
"229 730 OFFCURVE",
"268 690 OFFCURVE",
"318 691 CURVE SMOOTH",
"368 692 OFFCURVE",
"411 735 OFFCURVE",
"412 784 CURVE SMOOTH",
"413 834 OFFCURVE",
"372 876 OFFCURVE",
"322 875 CURVE SMOOTH"
);
},
{
closed = 1;
nodes = (
"337 811 OFFCURVE",
"348 798 OFFCURVE",
"348 784 CURVE SMOOTH",
"348 768 OFFCURVE",
"339 758 OFFCURVE",
"321 757 CURVE SMOOTH",
"307 756 OFFCURVE",
"294 771 OFFCURVE",
"294 783 CURVE SMOOTH",
"294 801 OFFCURVE",
"307 811 OFFCURVE",
"321 811 CURVE SMOOTH"
);
},
{
closed = 1;
nodes = (
"502 690 OFFCURVE",
"486 670 OFFCURVE",
"488 648 CURVE",
"488 647 OFFCURVE",
"498 550 OFFCURVE",
"492 436 CURVE SMOOTH",
"484 291 OFFCURVE",
"455 184 OFFCURVE",
"408 127 CURVE SMOOTH",
"385 99 OFFCURVE",
"357 84 OFFCURVE",
"324 81 CURVE SMOOTH",
"281 77 OFFCURVE",
"247 89 OFFCURVE",
"220 117 CURVE SMOOTH",
"194 145 OFFCURVE",
"174 189 OFFCURVE",
"161 248 CURVE SMOOTH",
"150 298 OFFCURVE",
"143 357 OFFCURVE",
"143 425 CURVE",
"142 543 OFFCURVE",
"157 645 OFFCURVE",
"157 646 CURVE",
"160 668 OFFCURVE",
"145 689 OFFCURVE",
"124 692 CURVE SMOOTH",
"102 695 OFFCURVE",
"81 680 OFFCURVE",
"78 659 CURVE",
"77 654 OFFCURVE",
"62 550 OFFCURVE",
"63 426 CURVE SMOOTH",
"64 253 OFFCURVE",
"98 131 OFFCURVE",
"162 63 CURVE SMOOTH",
"183 40 OFFCURVE",
"208 23 OFFCURVE",
"235 13 CURVE SMOOTH",
"258 4 OFFCURVE",
"282 0 OFFCURVE",
"309 0 CURVE SMOOTH",
"316 0 OFFCURVE",
"323 0 OFFCURVE",
"331 1 CURVE SMOOTH",
"386 6 OFFCURVE",
"433 31 OFFCURVE",
"470 76 CURVE SMOOTH",
"529 148 OFFCURVE",
"563 268 OFFCURVE",
"572 433 CURVE SMOOTH",
"578 553 OFFCURVE",
"568 652 OFFCURVE",
"568 656 CURVE",
"565 678 OFFCURVE",
"546 694 OFFCURVE",
"524 692 CURVE SMOOTH"
);
}
);
width = 628;
}
);
unicode = 016E;
},
{
glyphname = V;
lastChange = "2014-09-27 15:23:54 +0100";
layers = (
{
layerId = "24C63A81-7FC6-4EE9-AF2B-C1140AFD6C4B";
name = Regular;
paths = (
{
closed = 1;
nodes = (
"43 693 OFFCURVE",
"31 671 OFFCURVE",
"38 650 CURVE",
"38 648 OFFCURVE",
"95 482 OFFCURVE",
"146 331 CURVE SMOOTH",
"177 242 OFFCURVE",
"203 171 OFFCURVE",
"224 120 CURVE SMOOTH",
"237 88 OFFCURVE",
"248 64 OFFCURVE",
"258 47 CURVE SMOOTH",
"264 36 OFFCURVE",
"269 27 OFFCURVE",
"274 21 CURVE SMOOTH",
"286 7 OFFCURVE",
"300 0 OFFCURVE",
"315 0 CURVE SMOOTH",
"332 0 OFFCURVE",
"352 10 OFFCURVE",
"360 38 CURVE SMOOTH",
"383 125 OFFCURVE",
"581 642 OFFCURVE",
"583 647 CURVE SMOOTH",
"591 668 OFFCURVE",
"581 691 OFFCURVE",
"561 699 CURVE SMOOTH",
"540 707 OFFCURVE",
"517 697 OFFCURVE",
"509 676 CURVE SMOOTH",
"502 659 OFFCURVE",
"364 297 OFFCURVE",
"306 131 CURVE",
"300 144 OFFCURVE",
"294 160 OFFCURVE",
"286 179 CURVE SMOOTH",
"266 231 OFFCURVE",
"242 299 OFFCURVE",
"214 382 CURVE SMOOTH",
"166 523 OFFCURVE",
"115 672 OFFCURVE",
"114 673 CURVE",
"108 694 OFFCURVE",
"86 706 OFFCURVE",
"64 700 CURVE"
);
}
);
width = 589;
}
);
unicode = 0056;
},
{
glyphname = W;
lastChange = "2014-10-23 21:33:20 +0100";
layers = (
{
layerId = "24C63A81-7FC6-4EE9-AF2B-C1140AFD6C4B";
name = Regular;
paths = (
{
closed = 1;
nodes = (
"730 706 OFFCURVE",
"708 694 OFFCURVE",
"702 672 CURVE",
"702 671 OFFCURVE",
"659 517 OFFCURVE",
"621 374 CURVE SMOOTH",
"604 311 OFFCURVE",
"590 261 OFFCURVE",
"580 220 CURVE",
"563 302 OFFCURVE",
"543 400 OFFCURVE",
"524 481 CURVE SMOOTH",
"512 531 OFFCURVE",
"501 568 OFFCURVE",
"492 596 CURVE SMOOTH",
"477 641 OFFCURVE",
"464 662 OFFCURVE",
"445 671 CURVE SMOOTH",
"432 677 OFFCURVE",
"417 677 OFFCURVE",
"404 671 CURVE SMOOTH",
"384 661 OFFCURVE",
"370 637 OFFCURVE",
"352 584 CURVE SMOOTH",
"340 551 OFFCURVE",
"327 505 OFFCURVE",
"313 447 CURVE SMOOTH",
"290 358 OFFCURVE",
"268 256 OFFCURVE",
"252 177 CURVE",
"237 229 OFFCURVE",
"220 296 OFFCURVE",
"200 378 CURVE SMOOTH",
"167 519 OFFCURVE",
"133 668 OFFCURVE",
"133 669 CURVE",
"128 691 OFFCURVE",
"107 705 OFFCURVE",
"85 700 CURVE SMOOTH",
"64 695 OFFCURVE",
"50 674 OFFCURVE",
"55 652 CURVE",
"55 651 OFFCURVE",
"92 484 OFFCURVE",
"129 334 CURVE SMOOTH",
"150 245 OFFCURVE",
"169 175 OFFCURVE",
"184 124 CURVE SMOOTH",
"193 92 OFFCURVE",
"201 69 OFFCURVE",
"207 52 CURVE",
"212 41 OFFCURVE",
"215 33 OFFCURVE",
"219 26 CURVE",
"232 5 OFFCURVE",
"248 0 OFFCURVE",
"260 0 CURVE SMOOTH",
"275 0 OFFCURVE",
"288 7 OFFCURVE",
"296 19 CURVE",
"299 24 OFFCURVE",
"302 30 OFFCURVE",
"304 37 CURVE",
"307 53 OFFCURVE",
"314 84 OFFCURVE",
"322 122 CURVE SMOOTH",
"338 198 OFFCURVE",
"362 312 OFFCURVE",
"386 411 CURVE SMOOTH",
"402 475 OFFCURVE",
"414 518 OFFCURVE",
"423 547 CURVE",
"430 524 OFFCURVE",
"439 491 OFFCURVE",
"450 446 CURVE SMOOTH",
"469 363 OFFCURVE",
"489 264 OFFCURVE",
"505 185 CURVE SMOOTH",
"514 142 OFFCURVE",
"521 105 OFFCURVE",
"527 78 CURVE",
"531 63 OFFCURVE",
"533 52 OFFCURVE",
"535 45 CURVE",
"536 40 OFFCURVE",
"538 36 OFFCURVE",
"539 33 CURVE SMOOTH",
"547 11 OFFCURVE",
"566 3 OFFCURVE",
"580 4 CURVE SMOOTH",
"597 5 OFFCURVE",
"616 17 OFFCURVE",
"619 42 CURVE SMOOTH",
"622 75 OFFCURVE",
"721 439 OFFCURVE",
"779 651 CURVE SMOOTH",
"785 672 OFFCURVE",
"772 695 OFFCURVE",
"751 700 CURVE"
);
}
);
width = 817.048;
}
);
unicode = 0057;
},
{
glyphname = Wacute;
lastChange = "2014-09-27 15:23:54 +0100";
layers = (
{
layerId = "24C63A81-7FC6-4EE9-AF2B-C1140AFD6C4B";
name = Regular;
paths = (
{
closed = 1;
nodes = (
"488 827 LINE SMOOTH",
"521 854 OFFCURVE",
"510 873 OFFCURVE",
"499 882 CURVE SMOOTH",
"488 891 OFFCURVE",
"470 896 OFFCURVE",
"427 859 CURVE SMOOTH",
"400 836 OFFCURVE",
"378 820 OFFCURVE",
"368 800 CURVE SMOOTH",
"362 787 OFFCURVE",
"364 773 OFFCURVE",
"369 766 CURVE",
"375 756 OFFCURVE",
"394 747 OFFCURVE",
"413 763 CURVE SMOOTH"
);
},
{
closed = 1;
nodes = (
"733 706 OFFCURVE",
"711 694 OFFCURVE",
"705 672 CURVE",
"705 671 OFFCURVE",
"662 517 OFFCURVE",
"624 374 CURVE SMOOTH",
"607 311 OFFCURVE",
"593 261 OFFCURVE",
"583 220 CURVE",
"566 302 OFFCURVE",
"546 400 OFFCURVE",
"527 481 CURVE SMOOTH",
"515 531 OFFCURVE",
"504 568 OFFCURVE",
"495 596 CURVE SMOOTH",
"480 641 OFFCURVE",
"467 662 OFFCURVE",
"448 671 CURVE SMOOTH",
"435 677 OFFCURVE",
"420 677 OFFCURVE",
"407 671 CURVE SMOOTH",
"387 661 OFFCURVE",
"373 637 OFFCURVE",
"355 584 CURVE SMOOTH",
"343 551 OFFCURVE",
"330 505 OFFCURVE",
"316 447 CURVE SMOOTH",
"293 358 OFFCURVE",
"271 256 OFFCURVE",
"255 177 CURVE",
"240 229 OFFCURVE",
"223 296 OFFCURVE",
"203 378 CURVE SMOOTH",
"170 519 OFFCURVE",
"136 668 OFFCURVE",
"136 669 CURVE",
"131 691 OFFCURVE",
"110 705 OFFCURVE",
"88 700 CURVE SMOOTH",
"67 695 OFFCURVE",
"53 674 OFFCURVE",
"58 652 CURVE",
"58 651 OFFCURVE",
"95 484 OFFCURVE",
"132 334 CURVE SMOOTH",
"153 245 OFFCURVE",
"172 175 OFFCURVE",
"187 124 CURVE SMOOTH",
"196 92 OFFCURVE",
"204 69 OFFCURVE",
"210 52 CURVE",
"215 41 OFFCURVE",
"218 33 OFFCURVE",
"222 26 CURVE",
"235 5 OFFCURVE",
"251 0 OFFCURVE",
"263 0 CURVE SMOOTH",
"278 0 OFFCURVE",
"291 7 OFFCURVE",
"299 19 CURVE",
"302 24 OFFCURVE",
"305 30 OFFCURVE",
"307 37 CURVE",
"310 53 OFFCURVE",
"317 84 OFFCURVE",
"325 122 CURVE SMOOTH",
"341 198 OFFCURVE",
"365 312 OFFCURVE",
"389 411 CURVE SMOOTH",
"405 475 OFFCURVE",
"417 518 OFFCURVE",
"426 547 CURVE",
"433 524 OFFCURVE",
"442 491 OFFCURVE",
"453 446 CURVE SMOOTH",
"472 363 OFFCURVE",
"492 264 OFFCURVE",
"508 185 CURVE SMOOTH",
"517 142 OFFCURVE",
"524 105 OFFCURVE",
"530 78 CURVE",
"534 63 OFFCURVE",
"536 52 OFFCURVE",
"538 45 CURVE",
"539 40 OFFCURVE",
"541 36 OFFCURVE",
"542 33 CURVE SMOOTH",
"550 11 OFFCURVE",
"569 3 OFFCURVE",
"583 4 CURVE SMOOTH",
"600 5 OFFCURVE",
"619 17 OFFCURVE",
"622 42 CURVE SMOOTH",
"625 75 OFFCURVE",
"724 439 OFFCURVE",
"782 651 CURVE SMOOTH",
"788 672 OFFCURVE",
"775 695 OFFCURVE",
"754 700 CURVE"
);
}
);
width = 820;
}
);
unicode = 1E82;
},
{
glyphname = Wcircumflex;
lastChange = "2014-09-27 15:23:54 +0100";
layers = (
{
layerId = "24C63A81-7FC6-4EE9-AF2B-C1140AFD6C4B";
name = Regular;
paths = (
{
closed = 1;
nodes = (
"434 872 OFFCURVE",
"427 880 OFFCURVE",
"306 758 CURVE SMOOTH",
"272 723 OFFCURVE",
"304 681 OFFCURVE",
"332 702 CURVE SMOOTH",
"448 793 OFFCURVE",
"402 798 OFFCURVE",
"507 704 CURVE",
"533 678 OFFCURVE",
"578 717 OFFCURVE",
"540 758 CURVE SMOOTH"
);
},
{
closed = 1;
nodes = (
"733 706 OFFCURVE",
"711 694 OFFCURVE",
"705 672 CURVE",
"705 671 OFFCURVE",
"662 517 OFFCURVE",
"624 374 CURVE SMOOTH",
"607 311 OFFCURVE",
"593 261 OFFCURVE",
"583 220 CURVE",
"566 302 OFFCURVE",
"546 400 OFFCURVE",
"527 481 CURVE SMOOTH",
"515 531 OFFCURVE",
"504 568 OFFCURVE",
"495 596 CURVE SMOOTH",
"480 641 OFFCURVE",
"467 662 OFFCURVE",
"448 671 CURVE SMOOTH",
"435 677 OFFCURVE",
"420 677 OFFCURVE",
"407 671 CURVE SMOOTH",
"387 661 OFFCURVE",
"373 637 OFFCURVE",
"355 584 CURVE SMOOTH",
"343 551 OFFCURVE",
"330 505 OFFCURVE",
"316 447 CURVE SMOOTH",
"293 358 OFFCURVE",
"271 256 OFFCURVE",
"255 177 CURVE",
"240 229 OFFCURVE",
"223 296 OFFCURVE",
"203 378 CURVE SMOOTH",
"170 519 OFFCURVE",
"136 668 OFFCURVE",
"136 669 CURVE",
"131 691 OFFCURVE",
"110 705 OFFCURVE",
"88 700 CURVE SMOOTH",
"67 695 OFFCURVE",
"53 674 OFFCURVE",
"58 652 CURVE",
"58 651 OFFCURVE",
"95 484 OFFCURVE",
"132 334 CURVE SMOOTH",
"153 245 OFFCURVE",
"172 175 OFFCURVE",
"187 124 CURVE SMOOTH",
"196 92 OFFCURVE",
"204 69 OFFCURVE",
"210 52 CURVE",
"215 41 OFFCURVE",
"218 33 OFFCURVE",
"222 26 CURVE",
"235 5 OFFCURVE",
"251 0 OFFCURVE",
"263 0 CURVE SMOOTH",
"278 0 OFFCURVE",
"291 7 OFFCURVE",
"299 19 CURVE",
"302 24 OFFCURVE",
"305 30 OFFCURVE",
"307 37 CURVE",
"310 53 OFFCURVE",
"317 84 OFFCURVE",
"325 122 CURVE SMOOTH",
"341 198 OFFCURVE",
"365 312 OFFCURVE",
"389 411 CURVE SMOOTH",
"405 475 OFFCURVE",
"417 518 OFFCURVE",
"426 547 CURVE",
"433 524 OFFCURVE",
"442 491 OFFCURVE",
"453 446 CURVE SMOOTH",
"472 363 OFFCURVE",
"492 264 OFFCURVE",
"508 185 CURVE SMOOTH",
"517 142 OFFCURVE",
"524 105 OFFCURVE",
"530 78 CURVE",
"534 63 OFFCURVE",
"536 52 OFFCURVE",
"538 45 CURVE",
"539 40 OFFCURVE",
"541 36 OFFCURVE",
"542 33 CURVE SMOOTH",
"550 11 OFFCURVE",
"569 3 OFFCURVE",
"583 4 CURVE SMOOTH",
"600 5 OFFCURVE",
"619 17 OFFCURVE",
"622 42 CURVE SMOOTH",
"625 75 OFFCURVE",
"724 439 OFFCURVE",
"782 651 CURVE SMOOTH",
"788 672 OFFCURVE",
"775 695 OFFCURVE",
"754 700 CURVE"
);
}
);
width = 820;
}
);
unicode = 0174;
},
{
glyphname = Wdieresis;
lastChange = "2014-09-27 15:23:54 +0100";
layers = (
{
layerId = "24C63A81-7FC6-4EE9-AF2B-C1140AFD6C4B";
name = Regular;
paths = (
{
closed = 1;
nodes = (
"314 830 OFFCURVE",
"293 803 OFFCURVE",
"286 772 CURVE SMOOTH",
"279 742 OFFCURVE",
"291 715 OFFCURVE",
"322 721 CURVE SMOOTH",
"353 727 OFFCURVE",
"372 743 OFFCURVE",
"381 775 CURVE SMOOTH",
"390 806 OFFCURVE",
"377 824 OFFCURVE",
"345 827 CURVE SMOOTH"
);
},
{
closed = 1;
nodes = (
"510 830 OFFCURVE",
"484 806 OFFCURVE",
"477 775 CURVE SMOOTH",
"470 745 OFFCURVE",
"485 734 OFFCURVE",
"513 724 CURVE SMOOTH",
"544 713 OFFCURVE",
"568 743 OFFCURVE",
"577 775 CURVE SMOOTH",
"586 806 OFFCURVE",
"573 824 OFFCURVE",
"541 827 CURVE SMOOTH"
);
},
{
closed = 1;
nodes = (
"733 706 OFFCURVE",
"711 694 OFFCURVE",
"705 672 CURVE",
"705 671 OFFCURVE",
"662 517 OFFCURVE",
"624 374 CURVE SMOOTH",
"607 311 OFFCURVE",
"593 261 OFFCURVE",
"583 220 CURVE",
"566 302 OFFCURVE",
"546 400 OFFCURVE",
"527 481 CURVE SMOOTH",
"515 531 OFFCURVE",
"504 568 OFFCURVE",
"495 596 CURVE SMOOTH",
"480 641 OFFCURVE",
"467 662 OFFCURVE",
"448 671 CURVE SMOOTH",
"435 677 OFFCURVE",
"420 677 OFFCURVE",
"407 671 CURVE SMOOTH",
"387 661 OFFCURVE",
"373 637 OFFCURVE",
"355 584 CURVE SMOOTH",
"343 551 OFFCURVE",
"330 505 OFFCURVE",
"316 447 CURVE SMOOTH",
"293 358 OFFCURVE",
"271 256 OFFCURVE",
"255 177 CURVE",
"240 229 OFFCURVE",
"223 296 OFFCURVE",
"203 378 CURVE SMOOTH",
"170 519 OFFCURVE",
"136 668 OFFCURVE",
"136 669 CURVE",
"131 691 OFFCURVE",
"110 705 OFFCURVE",
"88 700 CURVE SMOOTH",
"67 695 OFFCURVE",
"53 674 OFFCURVE",
"58 652 CURVE",
"58 651 OFFCURVE",
"95 484 OFFCURVE",
"132 334 CURVE SMOOTH",
"153 245 OFFCURVE",
"172 175 OFFCURVE",
"187 124 CURVE SMOOTH",
"196 92 OFFCURVE",
"204 69 OFFCURVE",
"210 52 CURVE",
"215 41 OFFCURVE",
"218 33 OFFCURVE",
"222 26 CURVE",
"235 5 OFFCURVE",
"251 0 OFFCURVE",
"263 0 CURVE SMOOTH",
"278 0 OFFCURVE",
"291 7 OFFCURVE",
"299 19 CURVE",
"302 24 OFFCURVE",
"305 30 OFFCURVE",
"307 37 CURVE",
"310 53 OFFCURVE",
"317 84 OFFCURVE",
"325 122 CURVE SMOOTH",
"341 198 OFFCURVE",
"365 312 OFFCURVE",
"389 411 CURVE SMOOTH",
"405 475 OFFCURVE",
"417 518 OFFCURVE",
"426 547 CURVE",
"433 524 OFFCURVE",
"442 491 OFFCURVE",
"453 446 CURVE SMOOTH",
"472 363 OFFCURVE",
"492 264 OFFCURVE",
"508 185 CURVE SMOOTH",
"517 142 OFFCURVE",
"524 105 OFFCURVE",
"530 78 CURVE",
"534 63 OFFCURVE",
"536 52 OFFCURVE",
"538 45 CURVE",
"539 40 OFFCURVE",
"541 36 OFFCURVE",
"542 33 CURVE SMOOTH",
"550 11 OFFCURVE",
"569 3 OFFCURVE",
"583 4 CURVE SMOOTH",
"600 5 OFFCURVE",
"619 17 OFFCURVE",
"622 42 CURVE SMOOTH",
"625 75 OFFCURVE",
"724 439 OFFCURVE",
"782 651 CURVE SMOOTH",
"788 672 OFFCURVE",
"775 695 OFFCURVE",
"754 700 CURVE"
);
}
);
width = 820;
}
);
unicode = 1E84;
},
{
glyphname = Wgrave;
lastChange = "2014-09-27 15:23:54 +0100";
layers = (
{
layerId = "24C63A81-7FC6-4EE9-AF2B-C1140AFD6C4B";
name = Regular;
paths = (
{
closed = 1;
nodes = (
"333 878 OFFCURVE",
"268 823 OFFCURVE",
"350 777 CURVE SMOOTH",
"389 755 OFFCURVE",
"405 739 OFFCURVE",
"427 734 CURVE SMOOTH",
"460 727 OFFCURVE",
"463 764 OFFCURVE",
"444 783 CURVE SMOOTH",
"391 834 OFFCURVE",
"421 804 OFFCURVE",
"365 851 CURVE SMOOTH"
);
},
{
closed = 1;
nodes = (
"733 706 OFFCURVE",
"711 694 OFFCURVE",
"705 672 CURVE",
"705 671 OFFCURVE",
"662 517 OFFCURVE",
"624 374 CURVE SMOOTH",
"607 311 OFFCURVE",
"593 261 OFFCURVE",
"583 220 CURVE",
"566 302 OFFCURVE",
"546 400 OFFCURVE",
"527 481 CURVE SMOOTH",
"515 531 OFFCURVE",
"504 568 OFFCURVE",
"495 596 CURVE SMOOTH",
"480 641 OFFCURVE",
"467 662 OFFCURVE",
"448 671 CURVE SMOOTH",
"435 677 OFFCURVE",
"420 677 OFFCURVE",
"407 671 CURVE SMOOTH",
"387 661 OFFCURVE",
"373 637 OFFCURVE",
"355 584 CURVE SMOOTH",
"343 551 OFFCURVE",
"330 505 OFFCURVE",
"316 447 CURVE SMOOTH",
"293 358 OFFCURVE",
"271 256 OFFCURVE",
"255 177 CURVE",
"240 229 OFFCURVE",
"223 296 OFFCURVE",
"203 378 CURVE SMOOTH",
"170 519 OFFCURVE",
"136 668 OFFCURVE",
"136 669 CURVE",
"131 691 OFFCURVE",
"110 705 OFFCURVE",
"88 700 CURVE SMOOTH",
"67 695 OFFCURVE",
"53 674 OFFCURVE",
"58 652 CURVE",
"58 651 OFFCURVE",
"95 484 OFFCURVE",
"132 334 CURVE SMOOTH",
"153 245 OFFCURVE",
"172 175 OFFCURVE",
"187 124 CURVE SMOOTH",
"196 92 OFFCURVE",
"204 69 OFFCURVE",
"210 52 CURVE",
"215 41 OFFCURVE",
"218 33 OFFCURVE",
"222 26 CURVE",
"235 5 OFFCURVE",
"251 0 OFFCURVE",
"263 0 CURVE SMOOTH",
"278 0 OFFCURVE",
"291 7 OFFCURVE",
"299 19 CURVE",
"302 24 OFFCURVE",
"305 30 OFFCURVE",
"307 37 CURVE",
"310 53 OFFCURVE",
"317 84 OFFCURVE",
"325 122 CURVE SMOOTH",
"341 198 OFFCURVE",
"365 312 OFFCURVE",
"389 411 CURVE SMOOTH",
"405 475 OFFCURVE",
"417 518 OFFCURVE",
"426 547 CURVE",
"433 524 OFFCURVE",
"442 491 OFFCURVE",
"453 446 CURVE SMOOTH",
"472 363 OFFCURVE",
"492 264 OFFCURVE",
"508 185 CURVE SMOOTH",
"517 142 OFFCURVE",
"524 105 OFFCURVE",
"530 78 CURVE",
"534 63 OFFCURVE",
"536 52 OFFCURVE",
"538 45 CURVE",
"539 40 OFFCURVE",
"541 36 OFFCURVE",
"542 33 CURVE SMOOTH",
"550 11 OFFCURVE",
"569 3 OFFCURVE",
"583 4 CURVE SMOOTH",
"600 5 OFFCURVE",
"619 17 OFFCURVE",
"622 42 CURVE SMOOTH",
"625 75 OFFCURVE",
"724 439 OFFCURVE",
"782 651 CURVE SMOOTH",
"788 672 OFFCURVE",
"775 695 OFFCURVE",
"754 700 CURVE"
);
}
);
width = 820;
}
);
unicode = 1E80;
},
{
glyphname = X;
lastChange = "2014-09-27 15:23:54 +0100";
layers = (
{
layerId = "24C63A81-7FC6-4EE9-AF2B-C1140AFD6C4B";
name = Regular;
paths = (
{
closed = 1;
nodes = (
"375 351 LINE",
"585 638 LINE SMOOTH",
"598 656 OFFCURVE",
"594 681 OFFCURVE",
"576 694 CURVE SMOOTH",
"559 707 OFFCURVE",
"534 703 OFFCURVE",
"521 685 CURVE SMOOTH",
"326 418 LINE",
"131 685 LINE SMOOTH",
"118 703 OFFCURVE",
"93 707 OFFCURVE",
"75 694 CURVE SMOOTH",
"57 681 OFFCURVE",
"54 656 OFFCURVE",
"67 638 CURVE SMOOTH",
"277 351 LINE",
"67 64 LINE SMOOTH",
"54 46 OFFCURVE",
"57 21 OFFCURVE",
"75 8 CURVE SMOOTH",
"82 3 OFFCURVE",
"91 0 OFFCURVE",
"99 0 CURVE SMOOTH",
"111 0 OFFCURVE",
"123 6 OFFCURVE",
"131 16 CURVE",
"326 283 LINE",
"521 16 LINE SMOOTH",
"528 6 OFFCURVE",
"541 0 OFFCURVE",
"553 0 CURVE SMOOTH",
"561 0 OFFCURVE",
"569 3 OFFCURVE",
"576 8 CURVE SMOOTH",
"594 21 OFFCURVE",
"598 46 OFFCURVE",
"585 64 CURVE SMOOTH"
);
}
);
width = 642;
}
);
unicode = 0058;
},
{
glyphname = Y;
lastChange = "2014-09-27 15:23:54 +0100";
layers = (
{
layerId = "24C63A81-7FC6-4EE9-AF2B-C1140AFD6C4B";
name = Regular;
paths = (
{
closed = 1;
nodes = (
"475 705 OFFCURVE",
"451 696 OFFCURVE",
"442 675 CURVE SMOOTH",
"291 326 LINE",
"110 678 LINE SMOOTH",
"100 698 OFFCURVE",
"75 705 OFFCURVE",
"56 695 CURVE SMOOTH",
"36 685 OFFCURVE",
"28 661 OFFCURVE",
"39 641 CURVE SMOOTH",
"251 230 LINE",
"176 39 LINE SMOOTH",
"168 19 OFFCURVE",
"179 -4 OFFCURVE",
"199 -12 CURVE SMOOTH",
"204 -14 OFFCURVE",
"209 -15 OFFCURVE",
"214 -15 CURVE SMOOTH",
"230 -15 OFFCURVE",
"245 -5 OFFCURVE",
"251 10 CURVE SMOOTH",
"332 218 LINE",
"333 220 LINE",
"516 644 LINE SMOOTH",
"525 664 OFFCURVE",
"515 688 OFFCURVE",
"495 696 CURVE"
);
}
);
width = 533;
}
);
unicode = 0059;
},
{
glyphname = Yacute;
lastChange = "2014-09-27 15:23:54 +0100";
layers = (
{
layerId = "24C63A81-7FC6-4EE9-AF2B-C1140AFD6C4B";
name = Regular;
paths = (
{
closed = 1;
nodes = (
"380 796 LINE SMOOTH",
"413 823 OFFCURVE",
"402 842 OFFCURVE",
"391 851 CURVE SMOOTH",
"380 860 OFFCURVE",
"362 865 OFFCURVE",
"319 828 CURVE SMOOTH",
"292 805 OFFCURVE",
"270 789 OFFCURVE",
"260 769 CURVE SMOOTH",
"254 756 OFFCURVE",
"256 742 OFFCURVE",
"261 735 CURVE",
"267 725 OFFCURVE",
"286 716 OFFCURVE",
"305 732 CURVE SMOOTH"
);
},
{
closed = 1;
nodes = (
"475 705 OFFCURVE",
"451 696 OFFCURVE",
"442 675 CURVE SMOOTH",
"291 326 LINE",
"110 678 LINE SMOOTH",
"100 698 OFFCURVE",
"75 705 OFFCURVE",
"56 695 CURVE SMOOTH",
"36 685 OFFCURVE",
"28 661 OFFCURVE",
"39 641 CURVE SMOOTH",
"251 230 LINE",
"176 39 LINE SMOOTH",
"168 19 OFFCURVE",
"179 -4 OFFCURVE",
"199 -12 CURVE SMOOTH",
"204 -14 OFFCURVE",
"209 -15 OFFCURVE",
"214 -15 CURVE SMOOTH",
"230 -15 OFFCURVE",
"245 -5 OFFCURVE",
"251 10 CURVE SMOOTH",
"332 218 LINE",
"333 220 LINE",
"516 644 LINE SMOOTH",
"525 664 OFFCURVE",
"515 688 OFFCURVE",
"495 696 CURVE"
);
}
);
width = 533;
}
);
unicode = 00DD;
},
{
glyphname = Ycircumflex;
lastChange = "2014-09-27 15:23:54 +0100";
layers = (
{
layerId = "24C63A81-7FC6-4EE9-AF2B-C1140AFD6C4B";
name = Regular;
paths = (
{
closed = 1;
nodes = (
"304 823 OFFCURVE",
"258 828 OFFCURVE",
"363 734 CURVE",
"389 708 OFFCURVE",
"434 747 OFFCURVE",
"396 788 CURVE SMOOTH",
"290 902 OFFCURVE",
"283 910 OFFCURVE",
"162 788 CURVE SMOOTH",
"128 753 OFFCURVE",
"160 711 OFFCURVE",
"188 732 CURVE SMOOTH"
);
},
{
closed = 1;
nodes = (
"475 705 OFFCURVE",
"451 696 OFFCURVE",
"442 675 CURVE SMOOTH",
"291 326 LINE",
"110 678 LINE SMOOTH",
"100 698 OFFCURVE",
"75 705 OFFCURVE",
"56 695 CURVE SMOOTH",
"36 685 OFFCURVE",
"28 661 OFFCURVE",
"39 641 CURVE SMOOTH",
"251 230 LINE",
"176 39 LINE SMOOTH",
"168 19 OFFCURVE",
"179 -4 OFFCURVE",
"199 -12 CURVE SMOOTH",
"204 -14 OFFCURVE",
"209 -15 OFFCURVE",
"214 -15 CURVE SMOOTH",
"230 -15 OFFCURVE",
"245 -5 OFFCURVE",
"251 10 CURVE SMOOTH",
"332 218 LINE",
"333 220 LINE",
"516 644 LINE SMOOTH",
"525 664 OFFCURVE",
"515 688 OFFCURVE",
"495 696 CURVE"
);
}
);
width = 533;
}
);
unicode = 0176;
},
{
glyphname = Ydieresis;
lastChange = "2014-09-27 15:23:54 +0100";
layers = (
{
layerId = "24C63A81-7FC6-4EE9-AF2B-C1140AFD6C4B";
name = Regular;
paths = (
{
closed = 1;
nodes = (
"174 745 OFFCURVE",
"193 761 OFFCURVE",
"202 793 CURVE SMOOTH",
"211 824 OFFCURVE",
"198 842 OFFCURVE",
"166 845 CURVE SMOOTH",
"135 848 OFFCURVE",
"114 821 OFFCURVE",
"107 790 CURVE SMOOTH",
"100 760 OFFCURVE",
"112 733 OFFCURVE",
"143 739 CURVE SMOOTH"
);
},
{
closed = 1;
nodes = (
"365 731 OFFCURVE",
"389 761 OFFCURVE",
"398 793 CURVE SMOOTH",
"407 824 OFFCURVE",
"394 842 OFFCURVE",
"362 845 CURVE SMOOTH",
"331 848 OFFCURVE",
"305 824 OFFCURVE",
"298 793 CURVE SMOOTH",
"291 763 OFFCURVE",
"306 752 OFFCURVE",
"334 742 CURVE SMOOTH"
);
},
{
closed = 1;
nodes = (
"475 705 OFFCURVE",
"451 696 OFFCURVE",
"442 675 CURVE SMOOTH",
"291 326 LINE",
"110 678 LINE SMOOTH",
"100 698 OFFCURVE",
"75 705 OFFCURVE",
"56 695 CURVE SMOOTH",
"36 685 OFFCURVE",
"28 661 OFFCURVE",
"39 641 CURVE SMOOTH",
"251 230 LINE",
"176 39 LINE SMOOTH",
"168 19 OFFCURVE",
"179 -4 OFFCURVE",
"199 -12 CURVE SMOOTH",
"204 -14 OFFCURVE",
"209 -15 OFFCURVE",
"214 -15 CURVE SMOOTH",
"230 -15 OFFCURVE",
"245 -5 OFFCURVE",
"251 10 CURVE SMOOTH",
"332 218 LINE",
"333 220 LINE",
"516 644 LINE SMOOTH",
"525 664 OFFCURVE",
"515 688 OFFCURVE",
"495 696 CURVE"
);
}
);
width = 533;
}
);
unicode = 0178;
},
{
glyphname = Ygrave;
lastChange = "2014-09-27 15:23:54 +0100";
layers = (
{
layerId = "24C63A81-7FC6-4EE9-AF2B-C1140AFD6C4B";
name = Regular;
paths = (
{
closed = 1;
nodes = (
"247 734 OFFCURVE",
"263 718 OFFCURVE",
"285 713 CURVE SMOOTH",
"318 706 OFFCURVE",
"321 743 OFFCURVE",
"302 762 CURVE SMOOTH",
"249 813 OFFCURVE",
"279 783 OFFCURVE",
"223 830 CURVE SMOOTH",
"191 857 OFFCURVE",
"126 802 OFFCURVE",
"208 756 CURVE SMOOTH"
);
},
{
closed = 1;
nodes = (
"475 705 OFFCURVE",
"451 696 OFFCURVE",
"442 675 CURVE SMOOTH",
"291 326 LINE",
"110 678 LINE SMOOTH",
"100 698 OFFCURVE",
"75 705 OFFCURVE",
"56 695 CURVE SMOOTH",
"36 685 OFFCURVE",
"28 661 OFFCURVE",
"39 641 CURVE SMOOTH",
"251 230 LINE",
"176 39 LINE SMOOTH",
"168 19 OFFCURVE",
"179 -4 OFFCURVE",
"199 -12 CURVE SMOOTH",
"204 -14 OFFCURVE",
"209 -15 OFFCURVE",
"214 -15 CURVE SMOOTH",
"230 -15 OFFCURVE",
"245 -5 OFFCURVE",
"251 10 CURVE SMOOTH",
"332 218 LINE",
"333 220 LINE",
"516 644 LINE SMOOTH",
"525 664 OFFCURVE",
"515 688 OFFCURVE",
"495 696 CURVE"
);
}
);
width = 533;
}
);
unicode = 1EF2;
},
{
glyphname = Z;
lastChange = "2014-09-27 15:23:54 +0100";
layers = (
{
layerId = "24C63A81-7FC6-4EE9-AF2B-C1140AFD6C4B";
name = Regular;
paths = (
{
closed = 1;
nodes = (
"518 699 OFFCURVE",
"403 667 OFFCURVE",
"265 677 CURVE SMOOTH",
"178 683 OFFCURVE",
"108 696 OFFCURVE",
"107 696 CURVE",
"85 700 OFFCURVE",
"64 685 OFFCURVE",
"60 664 CURVE SMOOTH",
"56 642 OFFCURVE",
"71 623 OFFCURVE",
"93 619 CURVE SMOOTH",
"103 617 OFFCURVE",
"329 573 OFFCURVE",
"491 617 CURVE",
"248 358 OFFCURVE",
"102 194 OFFCURVE",
"59 114 CURVE",
"42 87 OFFCURVE",
"26 53 OFFCURVE",
"42 26 CURVE SMOOTH",
"72 -26 OFFCURVE",
"215 18 OFFCURVE",
"329 18 CURVE SMOOTH",
"446 18 OFFCURVE",
"519 -1 OFFCURVE",
"538 -1 CURVE",
"560 -3 OFFCURVE",
"579 13 OFFCURVE",
"581 35 CURVE",
"582 57 OFFCURVE",
"566 77 OFFCURVE",
"544 78 CURVE",
"537 79 OFFCURVE",
"459 97 OFFCURVE",
"339 98 CURVE SMOOTH",
"280 98 OFFCURVE",
"188 93 OFFCURVE",
"133 82 CURVE",
"225 227 OFFCURVE",
"474 450 OFFCURVE",
"580 604 CURVE SMOOTH",
"589 617 OFFCURVE",
"610 650 OFFCURVE",
"591 678 CURVE",
"583 692 OFFCURVE",
"568 699 OFFCURVE",
"552 699 CURVE SMOOTH"
);
}
);
width = 629;
}
);
unicode = 005A;
},
{
glyphname = Zacute;
lastChange = "2014-09-27 15:23:54 +0100";
layers = (
{
layerId = "24C63A81-7FC6-4EE9-AF2B-C1140AFD6C4B";
name = Regular;
paths = (
{
closed = 1;
nodes = (
"424 834 LINE SMOOTH",
"457 861 OFFCURVE",
"446 880 OFFCURVE",
"435 889 CURVE SMOOTH",
"424 898 OFFCURVE",
"406 903 OFFCURVE",
"363 866 CURVE SMOOTH",
"336 843 OFFCURVE",
"314 827 OFFCURVE",
"304 807 CURVE SMOOTH",
"298 794 OFFCURVE",
"300 780 OFFCURVE",
"305 773 CURVE",
"311 763 OFFCURVE",
"330 754 OFFCURVE",
"349 770 CURVE SMOOTH"
);
},
{
closed = 1;
nodes = (
"518 699 OFFCURVE",
"403 667 OFFCURVE",
"265 677 CURVE SMOOTH",
"178 683 OFFCURVE",
"108 696 OFFCURVE",
"107 696 CURVE",
"85 700 OFFCURVE",
"64 685 OFFCURVE",
"60 664 CURVE SMOOTH",
"56 642 OFFCURVE",
"71 623 OFFCURVE",
"93 619 CURVE SMOOTH",
"103 617 OFFCURVE",
"329 573 OFFCURVE",
"491 617 CURVE",
"248 358 OFFCURVE",
"102 194 OFFCURVE",
"59 114 CURVE",
"42 87 OFFCURVE",
"26 53 OFFCURVE",
"42 26 CURVE SMOOTH",
"72 -26 OFFCURVE",
"215 18 OFFCURVE",
"329 18 CURVE SMOOTH",
"446 18 OFFCURVE",
"519 -1 OFFCURVE",
"538 -1 CURVE",
"560 -3 OFFCURVE",
"579 13 OFFCURVE",
"581 35 CURVE",
"582 57 OFFCURVE",
"566 77 OFFCURVE",
"544 78 CURVE",
"537 79 OFFCURVE",
"459 97 OFFCURVE",
"339 98 CURVE SMOOTH",
"280 98 OFFCURVE",
"188 93 OFFCURVE",
"133 82 CURVE",
"225 227 OFFCURVE",
"474 450 OFFCURVE",
"580 604 CURVE SMOOTH",
"589 617 OFFCURVE",
"610 650 OFFCURVE",
"591 678 CURVE",
"583 692 OFFCURVE",
"568 699 OFFCURVE",
"552 699 CURVE SMOOTH"
);
}
);
width = 629;
}
);
unicode = 0179;
},
{
glyphname = Zcaron;
lastChange = "2014-09-27 15:23:54 +0100";
layers = (
{
layerId = "24C63A81-7FC6-4EE9-AF2B-C1140AFD6C4B";
name = Regular;
paths = (
{
closed = 1;
nodes = (
"308 707 OFFCURVE",
"315 699 OFFCURVE",
"435 822 CURVE SMOOTH",
"468 858 OFFCURVE",
"436 899 OFFCURVE",
"408 878 CURVE SMOOTH",
"293 786 OFFCURVE",
"339 781 OFFCURVE",
"233 874 CURVE",
"207 900 OFFCURVE",
"162 860 OFFCURVE",
"201 820 CURVE SMOOTH"
);
},
{
closed = 1;
nodes = (
"518 699 OFFCURVE",
"403 667 OFFCURVE",
"265 677 CURVE SMOOTH",
"178 683 OFFCURVE",
"108 696 OFFCURVE",
"107 696 CURVE",
"85 700 OFFCURVE",
"64 685 OFFCURVE",
"60 664 CURVE SMOOTH",
"56 642 OFFCURVE",
"71 623 OFFCURVE",
"93 619 CURVE SMOOTH",
"103 617 OFFCURVE",
"329 573 OFFCURVE",
"491 617 CURVE",
"248 358 OFFCURVE",
"102 194 OFFCURVE",
"59 114 CURVE",
"42 87 OFFCURVE",
"26 53 OFFCURVE",
"42 26 CURVE SMOOTH",
"72 -26 OFFCURVE",
"215 18 OFFCURVE",
"329 18 CURVE SMOOTH",
"446 18 OFFCURVE",
"519 -1 OFFCURVE",
"538 -1 CURVE",
"560 -3 OFFCURVE",
"579 13 OFFCURVE",
"581 35 CURVE",
"582 57 OFFCURVE",
"566 77 OFFCURVE",
"544 78 CURVE",
"537 79 OFFCURVE",
"459 97 OFFCURVE",
"339 98 CURVE SMOOTH",
"280 98 OFFCURVE",
"188 93 OFFCURVE",
"133 82 CURVE",
"225 227 OFFCURVE",
"474 450 OFFCURVE",
"580 604 CURVE SMOOTH",
"589 617 OFFCURVE",
"610 650 OFFCURVE",
"591 678 CURVE",
"583 692 OFFCURVE",
"568 699 OFFCURVE",
"552 699 CURVE SMOOTH"
);
}
);
width = 629;
}
);
unicode = 017D;
},
{
glyphname = Zdotaccent;
lastChange = "2014-09-27 15:23:54 +0100";
layers = (
{
layerId = "24C63A81-7FC6-4EE9-AF2B-C1140AFD6C4B";
name = Regular;
paths = (
{
closed = 1;
nodes = (
"350 722 OFFCURVE",
"373 744 OFFCURVE",
"373 771 CURVE SMOOTH",
"373 798 OFFCURVE",
"350 820 OFFCURVE",
"322 820 CURVE SMOOTH",
"293 820 OFFCURVE",
"270 798 OFFCURVE",
"270 771 CURVE SMOOTH",
"270 744 OFFCURVE",
"293 722 OFFCURVE",
"322 722 CURVE SMOOTH"
);
},
{
closed = 1;
nodes = (
"518 699 OFFCURVE",
"403 667 OFFCURVE",
"265 677 CURVE SMOOTH",
"178 683 OFFCURVE",
"108 696 OFFCURVE",
"107 696 CURVE",
"85 700 OFFCURVE",
"64 685 OFFCURVE",
"60 664 CURVE SMOOTH",
"56 642 OFFCURVE",
"71 623 OFFCURVE",
"93 619 CURVE SMOOTH",
"103 617 OFFCURVE",
"329 573 OFFCURVE",
"491 617 CURVE",
"248 358 OFFCURVE",
"102 194 OFFCURVE",
"59 114 CURVE",
"42 87 OFFCURVE",
"26 53 OFFCURVE",
"42 26 CURVE SMOOTH",
"72 -26 OFFCURVE",
"215 18 OFFCURVE",
"329 18 CURVE SMOOTH",
"446 18 OFFCURVE",
"519 -1 OFFCURVE",
"538 -1 CURVE",
"560 -3 OFFCURVE",
"579 13 OFFCURVE",
"581 35 CURVE",
"582 57 OFFCURVE",
"566 77 OFFCURVE",
"544 78 CURVE",
"537 79 OFFCURVE",
"459 97 OFFCURVE",
"339 98 CURVE SMOOTH",
"280 98 OFFCURVE",
"188 93 OFFCURVE",
"133 82 CURVE",
"225 227 OFFCURVE",
"474 450 OFFCURVE",
"580 604 CURVE SMOOTH",
"589 617 OFFCURVE",
"610 650 OFFCURVE",
"591 678 CURVE",
"583 692 OFFCURVE",
"568 699 OFFCURVE",
"552 699 CURVE SMOOTH"
);
}
);
width = 629;
}
);
unicode = 017B;
},
{
glyphname = a;
lastChange = "2014-09-27 15:23:54 +0100";
layers = (
{
layerId = "24C63A81-7FC6-4EE9-AF2B-C1140AFD6C4B";
name = Regular;
paths = (
{
closed = 1;
nodes = (
"363 104 OFFCURVE",
"372 132 OFFCURVE",
"376 180 CURVE SMOOTH",
"384 265 OFFCURVE",
"388 370 OFFCURVE",
"334 435 CURVE SMOOTH",
"251 536 OFFCURVE",
"127 465 OFFCURVE",
"69 420 CURVE SMOOTH",
"49 405 OFFCURVE",
"29 373 OFFCURVE",
"50 353 CURVE SMOOTH",
"70 334 OFFCURVE",
"94 345 OFFCURVE",
"115 361 CURVE SMOOTH",
"171 403 OFFCURVE",
"302 470 OFFCURVE",
"302 268 CURVE",
"222 341 OFFCURVE",
"67 304 OFFCURVE",
"42 174 CURVE SMOOTH",
"6 -12 OFFCURVE",
"204 -44 OFFCURVE",
"318 58 CURVE",
"326 34 OFFCURVE",
"351 13 OFFCURVE",
"377 13 CURVE SMOOTH",
"392 13 OFFCURVE",
"407 22 OFFCURVE",
"413 37 CURVE",
"421 54 OFFCURVE",
"417 76 OFFCURVE",
"395 88 CURVE"
);
},
{
closed = 1;
nodes = (
"283 104 OFFCURVE",
"233 82 OFFCURVE",
"203 78 CURVE SMOOTH",
"151 71 OFFCURVE",
"98 94 OFFCURVE",
"111 158 CURVE",
"124 208 OFFCURVE",
"164 231 OFFCURVE",
"203 232 CURVE SMOOTH",
"265 233 OFFCURVE",
"319 190 OFFCURVE",
"294 130 CURVE SMOOTH"
);
},
{
closed = 1;
nodes = (
"337 56 OFFCURVE",
"337 60 OFFCURVE",
"339 64 CURVE",
"337 60 OFFCURVE",
"337 55 OFFCURVE",
"337 51 CURVE"
);
}
);
width = 447;
}
);
unicode = 0061;
},
{
glyphname = aacute;
lastChange = "2014-09-27 15:23:54 +0100";
layers = (
{
layerId = "24C63A81-7FC6-4EE9-AF2B-C1140AFD6C4B";
name = Regular;
paths = (
{
closed = 1;
nodes = (
"302 654 LINE SMOOTH",
"335 681 OFFCURVE",
"324 700 OFFCURVE",
"313 709 CURVE SMOOTH",
"302 718 OFFCURVE",
"284 723 OFFCURVE",
"241 686 CURVE SMOOTH",
"214 663 OFFCURVE",
"192 647 OFFCURVE",
"182 627 CURVE SMOOTH",
"176 614 OFFCURVE",
"178 600 OFFCURVE",
"183 593 CURVE",
"189 583 OFFCURVE",
"208 574 OFFCURVE",
"227 590 CURVE SMOOTH"
);
},
{
closed = 1;
nodes = (
"363 104 OFFCURVE",
"372 132 OFFCURVE",
"376 180 CURVE SMOOTH",
"384 265 OFFCURVE",
"388 370 OFFCURVE",
"334 435 CURVE SMOOTH",
"251 536 OFFCURVE",
"127 465 OFFCURVE",
"69 420 CURVE SMOOTH",
"49 405 OFFCURVE",
"29 373 OFFCURVE",
"50 353 CURVE SMOOTH",
"70 334 OFFCURVE",
"94 345 OFFCURVE",
"115 361 CURVE SMOOTH",
"171 403 OFFCURVE",
"302 470 OFFCURVE",
"302 268 CURVE",
"222 341 OFFCURVE",
"67 304 OFFCURVE",
"42 174 CURVE SMOOTH",
"6 -12 OFFCURVE",
"204 -44 OFFCURVE",
"318 58 CURVE",
"326 34 OFFCURVE",
"351 13 OFFCURVE",
"377 13 CURVE SMOOTH",
"392 13 OFFCURVE",
"407 22 OFFCURVE",
"413 37 CURVE",
"421 54 OFFCURVE",
"417 76 OFFCURVE",
"395 88 CURVE"
);
},
{
closed = 1;
nodes = (
"283 104 OFFCURVE",
"233 82 OFFCURVE",
"203 78 CURVE SMOOTH",
"151 71 OFFCURVE",
"98 94 OFFCURVE",
"111 158 CURVE",
"124 208 OFFCURVE",
"164 231 OFFCURVE",
"203 232 CURVE SMOOTH",
"265 233 OFFCURVE",
"319 190 OFFCURVE",
"294 130 CURVE SMOOTH"
);
},
{
closed = 1;
nodes = (
"337 56 OFFCURVE",
"337 60 OFFCURVE",
"339 64 CURVE",
"337 60 OFFCURVE",
"337 55 OFFCURVE",
"337 51 CURVE"
);
}
);
width = 447;
}
);
unicode = 00E1;
},
{
glyphname = abreve;
lastChange = "2014-09-27 15:23:54 +0100";
layers = (
{
layerId = "24C63A81-7FC6-4EE9-AF2B-C1140AFD6C4B";
name = Regular;
paths = (
{
closed = 1;
nodes = (
"296 565 OFFCURVE",
"349 611 OFFCURVE",
"375 668 CURVE SMOOTH",
"391 703 OFFCURVE",
"325 707 OFFCURVE",
"308 674 CURVE SMOOTH",
"302 663 OFFCURVE",
"278 625 OFFCURVE",
"229 625 CURVE SMOOTH",
"179 625 OFFCURVE",
"154 663 OFFCURVE",
"149 674 CURVE SMOOTH",
"135 705 OFFCURVE",
"75 705 OFFCURVE",
"82 668 CURVE SMOOTH",
"94 606 OFFCURVE",
"161 565 OFFCURVE",
"229 565 CURVE SMOOTH"
);
},
{
closed = 1;
nodes = (
"363 104 OFFCURVE",
"372 132 OFFCURVE",
"376 180 CURVE SMOOTH",
"384 265 OFFCURVE",
"388 370 OFFCURVE",
"334 435 CURVE SMOOTH",
"251 536 OFFCURVE",
"127 465 OFFCURVE",
"69 420 CURVE SMOOTH",
"49 405 OFFCURVE",
"29 373 OFFCURVE",
"50 353 CURVE SMOOTH",
"70 334 OFFCURVE",
"94 345 OFFCURVE",
"115 361 CURVE SMOOTH",
"171 403 OFFCURVE",
"302 470 OFFCURVE",
"302 268 CURVE",
"222 341 OFFCURVE",
"67 304 OFFCURVE",
"42 174 CURVE SMOOTH",
"6 -12 OFFCURVE",
"204 -44 OFFCURVE",
"318 58 CURVE",
"326 34 OFFCURVE",
"351 13 OFFCURVE",
"377 13 CURVE SMOOTH",
"392 13 OFFCURVE",
"407 22 OFFCURVE",
"413 37 CURVE",
"421 54 OFFCURVE",
"417 76 OFFCURVE",
"395 88 CURVE"
);
},
{
closed = 1;
nodes = (
"283 104 OFFCURVE",
"233 82 OFFCURVE",
"203 78 CURVE SMOOTH",
"151 71 OFFCURVE",
"98 94 OFFCURVE",
"111 158 CURVE",
"124 208 OFFCURVE",
"164 231 OFFCURVE",
"203 232 CURVE SMOOTH",
"265 233 OFFCURVE",
"319 190 OFFCURVE",
"294 130 CURVE SMOOTH"
);
},
{
closed = 1;
nodes = (
"337 56 OFFCURVE",
"337 60 OFFCURVE",
"339 64 CURVE",
"337 60 OFFCURVE",
"337 55 OFFCURVE",
"337 51 CURVE"
);
}
);
width = 447;
}
);
unicode = 0103;
},
{
glyphname = acircumflex;
lastChange = "2014-09-27 15:23:54 +0100";
layers = (
{
layerId = "24C63A81-7FC6-4EE9-AF2B-C1140AFD6C4B";
name = Regular;
paths = (
{
closed = 1;
nodes = (
"226 632 OFFCURVE",
"180 637 OFFCURVE",
"285 543 CURVE",
"311 517 OFFCURVE",
"356 556 OFFCURVE",
"318 597 CURVE SMOOTH",
"212 711 OFFCURVE",
"205 719 OFFCURVE",
"84 597 CURVE SMOOTH",
"50 562 OFFCURVE",
"82 520 OFFCURVE",
"110 541 CURVE SMOOTH"
);
},
{
closed = 1;
nodes = (
"363 104 OFFCURVE",
"372 132 OFFCURVE",
"376 180 CURVE SMOOTH",
"384 265 OFFCURVE",
"388 370 OFFCURVE",
"334 435 CURVE SMOOTH",
"251 536 OFFCURVE",
"127 465 OFFCURVE",
"69 420 CURVE SMOOTH",
"49 405 OFFCURVE",
"29 373 OFFCURVE",
"50 353 CURVE SMOOTH",
"70 334 OFFCURVE",
"94 345 OFFCURVE",
"115 361 CURVE SMOOTH",
"171 403 OFFCURVE",
"302 470 OFFCURVE",
"302 268 CURVE",
"222 341 OFFCURVE",
"67 304 OFFCURVE",
"42 174 CURVE SMOOTH",
"6 -12 OFFCURVE",
"204 -44 OFFCURVE",
"318 58 CURVE",
"326 34 OFFCURVE",
"351 13 OFFCURVE",
"377 13 CURVE SMOOTH",
"392 13 OFFCURVE",
"407 22 OFFCURVE",
"413 37 CURVE",
"421 54 OFFCURVE",
"417 76 OFFCURVE",
"395 88 CURVE"
);
},
{
closed = 1;
nodes = (
"283 104 OFFCURVE",
"233 82 OFFCURVE",
"203 78 CURVE SMOOTH",
"151 71 OFFCURVE",
"98 94 OFFCURVE",
"111 158 CURVE",
"124 208 OFFCURVE",
"164 231 OFFCURVE",
"203 232 CURVE SMOOTH",
"265 233 OFFCURVE",
"319 190 OFFCURVE",
"294 130 CURVE SMOOTH"
);
},
{
closed = 1;
nodes = (
"337 56 OFFCURVE",
"337 60 OFFCURVE",
"339 64 CURVE",
"337 60 OFFCURVE",
"337 55 OFFCURVE",
"337 51 CURVE"
);
}
);
width = 447;
}
);
unicode = 00E2;
},
{
glyphname = adieresis;
lastChange = "2014-09-27 15:23:54 +0100";
layers = (
{
layerId = "24C63A81-7FC6-4EE9-AF2B-C1140AFD6C4B";
name = Regular;
paths = (
{
closed = 1;
nodes = (
"132 565 OFFCURVE",
"151 581 OFFCURVE",
"160 613 CURVE SMOOTH",
"169 644 OFFCURVE",
"156 662 OFFCURVE",
"124 665 CURVE SMOOTH",
"93 668 OFFCURVE",
"72 641 OFFCURVE",
"65 610 CURVE SMOOTH",
"58 580 OFFCURVE",
"70 553 OFFCURVE",
"101 559 CURVE SMOOTH"
);
},
{
closed = 1;
nodes = (
"323 551 OFFCURVE",
"347 581 OFFCURVE",
"356 613 CURVE SMOOTH",
"365 644 OFFCURVE",
"352 662 OFFCURVE",
"320 665 CURVE SMOOTH",
"289 668 OFFCURVE",
"263 644 OFFCURVE",
"256 613 CURVE SMOOTH",
"249 583 OFFCURVE",
"264 572 OFFCURVE",
"292 562 CURVE SMOOTH"
);
},
{
closed = 1;
nodes = (
"363 104 OFFCURVE",
"372 132 OFFCURVE",
"376 180 CURVE SMOOTH",
"384 265 OFFCURVE",
"388 370 OFFCURVE",
"334 435 CURVE SMOOTH",
"251 536 OFFCURVE",
"127 465 OFFCURVE",
"69 420 CURVE SMOOTH",
"49 405 OFFCURVE",
"29 373 OFFCURVE",
"50 353 CURVE SMOOTH",
"70 334 OFFCURVE",
"94 345 OFFCURVE",
"115 361 CURVE SMOOTH",
"171 403 OFFCURVE",
"302 470 OFFCURVE",
"302 268 CURVE",
"222 341 OFFCURVE",
"67 304 OFFCURVE",
"42 174 CURVE SMOOTH",
"6 -12 OFFCURVE",
"204 -44 OFFCURVE",
"318 58 CURVE",
"326 34 OFFCURVE",
"351 13 OFFCURVE",
"377 13 CURVE SMOOTH",
"392 13 OFFCURVE",
"407 22 OFFCURVE",
"413 37 CURVE",
"421 54 OFFCURVE",
"417 76 OFFCURVE",
"395 88 CURVE"
);
},
{
closed = 1;
nodes = (
"283 104 OFFCURVE",
"233 82 OFFCURVE",
"203 78 CURVE SMOOTH",
"151 71 OFFCURVE",
"98 94 OFFCURVE",
"111 158 CURVE",
"124 208 OFFCURVE",
"164 231 OFFCURVE",
"203 232 CURVE SMOOTH",
"265 233 OFFCURVE",
"319 190 OFFCURVE",
"294 130 CURVE SMOOTH"
);
},
{
closed = 1;
nodes = (
"337 56 OFFCURVE",
"337 60 OFFCURVE",
"339 64 CURVE",
"337 60 OFFCURVE",
"337 55 OFFCURVE",
"337 51 CURVE"
);
}
);
width = 447;
}
);
unicode = 00E4;
},
{
glyphname = agrave;
lastChange = "2014-09-27 15:23:54 +0100";
layers = (
{
layerId = "24C63A81-7FC6-4EE9-AF2B-C1140AFD6C4B";
name = Regular;
paths = (
{
closed = 1;
nodes = (
"195 588 OFFCURVE",
"211 572 OFFCURVE",
"233 567 CURVE SMOOTH",
"266 560 OFFCURVE",
"269 597 OFFCURVE",
"250 616 CURVE SMOOTH",
"197 667 OFFCURVE",
"227 637 OFFCURVE",
"171 684 CURVE SMOOTH",
"139 711 OFFCURVE",
"74 656 OFFCURVE",
"156 610 CURVE SMOOTH"
);
},
{
closed = 1;
nodes = (
"363 104 OFFCURVE",
"372 132 OFFCURVE",
"376 180 CURVE SMOOTH",
"384 265 OFFCURVE",
"388 370 OFFCURVE",
"334 435 CURVE SMOOTH",
"251 536 OFFCURVE",
"127 465 OFFCURVE",
"69 420 CURVE SMOOTH",
"49 405 OFFCURVE",
"29 373 OFFCURVE",
"50 353 CURVE SMOOTH",
"70 334 OFFCURVE",
"94 345 OFFCURVE",
"115 361 CURVE SMOOTH",
"171 403 OFFCURVE",
"302 470 OFFCURVE",
"302 268 CURVE",
"222 341 OFFCURVE",
"67 304 OFFCURVE",
"42 174 CURVE SMOOTH",
"6 -12 OFFCURVE",
"204 -44 OFFCURVE",
"318 58 CURVE",
"326 34 OFFCURVE",
"351 13 OFFCURVE",
"377 13 CURVE SMOOTH",
"392 13 OFFCURVE",
"407 22 OFFCURVE",
"413 37 CURVE",
"421 54 OFFCURVE",
"417 76 OFFCURVE",
"395 88 CURVE"
);
},
{
closed = 1;
nodes = (
"283 104 OFFCURVE",
"233 82 OFFCURVE",
"203 78 CURVE SMOOTH",
"151 71 OFFCURVE",
"98 94 OFFCURVE",
"111 158 CURVE",
"124 208 OFFCURVE",
"164 231 OFFCURVE",
"203 232 CURVE SMOOTH",
"265 233 OFFCURVE",
"319 190 OFFCURVE",
"294 130 CURVE SMOOTH"
);
},
{
closed = 1;
nodes = (
"337 56 OFFCURVE",
"337 60 OFFCURVE",
"339 64 CURVE",
"337 60 OFFCURVE",
"337 55 OFFCURVE",
"337 51 CURVE"
);
}
);
width = 447;
}
);
unicode = 00E0;
},
{
glyphname = amacron;
lastChange = "2014-09-27 15:23:54 +0100";
layers = (
{
layerId = "24C63A81-7FC6-4EE9-AF2B-C1140AFD6C4B";
name = Regular;
paths = (
{
closed = 1;
nodes = (
"93 581 OFFCURVE",
"95 581 OFFCURVE",
"96 581 CURVE",
"317 589 LINE SMOOTH",
"339 590 OFFCURVE",
"349 607 OFFCURVE",
"349 617 CURVE SMOOTH",
"349 629 OFFCURVE",
"337 648 OFFCURVE",
"315 647 CURVE SMOOTH",
"97 639 LINE SMOOTH",
"75 638 OFFCURVE",
"64 622 OFFCURVE",
"64 609 CURVE SMOOTH",
"64 601 OFFCURVE",
"72 584 OFFCURVE",
"91 582 CURVE"
);
},
{
closed = 1;
nodes = (
"363 104 OFFCURVE",
"372 132 OFFCURVE",
"376 180 CURVE SMOOTH",
"384 265 OFFCURVE",
"388 370 OFFCURVE",
"334 435 CURVE SMOOTH",
"251 536 OFFCURVE",
"127 465 OFFCURVE",
"69 420 CURVE SMOOTH",
"49 405 OFFCURVE",
"29 373 OFFCURVE",
"50 353 CURVE SMOOTH",
"70 334 OFFCURVE",
"94 345 OFFCURVE",
"115 361 CURVE SMOOTH",
"171 403 OFFCURVE",
"302 470 OFFCURVE",
"302 268 CURVE",
"222 341 OFFCURVE",
"67 304 OFFCURVE",
"42 174 CURVE SMOOTH",
"6 -12 OFFCURVE",
"204 -44 OFFCURVE",
"318 58 CURVE",
"326 34 OFFCURVE",
"351 13 OFFCURVE",
"377 13 CURVE SMOOTH",
"392 13 OFFCURVE",
"407 22 OFFCURVE",
"413 37 CURVE",
"421 54 OFFCURVE",
"417 76 OFFCURVE",
"395 88 CURVE"
);
},
{
closed = 1;
nodes = (
"283 104 OFFCURVE",
"233 82 OFFCURVE",
"203 78 CURVE SMOOTH",
"151 71 OFFCURVE",
"98 94 OFFCURVE",
"111 158 CURVE",
"124 208 OFFCURVE",
"164 231 OFFCURVE",
"203 232 CURVE SMOOTH",
"265 233 OFFCURVE",
"319 190 OFFCURVE",
"294 130 CURVE SMOOTH"
);
},
{
closed = 1;
nodes = (
"337 56 OFFCURVE",
"337 60 OFFCURVE",
"339 64 CURVE",
"337 60 OFFCURVE",
"337 55 OFFCURVE",
"337 51 CURVE"
);
}
);
width = 447;
}
);
unicode = 0101;
},
{
glyphname = aogonek;
lastChange = "2014-11-05 20:05:41 +0100";
layers = (
{
layerId = "24C63A81-7FC6-4EE9-AF2B-C1140AFD6C4B";
name = Regular;
paths = (
{
closed = 1;
nodes = (
"145 487 OFFCURVE",
"3 397 OFFCURVE",
"50 353 CURVE SMOOTH",
"92 313 OFFCURVE",
"151 406 OFFCURVE",
"223 406 CURVE SMOOTH",
"266 406 OFFCURVE",
"302 375 OFFCURVE",
"302 268 CURVE",
"275 293 OFFCURVE",
"239 305 OFFCURVE",
"202 305 CURVE SMOOTH",
"132 305 OFFCURVE",
"58 260 OFFCURVE",
"42 174 CURVE SMOOTH",
"18 52 OFFCURVE",
"96 -4 OFFCURVE",
"184 1 CURVE SMOOTH",
"230 4 OFFCURVE",
"279 23 OFFCURVE",
"318 58 CURVE",
"332 52 OFFCURVE",
"351 53 OFFCURVE",
"336 31 CURVE",
"255 -62 OFFCURVE",
"280 -163 OFFCURVE",
"422 -125 CURVE SMOOTH",
"459 -115 OFFCURVE",
"456 -45 OFFCURVE",
"421 -58 CURVE SMOOTH",
"352 -84 OFFCURVE",
"338 -49 OFFCURVE",
"395 17 CURVE SMOOTH",
"415 40 OFFCURVE",
"431 68 OFFCURVE",
"395 88 CURVE",
"363 104 OFFCURVE",
"367 165 OFFCURVE",
"370 235 CURVE SMOOTH",
"372 307 OFFCURVE",
"374 387 OFFCURVE",
"334 435 CURVE SMOOTH",
"303 473 OFFCURVE",
"267 486 OFFCURVE",
"230 487 CURVE SMOOTH"
);
},
{
closed = 1;
nodes = (
"265 233 OFFCURVE",
"319 190 OFFCURVE",
"294 130 CURVE SMOOTH",
"283 104 OFFCURVE",
"233 82 OFFCURVE",
"203 78 CURVE SMOOTH",
"151 71 OFFCURVE",
"98 94 OFFCURVE",
"111 158 CURVE",
"124 208 OFFCURVE",
"164 231 OFFCURVE",
"203 232 CURVE SMOOTH"
);
}
);
width = 447;
}
);
unicode = 0105;
},
{
glyphname = aring;
lastChange = "2014-09-27 15:23:54 +0100";
layers = (
{
layerId = "24C63A81-7FC6-4EE9-AF2B-C1140AFD6C4B";
name = Regular;
paths = (
{
closed = 1;
nodes = (
"275 561 OFFCURVE",
"318 604 OFFCURVE",
"319 653 CURVE SMOOTH",
"320 703 OFFCURVE",
"279 745 OFFCURVE",
"229 744 CURVE SMOOTH",
"179 743 OFFCURVE",
"134 699 OFFCURVE",
"135 649 CURVE SMOOTH",
"136 599 OFFCURVE",
"175 559 OFFCURVE",
"225 560 CURVE SMOOTH"
);
},
{
closed = 1;
nodes = (
"244 680 OFFCURVE",
"255 667 OFFCURVE",
"255 653 CURVE SMOOTH",
"255 637 OFFCURVE",
"246 627 OFFCURVE",
"228 626 CURVE SMOOTH",
"214 625 OFFCURVE",
"201 640 OFFCURVE",
"201 652 CURVE SMOOTH",
"201 670 OFFCURVE",
"214 680 OFFCURVE",
"228 680 CURVE SMOOTH"
);
},
{
closed = 1;
nodes = (
"363 104 OFFCURVE",
"372 132 OFFCURVE",
"376 180 CURVE SMOOTH",
"384 265 OFFCURVE",
"388 370 OFFCURVE",
"334 435 CURVE SMOOTH",
"251 536 OFFCURVE",
"127 465 OFFCURVE",
"69 420 CURVE SMOOTH",
"49 405 OFFCURVE",
"29 373 OFFCURVE",
"50 353 CURVE SMOOTH",
"70 334 OFFCURVE",
"94 345 OFFCURVE",
"115 361 CURVE SMOOTH",
"171 403 OFFCURVE",
"302 470 OFFCURVE",
"302 268 CURVE",
"222 341 OFFCURVE",
"67 304 OFFCURVE",
"42 174 CURVE SMOOTH",
"6 -12 OFFCURVE",
"204 -44 OFFCURVE",
"318 58 CURVE",
"326 34 OFFCURVE",
"351 13 OFFCURVE",
"377 13 CURVE SMOOTH",
"392 13 OFFCURVE",
"407 22 OFFCURVE",
"413 37 CURVE",
"421 54 OFFCURVE",
"417 76 OFFCURVE",
"395 88 CURVE"
);
},
{
closed = 1;
nodes = (
"283 104 OFFCURVE",
"233 82 OFFCURVE",
"203 78 CURVE SMOOTH",
"151 71 OFFCURVE",
"98 94 OFFCURVE",
"111 158 CURVE",
"124 208 OFFCURVE",
"164 231 OFFCURVE",
"203 232 CURVE SMOOTH",
"265 233 OFFCURVE",
"319 190 OFFCURVE",
"294 130 CURVE SMOOTH"
);
},
{
closed = 1;
nodes = (
"337 56 OFFCURVE",
"337 60 OFFCURVE",
"339 64 CURVE",
"337 60 OFFCURVE",
"337 55 OFFCURVE",
"337 51 CURVE"
);
}
);
width = 447;
}
);
unicode = 00E5;
},
{
glyphname = atilde;
lastChange = "2014-09-27 15:23:54 +0100";
layers = (
{
layerId = "24C63A81-7FC6-4EE9-AF2B-C1140AFD6C4B";
name = Regular;
paths = (
{
closed = 1;
nodes = (
"137 584 OFFCURVE",
"119 644 OFFCURVE",
"160 644 CURVE SMOOTH",
"196 644 OFFCURVE",
"220 579 OFFCURVE",
"277 580 CURVE SMOOTH",
"336 581 OFFCURVE",
"373 619 OFFCURVE",
"373 677 CURVE SMOOTH",
"373 696 OFFCURVE",
"354 704 OFFCURVE",
"343 704 CURVE SMOOTH",
"282 704 OFFCURVE",
"327 644 OFFCURVE",
"277 643 CURVE SMOOTH",
"243 642 OFFCURVE",
"223 709 OFFCURVE",
"163 709 CURVE SMOOTH",
"104 709 OFFCURVE",
"67 672 OFFCURVE",
"67 613 CURVE SMOOTH",
"67 600 OFFCURVE",
"75 584 OFFCURVE",
"97 584 CURVE SMOOTH"
);
},
{
closed = 1;
nodes = (
"363 104 OFFCURVE",
"372 132 OFFCURVE",
"376 180 CURVE SMOOTH",
"384 265 OFFCURVE",
"388 370 OFFCURVE",
"334 435 CURVE SMOOTH",
"251 536 OFFCURVE",
"127 465 OFFCURVE",
"69 420 CURVE SMOOTH",
"49 405 OFFCURVE",
"29 373 OFFCURVE",
"50 353 CURVE SMOOTH",
"70 334 OFFCURVE",
"94 345 OFFCURVE",
"115 361 CURVE SMOOTH",
"171 403 OFFCURVE",
"302 470 OFFCURVE",
"302 268 CURVE",
"222 341 OFFCURVE",
"67 304 OFFCURVE",
"42 174 CURVE SMOOTH",
"6 -12 OFFCURVE",
"204 -44 OFFCURVE",
"318 58 CURVE",
"326 34 OFFCURVE",
"351 13 OFFCURVE",
"377 13 CURVE SMOOTH",
"392 13 OFFCURVE",
"407 22 OFFCURVE",
"413 37 CURVE",
"421 54 OFFCURVE",
"417 76 OFFCURVE",
"395 88 CURVE"
);
},
{
closed = 1;
nodes = (
"283 104 OFFCURVE",
"233 82 OFFCURVE",
"203 78 CURVE SMOOTH",
"151 71 OFFCURVE",
"98 94 OFFCURVE",
"111 158 CURVE",
"124 208 OFFCURVE",
"164 231 OFFCURVE",
"203 232 CURVE SMOOTH",
"265 233 OFFCURVE",
"319 190 OFFCURVE",
"294 130 CURVE SMOOTH"
);
},
{
closed = 1;
nodes = (
"337 56 OFFCURVE",
"337 60 OFFCURVE",
"339 64 CURVE",
"337 60 OFFCURVE",
"337 55 OFFCURVE",
"337 51 CURVE"
);
}
);
width = 447;
}
);
unicode = 00E3;
},
{
glyphname = ae;
lastChange = "2014-09-27 15:23:54 +0100";
layers = (
{
layerId = "24C63A81-7FC6-4EE9-AF2B-C1140AFD6C4B";
name = Regular;
paths = (
{
closed = 1;
nodes = (
"561 47 OFFCURVE",
"386 46 OFFCURVE",
"373 173 CURVE",
"373 174 OFFCURVE",
"372 180 OFFCURVE",
"381 181 CURVE",
"425 188 OFFCURVE",
"624 228 OFFCURVE",
"659 298 CURVE SMOOTH",
"700 387 OFFCURVE",
"564 521 OFFCURVE",
"437 480 CURVE SMOOTH",
"396 466 OFFCURVE",
"363 440 OFFCURVE",
"338 407 CURVE",
"333 417 OFFCURVE",
"327 426 OFFCURVE",
"320 435 CURVE SMOOTH",
"236 536 OFFCURVE",
"113 465 OFFCURVE",
"55 420 CURVE SMOOTH",
"35 405 OFFCURVE",
"15 373 OFFCURVE",
"36 353 CURVE SMOOTH",
"56 334 OFFCURVE",
"80 345 OFFCURVE",
"101 361 CURVE SMOOTH",
"157 403 OFFCURVE",
"284 470 OFFCURVE",
"284 268 CURVE",
"204 358 OFFCURVE",
"53 294 OFFCURVE",
"28 174 CURVE",
"-1 -14 OFFCURVE",
"183 -38 OFFCURVE",
"314 58 CURVE",
"320 63 OFFCURVE",
"326 67 OFFCURVE",
"330 72 CURVE",
"375 8 OFFCURVE",
"441 -7 OFFCURVE",
"488 -7 CURVE SMOOTH",
"563 -7 OFFCURVE",
"645 28 OFFCURVE",
"679 114 CURVE SMOOTH",
"699 165 OFFCURVE",
"635 204 OFFCURVE",
"606 142 CURVE SMOOTH"
);
},
{
closed = 1;
nodes = (
"363 284 LINE",
"370 348 OFFCURVE",
"419 393 OFFCURVE",
"462 408 CURVE",
"506 421 OFFCURVE",
"566 396 OFFCURVE",
"593 336 CURVE SMOOTH",
"603 314 OFFCURVE",
"402 264 OFFCURVE",
"371 257 CURVE SMOOTH",
"367 256 OFFCURVE",
"364 256 OFFCURVE",
"363 258 CURVE"
);
},
{
closed = 1;
nodes = (
"275 104 OFFCURVE",
"219 82 OFFCURVE",
"189 78 CURVE SMOOTH",
"137 71 OFFCURVE",
"84 94 OFFCURVE",
"97 158 CURVE",
"110 208 OFFCURVE",
"150 227 OFFCURVE",
"189 228 CURVE SMOOTH",
"251 229 OFFCURVE",
"311 190 OFFCURVE",
"286 130 CURVE SMOOTH"
);
},
{
closed = 1;
nodes = (
"323 55 OFFCURVE",
"323 60 OFFCURVE",
"325 64 CURVE",
"323 60 OFFCURVE",
"323 56 OFFCURVE",
"323 51 CURVE"
);
},
{
closed = 1;
nodes = (
"323 44 OFFCURVE",
"323 48 OFFCURVE",
"323 51 CURVE",
"323 48 OFFCURVE",
"323 44 OFFCURVE",
"324 41 CURVE"
);
}
);
width = 704;
}
);
unicode = 00E6;
},
{
glyphname = b;
lastChange = "2014-09-27 15:23:54 +0100";
layers = (
{
layerId = "24C63A81-7FC6-4EE9-AF2B-C1140AFD6C4B";
name = Regular;
paths = (
{
closed = 1;
nodes = (
"428 474 OFFCURVE",
"272 533 OFFCURVE",
"144 438 CURVE",
"141 662 LINE",
"141 684 OFFCURVE",
"122 701 OFFCURVE",
"100 701 CURVE SMOOTH",
"78 701 OFFCURVE",
"61 682 OFFCURVE",
"61 660 CURVE SMOOTH",
"66 230 LINE SMOOTH",
"66 94 OFFCURVE",
"61 45 OFFCURVE",
"61 45 CURVE",
"58 14 OFFCURVE",
"75 -3 OFFCURVE",
"95 -5 CURVE SMOOTH",
"111 -7 OFFCURVE",
"129 1 OFFCURVE",
"137 20 CURVE",
"319 -40 OFFCURVE",
"487 25 OFFCURVE",
"459 258 CURVE SMOOTH"
);
},
{
closed = 1;
nodes = (
"145 125 OFFCURVE",
"146 169 OFFCURVE",
"146 230 CURVE",
"144 362 LINE",
"146 363 LINE",
"241 447 OFFCURVE",
"359 392 OFFCURVE",
"379 248 CURVE SMOOTH",
"402 81 OFFCURVE",
"294 50 OFFCURVE",
"144 95 CURVE"
);
}
);
width = 534;
}
);
unicode = 0062;
},
{
glyphname = c;
lastChange = "2014-09-27 15:23:54 +0100";
layers = (
{
layerId = "24C63A81-7FC6-4EE9-AF2B-C1140AFD6C4B";
name = Regular;
paths = (
{
closed = 1;
nodes = (
"431 411 OFFCURVE",
"356 482 OFFCURVE",
"248 480 CURVE SMOOTH",
"118 478 OFFCURVE",
"49 379 OFFCURVE",
"40 266 CURVE SMOOTH",
"31 168 OFFCURVE",
"53 4 OFFCURVE",
"235 4 CURVE SMOOTH",
"295 4 OFFCURVE",
"349 25 OFFCURVE",
"383 46 CURVE SMOOTH",
"402 58 OFFCURVE",
"412 81 OFFCURVE",
"402 101 CURVE",
"393 121 OFFCURVE",
"368 130 OFFCURVE",
"348 120 CURVE",
"347 120 OFFCURVE",
"310 95 OFFCURVE",
"286 91 CURVE SMOOTH",
"148 66 OFFCURVE",
"111 156 OFFCURVE",
"120 259 CURVE SMOOTH",
"124 308 OFFCURVE",
"145 396 OFFCURVE",
"244 402 CURVE SMOOTH",
"322 407 OFFCURVE",
"329 350 OFFCURVE",
"376 378 CURVE SMOOTH"
);
}
);
width = 449;
}
);
unicode = 0063;
},
{
glyphname = cacute;
lastChange = "2014-09-27 15:23:54 +0100";
layers = (
{
layerId = "24C63A81-7FC6-4EE9-AF2B-C1140AFD6C4B";
name = Regular;
paths = (
{
closed = 1;
nodes = (
"324 635 LINE SMOOTH",
"357 662 OFFCURVE",
"346 681 OFFCURVE",
"335 690 CURVE SMOOTH",
"324 699 OFFCURVE",
"306 704 OFFCURVE",
"263 667 CURVE SMOOTH",
"236 644 OFFCURVE",
"214 628 OFFCURVE",
"204 608 CURVE SMOOTH",
"198 595 OFFCURVE",
"200 581 OFFCURVE",
"205 574 CURVE",
"211 564 OFFCURVE",
"230 555 OFFCURVE",
"249 571 CURVE SMOOTH"
);
},
{
closed = 1;
nodes = (
"431 411 OFFCURVE",
"356 482 OFFCURVE",
"248 480 CURVE SMOOTH",
"118 478 OFFCURVE",
"49 379 OFFCURVE",
"40 266 CURVE SMOOTH",
"31 168 OFFCURVE",
"53 4 OFFCURVE",
"235 4 CURVE SMOOTH",
"295 4 OFFCURVE",
"349 25 OFFCURVE",
"383 46 CURVE SMOOTH",
"402 58 OFFCURVE",
"412 81 OFFCURVE",
"402 101 CURVE",
"393 121 OFFCURVE",
"368 130 OFFCURVE",
"348 120 CURVE",
"347 120 OFFCURVE",
"310 95 OFFCURVE",
"286 91 CURVE SMOOTH",
"148 66 OFFCURVE",
"111 156 OFFCURVE",
"120 259 CURVE SMOOTH",
"124 308 OFFCURVE",
"145 396 OFFCURVE",
"244 402 CURVE SMOOTH",
"322 407 OFFCURVE",
"329 350 OFFCURVE",
"376 378 CURVE SMOOTH"
);
}
);
width = 449;
}
);
unicode = 0107;
},
{
glyphname = ccaron;
lastChange = "2014-09-27 15:23:54 +0100";
layers = (
{
layerId = "24C63A81-7FC6-4EE9-AF2B-C1140AFD6C4B";
name = Regular;
paths = (
{
closed = 1;
nodes = (
"202 533 OFFCURVE",
"209 525 OFFCURVE",
"329 648 CURVE SMOOTH",
"362 684 OFFCURVE",
"330 725 OFFCURVE",
"302 704 CURVE SMOOTH",
"187 612 OFFCURVE",
"233 607 OFFCURVE",
"127 700 CURVE",
"101 726 OFFCURVE",
"56 686 OFFCURVE",
"95 646 CURVE SMOOTH"
);
},
{
closed = 1;
nodes = (
"431 411 OFFCURVE",
"356 482 OFFCURVE",
"248 480 CURVE SMOOTH",
"118 478 OFFCURVE",
"49 379 OFFCURVE",
"40 266 CURVE SMOOTH",
"31 168 OFFCURVE",
"53 4 OFFCURVE",
"235 4 CURVE SMOOTH",
"295 4 OFFCURVE",
"349 25 OFFCURVE",
"383 46 CURVE SMOOTH",
"402 58 OFFCURVE",
"412 81 OFFCURVE",
"402 101 CURVE",
"393 121 OFFCURVE",
"368 130 OFFCURVE",
"348 120 CURVE",
"347 120 OFFCURVE",
"310 95 OFFCURVE",
"286 91 CURVE SMOOTH",
"148 66 OFFCURVE",
"111 156 OFFCURVE",
"120 259 CURVE SMOOTH",
"124 308 OFFCURVE",
"145 396 OFFCURVE",
"244 402 CURVE SMOOTH",
"322 407 OFFCURVE",
"329 350 OFFCURVE",
"376 378 CURVE SMOOTH"
);
}
);
width = 449;
}
);
unicode = 010D;
},
{
glyphname = ccedilla;
lastChange = "2014-09-27 15:23:54 +0100";
layers = (
{
layerId = "24C63A81-7FC6-4EE9-AF2B-C1140AFD6C4B";
name = Regular;
paths = (
{
closed = 1;
nodes = (
"393 121 OFFCURVE",
"368 130 OFFCURVE",
"348 120 CURVE",
"347 120 OFFCURVE",
"310 95 OFFCURVE",
"286 91 CURVE SMOOTH",
"148 66 OFFCURVE",
"111 156 OFFCURVE",
"120 259 CURVE SMOOTH",
"124 308 OFFCURVE",
"145 396 OFFCURVE",
"244 402 CURVE SMOOTH",
"322 407 OFFCURVE",
"329 350 OFFCURVE",
"376 378 CURVE SMOOTH",
"431 411 OFFCURVE",
"356 482 OFFCURVE",
"248 480 CURVE SMOOTH",
"118 478 OFFCURVE",
"49 379 OFFCURVE",
"40 266 CURVE SMOOTH",
"32 174 OFFCURVE",
"51 23 OFFCURVE",
"204 6 CURVE",
"182 -36 LINE",
"180 -39 OFFCURVE",
"182 -43 OFFCURVE",
"186 -45 CURVE",
"278 -83 OFFCURVE",
"258 -120 OFFCURVE",
"179 -113 CURVE",
"175 -112 OFFCURVE",
"172 -115 OFFCURVE",
"172 -119 CURVE",
"170 -158 LINE",
"170 -162 OFFCURVE",
"173 -165 OFFCURVE",
"177 -165 CURVE",
"328 -153 OFFCURVE",
"378 -51 OFFCURVE",
"258 -25 CURVE",
"252 -24 OFFCURVE",
"250 -19 OFFCURVE",
"253 -14 CURVE",
"266 6 LINE",
"313 11 OFFCURVE",
"355 29 OFFCURVE",
"383 46 CURVE SMOOTH",
"402 58 OFFCURVE",
"412 81 OFFCURVE",
"402 101 CURVE"
);
}
);
width = 449;
}
);
unicode = 00E7;
},
{
glyphname = d;
lastChange = "2014-09-27 15:23:54 +0100";
layers = (
{
layerId = "24C63A81-7FC6-4EE9-AF2B-C1140AFD6C4B";
name = Regular;
paths = (
{
closed = 1;
nodes = (
"444 706 OFFCURVE",
"425 689 OFFCURVE",
"424 667 CURVE",
"423 659 OFFCURVE",
"417 527 OFFCURVE",
"412 401 CURVE",
"377 454 OFFCURVE",
"320 476 OFFCURVE",
"263 476 CURVE SMOOTH",
"198 476 OFFCURVE",
"140 439 OFFCURVE",
"99 374 CURVE SMOOTH",
"69 326 OFFCURVE",
"50 264 OFFCURVE",
"50 216 CURVE SMOOTH",
"50 146 OFFCURVE",
"66 95 OFFCURVE",
"99 58 CURVE SMOOTH",
"133 20 OFFCURVE",
"186 0 OFFCURVE",
"254 0 CURVE SMOOTH",
"316 0 OFFCURVE",
"373 22 OFFCURVE",
"414 88 CURVE",
"419 53 OFFCURVE",
"425 37 OFFCURVE",
"427 33 CURVE",
"438 0 OFFCURVE",
"512 -2 OFFCURVE",
"501 64 CURVE",
"493 102 OFFCURVE",
"484 203 OFFCURVE",
"484 308 CURVE SMOOTH",
"484 437 OFFCURVE",
"503 659 OFFCURVE",
"503 663 CURVE",
"504 685 OFFCURVE",
"487 704 OFFCURVE",
"466 705 CURVE SMOOTH"
);
},
{
closed = 1;
nodes = (
"337 96 OFFCURVE",
"299 80 OFFCURVE",
"254 80 CURVE SMOOTH",
"209 80 OFFCURVE",
"178 90 OFFCURVE",
"159 111 CURVE SMOOTH",
"140 132 OFFCURVE",
"130 168 OFFCURVE",
"130 216 CURVE SMOOTH",
"130 270 OFFCURVE",
"175 396 OFFCURVE",
"263 396 CURVE SMOOTH",
"307 396 OFFCURVE",
"344 381 OFFCURVE",
"369 355 CURVE SMOOTH",
"394 328 OFFCURVE",
"407 289 OFFCURVE",
"407 241 CURVE SMOOTH",
"407 195 OFFCURVE",
"392 154 OFFCURVE",
"365 125 CURVE SMOOTH"
);
}
);
width = 566;
}
);
unicode = 0064;
},
{
glyphname = eth;
lastChange = "2014-11-05 19:42:58 +0100";
layers = (
{
layerId = "24C63A81-7FC6-4EE9-AF2B-C1140AFD6C4B";
name = Regular;
paths = (
{
closed = 1;
nodes = (
"171 733 OFFCURVE",
"141 737 OFFCURVE",
"123 714 CURVE SMOOTH",
"108 695 OFFCURVE",
"110 662 OFFCURVE",
"137 658 CURVE SMOOTH",
"162 655 OFFCURVE",
"190 646 OFFCURVE",
"219 633 CURVE",
"206 614 OFFCURVE",
"199 602 OFFCURVE",
"211 585 CURVE SMOOTH",
"221 570 OFFCURVE",
"239 570 OFFCURVE",
"255 582 CURVE SMOOTH",
"277 601 LINE",
"344 556 OFFCURVE",
"402 489 OFFCURVE",
"413 408 CURVE",
"368 444 OFFCURVE",
"317 460 OFFCURVE",
"268 460 CURVE SMOOTH",
"153 460 OFFCURVE",
"48 374 OFFCURVE",
"48 252 CURVE SMOOTH",
"48 208 OFFCURVE",
"59 170 OFFCURVE",
"78 139 CURVE SMOOTH",
"122 66 OFFCURVE",
"208 26 OFFCURVE",
"292 26 CURVE SMOOTH",
"486 26 OFFCURVE",
"511 152 OFFCURVE",
"511 281 CURVE SMOOTH",
"511 489 OFFCURVE",
"424 599 OFFCURVE",
"342 657 CURVE",
"356 676 OFFCURVE",
"356 686 OFFCURVE",
"341 701 CURVE SMOOTH",
"328 714 OFFCURVE",
"309 708 OFFCURVE",
"285 691 CURVE",
"194 724 LINE SMOOTH"
);
},
{
closed = 1;
nodes = (
"345 381 OFFCURVE",
"427 328 OFFCURVE",
"428 227 CURVE SMOOTH",
"428 142 OFFCURVE",
"365 104 OFFCURVE",
"296 104 CURVE SMOOTH",
"216 104 OFFCURVE",
"130 156 OFFCURVE",
"130 248 CURVE SMOOTH",
"130 339 OFFCURVE",
"197 381 OFFCURVE",
"266 381 CURVE SMOOTH"
);
}
);
width = 557;
}
);
unicode = 00F0;
},
{
glyphname = dcroat;
lastChange = "2014-09-27 15:23:54 +0100";
layers = (
{
layerId = "24C63A81-7FC6-4EE9-AF2B-C1140AFD6C4B";
name = Regular;
paths = (
{
closed = 1;
nodes = (
"502 677 LINE SMOOTH",
"502 689 OFFCURVE",
"490 708 OFFCURVE",
"468 707 CURVE SMOOTH",
"250 699 LINE SMOOTH",
"228 698 OFFCURVE",
"217 682 OFFCURVE",
"217 669 CURVE SMOOTH",
"217 661 OFFCURVE",
"225 644 OFFCURVE",
"244 642 CURVE",
"246 641 OFFCURVE",
"248 641 OFFCURVE",
"249 641 CURVE SMOOTH",
"423 647 LINE",
"421 605 OFFCURVE",
"416 501 OFFCURVE",
"412 401 CURVE",
"377 454 OFFCURVE",
"320 476 OFFCURVE",
"263 476 CURVE SMOOTH",
"198 476 OFFCURVE",
"140 439 OFFCURVE",
"99 374 CURVE SMOOTH",
"69 326 OFFCURVE",
"50 264 OFFCURVE",
"50 216 CURVE SMOOTH",
"50 146 OFFCURVE",
"66 95 OFFCURVE",
"99 58 CURVE SMOOTH",
"133 20 OFFCURVE",
"186 0 OFFCURVE",
"254 0 CURVE SMOOTH",
"316 0 OFFCURVE",
"373 22 OFFCURVE",
"414 88 CURVE",
"419 53 OFFCURVE",
"425 37 OFFCURVE",
"427 33 CURVE",
"438 0 OFFCURVE",
"512 -2 OFFCURVE",
"501 64 CURVE",
"493 102 OFFCURVE",
"484 203 OFFCURVE",
"484 308 CURVE SMOOTH",
"484 437 OFFCURVE",
"503 659 OFFCURVE",
"503 663 CURVE SMOOTH",
"503 667 OFFCURVE",
"503 671 OFFCURVE",
"502 675 CURVE"
);
},
{
closed = 1;
nodes = (
"337 96 OFFCURVE",
"299 80 OFFCURVE",
"254 80 CURVE SMOOTH",
"209 80 OFFCURVE",
"178 90 OFFCURVE",
"159 111 CURVE SMOOTH",
"140 132 OFFCURVE",
"130 168 OFFCURVE",
"130 216 CURVE SMOOTH",
"130 270 OFFCURVE",
"175 396 OFFCURVE",
"263 396 CURVE SMOOTH",
"307 396 OFFCURVE",
"344 381 OFFCURVE",
"369 355 CURVE SMOOTH",
"394 328 OFFCURVE",
"407 289 OFFCURVE",
"407 241 CURVE SMOOTH",
"407 195 OFFCURVE",
"392 154 OFFCURVE",
"365 125 CURVE SMOOTH"
);
}
);
width = 566;
}
);
unicode = 0111;
},
{
glyphname = e;
lastChange = "2014-09-27 15:23:54 +0100";
layers = (
{
layerId = "24C63A81-7FC6-4EE9-AF2B-C1140AFD6C4B";
name = Regular;
paths = (
{
closed = 1;
nodes = (
"84 443 OFFCURVE",
"30 314 OFFCURVE",
"43 194 CURVE SMOOTH",
"64 26 OFFCURVE",
"180 -7 OFFCURVE",
"248 -7 CURVE SMOOTH",
"323 -7 OFFCURVE",
"405 28 OFFCURVE",
"439 114 CURVE SMOOTH",
"459 165 OFFCURVE",
"395 204 OFFCURVE",
"366 142 CURVE SMOOTH",
"321 47 OFFCURVE",
"146 46 OFFCURVE",
"133 173 CURVE",
"133 174 OFFCURVE",
"132 180 OFFCURVE",
"141 181 CURVE",
"185 188 OFFCURVE",
"384 228 OFFCURVE",
"419 298 CURVE SMOOTH",
"460 387 OFFCURVE",
"324 521 OFFCURVE",
"197 480 CURVE SMOOTH"
);
},
{
closed = 1;
nodes = (
"266 421 OFFCURVE",
"326 396 OFFCURVE",
"353 336 CURVE SMOOTH",
"363 314 OFFCURVE",
"162 264 OFFCURVE",
"131 257 CURVE SMOOTH",
"123 255 OFFCURVE",
"122 256 OFFCURVE",
"122 268 CURVE SMOOTH",
"122 340 OFFCURVE",
"175 392 OFFCURVE",
"222 408 CURVE"
);
}
);
width = 495;
}
);
unicode = 0065;
},
{
glyphname = eacute;
lastChange = "2014-09-27 15:23:54 +0100";
layers = (
{
layerId = "24C63A81-7FC6-4EE9-AF2B-C1140AFD6C4B";
name = Regular;
paths = (
{
closed = 1;
nodes = (
"332 636 LINE SMOOTH",
"365 663 OFFCURVE",
"354 682 OFFCURVE",
"343 691 CURVE SMOOTH",
"332 700 OFFCURVE",
"314 705 OFFCURVE",
"271 668 CURVE SMOOTH",
"244 645 OFFCURVE",
"222 629 OFFCURVE",
"212 609 CURVE SMOOTH",
"206 596 OFFCURVE",
"208 582 OFFCURVE",
"213 575 CURVE",
"219 565 OFFCURVE",
"238 556 OFFCURVE",
"257 572 CURVE SMOOTH"
);
},
{
closed = 1;
nodes = (
"84 443 OFFCURVE",
"30 314 OFFCURVE",
"43 194 CURVE SMOOTH",
"64 26 OFFCURVE",
"180 -7 OFFCURVE",
"248 -7 CURVE SMOOTH",
"323 -7 OFFCURVE",
"405 28 OFFCURVE",
"439 114 CURVE SMOOTH",
"459 165 OFFCURVE",
"395 204 OFFCURVE",
"366 142 CURVE SMOOTH",
"321 47 OFFCURVE",
"146 46 OFFCURVE",
"133 173 CURVE",
"133 174 OFFCURVE",
"132 180 OFFCURVE",
"141 181 CURVE",
"185 188 OFFCURVE",
"384 228 OFFCURVE",
"419 298 CURVE SMOOTH",
"460 387 OFFCURVE",
"324 521 OFFCURVE",
"197 480 CURVE SMOOTH"
);
},
{
closed = 1;
nodes = (
"266 421 OFFCURVE",
"326 396 OFFCURVE",
"353 336 CURVE SMOOTH",
"363 314 OFFCURVE",
"162 264 OFFCURVE",
"131 257 CURVE SMOOTH",
"123 255 OFFCURVE",
"122 256 OFFCURVE",
"122 268 CURVE SMOOTH",
"122 340 OFFCURVE",
"175 392 OFFCURVE",
"222 408 CURVE"
);
}
);
width = 495;
}
);
unicode = 00E9;
},
{
glyphname = ecaron;
lastChange = "2014-09-27 15:23:54 +0100";
layers = (
{
layerId = "24C63A81-7FC6-4EE9-AF2B-C1140AFD6C4B";
name = Regular;
paths = (
{
closed = 1;
nodes = (
"226 533 OFFCURVE",
"233 525 OFFCURVE",
"353 648 CURVE SMOOTH",
"386 684 OFFCURVE",
"354 725 OFFCURVE",
"326 704 CURVE SMOOTH",
"211 612 OFFCURVE",
"257 607 OFFCURVE",
"151 700 CURVE",
"125 726 OFFCURVE",
"80 686 OFFCURVE",
"119 646 CURVE SMOOTH"
);
},
{
closed = 1;
nodes = (
"84 443 OFFCURVE",
"30 314 OFFCURVE",
"43 194 CURVE SMOOTH",
"64 26 OFFCURVE",
"180 -7 OFFCURVE",
"248 -7 CURVE SMOOTH",
"323 -7 OFFCURVE",
"405 28 OFFCURVE",
"439 114 CURVE SMOOTH",
"459 165 OFFCURVE",
"395 204 OFFCURVE",
"366 142 CURVE SMOOTH",
"321 47 OFFCURVE",
"146 46 OFFCURVE",
"133 173 CURVE",
"133 174 OFFCURVE",
"132 180 OFFCURVE",
"141 181 CURVE",
"185 188 OFFCURVE",
"384 228 OFFCURVE",
"419 298 CURVE SMOOTH",
"460 387 OFFCURVE",
"324 521 OFFCURVE",
"197 480 CURVE SMOOTH"
);
},
{
closed = 1;
nodes = (
"266 421 OFFCURVE",
"326 396 OFFCURVE",
"353 336 CURVE SMOOTH",
"363 314 OFFCURVE",
"162 264 OFFCURVE",
"131 257 CURVE SMOOTH",
"123 255 OFFCURVE",
"122 256 OFFCURVE",
"122 268 CURVE SMOOTH",
"122 340 OFFCURVE",
"175 392 OFFCURVE",
"222 408 CURVE"
);
}
);
width = 495;
}
);
unicode = 011B;
},
{
glyphname = ecircumflex;
lastChange = "2014-09-27 15:23:54 +0100";
layers = (
{
layerId = "24C63A81-7FC6-4EE9-AF2B-C1140AFD6C4B";
name = Regular;
paths = (
{
closed = 1;
nodes = (
"258 689 OFFCURVE",
"251 697 OFFCURVE",
"130 575 CURVE SMOOTH",
"96 540 OFFCURVE",
"128 498 OFFCURVE",
"156 519 CURVE SMOOTH",
"272 610 OFFCURVE",
"226 615 OFFCURVE",
"331 521 CURVE",
"357 495 OFFCURVE",
"402 534 OFFCURVE",
"364 575 CURVE SMOOTH"
);
},
{
closed = 1;
nodes = (
"84 443 OFFCURVE",
"30 314 OFFCURVE",
"43 194 CURVE SMOOTH",
"64 26 OFFCURVE",
"180 -7 OFFCURVE",
"248 -7 CURVE SMOOTH",
"323 -7 OFFCURVE",
"405 28 OFFCURVE",
"439 114 CURVE SMOOTH",
"459 165 OFFCURVE",
"395 204 OFFCURVE",
"366 142 CURVE SMOOTH",
"321 47 OFFCURVE",
"146 46 OFFCURVE",
"133 173 CURVE",
"133 174 OFFCURVE",
"132 180 OFFCURVE",
"141 181 CURVE",
"185 188 OFFCURVE",
"384 228 OFFCURVE",
"419 298 CURVE SMOOTH",
"460 387 OFFCURVE",
"324 521 OFFCURVE",
"197 480 CURVE SMOOTH"
);
},
{
closed = 1;
nodes = (
"266 421 OFFCURVE",
"326 396 OFFCURVE",
"353 336 CURVE SMOOTH",
"363 314 OFFCURVE",
"162 264 OFFCURVE",
"131 257 CURVE SMOOTH",
"123 255 OFFCURVE",
"122 256 OFFCURVE",
"122 268 CURVE SMOOTH",
"122 340 OFFCURVE",
"175 392 OFFCURVE",
"222 408 CURVE"
);
}
);
width = 495;
}
);
unicode = 00EA;
},
{
glyphname = edieresis;
lastChange = "2014-09-27 15:23:54 +0100";
layers = (
{
layerId = "24C63A81-7FC6-4EE9-AF2B-C1140AFD6C4B";
name = Regular;
paths = (
{
closed = 1;
nodes = (
"115 655 OFFCURVE",
"94 628 OFFCURVE",
"87 597 CURVE SMOOTH",
"80 567 OFFCURVE",
"92 540 OFFCURVE",
"123 546 CURVE SMOOTH",
"154 552 OFFCURVE",
"173 568 OFFCURVE",
"182 600 CURVE SMOOTH",
"191 631 OFFCURVE",
"178 649 OFFCURVE",
"146 652 CURVE SMOOTH"
);
},
{
closed = 1;
nodes = (
"311 655 OFFCURVE",
"285 631 OFFCURVE",
"278 600 CURVE SMOOTH",
"271 570 OFFCURVE",
"286 559 OFFCURVE",
"314 549 CURVE SMOOTH",
"345 538 OFFCURVE",
"369 568 OFFCURVE",
"378 600 CURVE SMOOTH",
"387 631 OFFCURVE",
"374 649 OFFCURVE",
"342 652 CURVE SMOOTH"
);
},
{
closed = 1;
nodes = (
"84 443 OFFCURVE",
"30 314 OFFCURVE",
"43 194 CURVE SMOOTH",
"64 26 OFFCURVE",
"180 -7 OFFCURVE",
"248 -7 CURVE SMOOTH",
"323 -7 OFFCURVE",
"405 28 OFFCURVE",
"439 114 CURVE SMOOTH",
"459 165 OFFCURVE",
"395 204 OFFCURVE",
"366 142 CURVE SMOOTH",
"321 47 OFFCURVE",
"146 46 OFFCURVE",
"133 173 CURVE",
"133 174 OFFCURVE",
"132 180 OFFCURVE",
"141 181 CURVE",
"185 188 OFFCURVE",
"384 228 OFFCURVE",
"419 298 CURVE SMOOTH",
"460 387 OFFCURVE",
"324 521 OFFCURVE",
"197 480 CURVE SMOOTH"
);
},
{
closed = 1;
nodes = (
"266 421 OFFCURVE",
"326 396 OFFCURVE",
"353 336 CURVE SMOOTH",
"363 314 OFFCURVE",
"162 264 OFFCURVE",
"131 257 CURVE SMOOTH",
"123 255 OFFCURVE",
"122 256 OFFCURVE",
"122 268 CURVE SMOOTH",
"122 340 OFFCURVE",
"175 392 OFFCURVE",
"222 408 CURVE"
);
}
);
width = 495;
}
);
unicode = 00EB;
},
{
glyphname = edotaccent;
lastChange = "2014-09-27 15:23:54 +0100";
layers = (
{
layerId = "24C63A81-7FC6-4EE9-AF2B-C1140AFD6C4B";
name = Regular;
paths = (
{
closed = 1;
nodes = (
"275 566 OFFCURVE",
"298 588 OFFCURVE",
"298 615 CURVE SMOOTH",
"298 642 OFFCURVE",
"275 664 OFFCURVE",
"247 664 CURVE SMOOTH",
"218 664 OFFCURVE",
"195 642 OFFCURVE",
"195 615 CURVE SMOOTH",
"195 588 OFFCURVE",
"218 566 OFFCURVE",
"247 566 CURVE SMOOTH"
);
},
{
closed = 1;
nodes = (
"84 443 OFFCURVE",
"30 314 OFFCURVE",
"43 194 CURVE SMOOTH",
"64 26 OFFCURVE",
"180 -7 OFFCURVE",
"248 -7 CURVE SMOOTH",
"323 -7 OFFCURVE",
"405 28 OFFCURVE",
"439 114 CURVE SMOOTH",
"459 165 OFFCURVE",
"395 204 OFFCURVE",
"366 142 CURVE SMOOTH",
"321 47 OFFCURVE",
"146 46 OFFCURVE",
"133 173 CURVE",
"133 174 OFFCURVE",
"132 180 OFFCURVE",
"141 181 CURVE",
"185 188 OFFCURVE",
"384 228 OFFCURVE",
"419 298 CURVE SMOOTH",
"460 387 OFFCURVE",
"324 521 OFFCURVE",
"197 480 CURVE SMOOTH"
);
},
{
closed = 1;
nodes = (
"266 421 OFFCURVE",
"326 396 OFFCURVE",
"353 336 CURVE SMOOTH",
"363 314 OFFCURVE",
"162 264 OFFCURVE",
"131 257 CURVE SMOOTH",
"123 255 OFFCURVE",
"122 256 OFFCURVE",
"122 268 CURVE SMOOTH",
"122 340 OFFCURVE",
"175 392 OFFCURVE",
"222 408 CURVE"
);
}
);
width = 495;
}
);
unicode = 0117;
},
{
glyphname = egrave;
lastChange = "2014-09-27 15:23:54 +0100";
layers = (
{
layerId = "24C63A81-7FC6-4EE9-AF2B-C1140AFD6C4B";
name = Regular;
paths = (
{
closed = 1;
nodes = (
"173 697 OFFCURVE",
"108 642 OFFCURVE",
"190 596 CURVE SMOOTH",
"229 574 OFFCURVE",
"245 558 OFFCURVE",
"267 553 CURVE SMOOTH",
"300 546 OFFCURVE",
"303 583 OFFCURVE",
"284 602 CURVE SMOOTH",
"231 653 OFFCURVE",
"261 623 OFFCURVE",
"205 670 CURVE SMOOTH"
);
},
{
closed = 1;
nodes = (
"84 443 OFFCURVE",
"30 314 OFFCURVE",
"43 194 CURVE SMOOTH",
"64 26 OFFCURVE",
"180 -7 OFFCURVE",
"248 -7 CURVE SMOOTH",
"323 -7 OFFCURVE",
"405 28 OFFCURVE",
"439 114 CURVE SMOOTH",
"459 165 OFFCURVE",
"395 204 OFFCURVE",
"366 142 CURVE SMOOTH",
"321 47 OFFCURVE",
"146 46 OFFCURVE",
"133 173 CURVE",
"133 174 OFFCURVE",
"132 180 OFFCURVE",
"141 181 CURVE",
"185 188 OFFCURVE",
"384 228 OFFCURVE",
"419 298 CURVE SMOOTH",
"460 387 OFFCURVE",
"324 521 OFFCURVE",
"197 480 CURVE SMOOTH"
);
},
{
closed = 1;
nodes = (
"266 421 OFFCURVE",
"326 396 OFFCURVE",
"353 336 CURVE SMOOTH",
"363 314 OFFCURVE",
"162 264 OFFCURVE",
"131 257 CURVE SMOOTH",
"123 255 OFFCURVE",
"122 256 OFFCURVE",
"122 268 CURVE SMOOTH",
"122 340 OFFCURVE",
"175 392 OFFCURVE",
"222 408 CURVE"
);
}
);
width = 495;
}
);
unicode = 00E8;
},
{
glyphname = emacron;
lastChange = "2014-09-27 15:23:54 +0100";
layers = (
{
layerId = "24C63A81-7FC6-4EE9-AF2B-C1140AFD6C4B";
name = Regular;
paths = (
{
closed = 1;
nodes = (
"122 629 LINE SMOOTH",
"100 628 OFFCURVE",
"89 612 OFFCURVE",
"89 599 CURVE SMOOTH",
"89 591 OFFCURVE",
"97 574 OFFCURVE",
"116 572 CURVE",
"118 571 OFFCURVE",
"120 571 OFFCURVE",
"121 571 CURVE",
"342 579 LINE SMOOTH",
"364 580 OFFCURVE",
"374 597 OFFCURVE",
"374 607 CURVE SMOOTH",
"374 619 OFFCURVE",
"362 638 OFFCURVE",
"340 637 CURVE SMOOTH"
);
},
{
closed = 1;
nodes = (
"84 443 OFFCURVE",
"30 314 OFFCURVE",
"43 194 CURVE SMOOTH",
"64 26 OFFCURVE",
"180 -7 OFFCURVE",
"248 -7 CURVE SMOOTH",
"323 -7 OFFCURVE",
"405 28 OFFCURVE",
"439 114 CURVE SMOOTH",
"459 165 OFFCURVE",
"395 204 OFFCURVE",
"366 142 CURVE SMOOTH",
"321 47 OFFCURVE",
"146 46 OFFCURVE",
"133 173 CURVE",
"133 174 OFFCURVE",
"132 180 OFFCURVE",
"141 181 CURVE",
"185 188 OFFCURVE",
"384 228 OFFCURVE",
"419 298 CURVE SMOOTH",
"460 387 OFFCURVE",
"324 521 OFFCURVE",
"197 480 CURVE SMOOTH"
);
},
{
closed = 1;
nodes = (
"266 421 OFFCURVE",
"326 396 OFFCURVE",
"353 336 CURVE SMOOTH",
"363 314 OFFCURVE",
"162 264 OFFCURVE",
"131 257 CURVE SMOOTH",
"123 255 OFFCURVE",
"122 256 OFFCURVE",
"122 268 CURVE SMOOTH",
"122 340 OFFCURVE",
"175 392 OFFCURVE",
"222 408 CURVE"
);
}
);
width = 495;
}
);
unicode = 0113;
},
{
glyphname = eogonek;
lastChange = "2014-09-27 15:23:54 +0100";
layers = (
{
layerId = "24C63A81-7FC6-4EE9-AF2B-C1140AFD6C4B";
name = Regular;
paths = (
{
closed = 1;
nodes = (
"364 -40 OFFCURVE",
"363 -10 OFFCURVE",
"417 73 CURVE",
"426 85 OFFCURVE",
"433 99 OFFCURVE",
"439 114 CURVE SMOOTH",
"459 165 OFFCURVE",
"395 204 OFFCURVE",
"366 142 CURVE SMOOTH",
"321 47 OFFCURVE",
"146 46 OFFCURVE",
"133 173 CURVE",
"133 174 OFFCURVE",
"132 180 OFFCURVE",
"141 181 CURVE",
"185 188 OFFCURVE",
"384 228 OFFCURVE",
"419 298 CURVE SMOOTH",
"460 387 OFFCURVE",
"324 521 OFFCURVE",
"197 480 CURVE SMOOTH",
"84 443 OFFCURVE",
"30 314 OFFCURVE",
"43 194 CURVE SMOOTH",
"64 26 OFFCURVE",
"180 -7 OFFCURVE",
"248 -7 CURVE SMOOTH",
"268 -7 OFFCURVE",
"289 -4 OFFCURVE",
"309 1 CURVE",
"293 -62 OFFCURVE",
"334 -108 OFFCURVE",
"437 -80 CURVE SMOOTH",
"474 -70 OFFCURVE",
"471 0 OFFCURVE",
"436 -13 CURVE SMOOTH"
);
},
{
closed = 1;
nodes = (
"122 340 OFFCURVE",
"175 392 OFFCURVE",
"222 408 CURVE",
"266 421 OFFCURVE",
"326 396 OFFCURVE",
"353 336 CURVE SMOOTH",
"363 314 OFFCURVE",
"162 264 OFFCURVE",
"131 257 CURVE SMOOTH",
"123 255 OFFCURVE",
"122 256 OFFCURVE",
"122 268 CURVE SMOOTH"
);
}
);
width = 495;
}
);
unicode = 0119;
},
{
glyphname = f;
lastChange = "2014-10-23 21:29:38 +0100";
layers = (
{
layerId = "24C63A81-7FC6-4EE9-AF2B-C1140AFD6C4B";
name = Regular;
paths = (
{
closed = 1;
nodes = (
"337 653 OFFCURVE",
"286 700 OFFCURVE",
"230 700 CURVE SMOOTH",
"229 700 LINE SMOOTH",
"84 700 OFFCURVE",
"105 554 OFFCURVE",
"104 439 CURVE SMOOTH",
"104 433 LINE",
"56 431 LINE SMOOTH",
"34 430 OFFCURVE",
"18 410 OFFCURVE",
"20 388 CURVE",
"21 367 OFFCURVE",
"39 351 OFFCURVE",
"59 351 CURVE SMOOTH",
"63 351 LINE",
"105 353 LINE",
"105 335 LINE SMOOTH",
"106 186 OFFCURVE",
"103 43 OFFCURVE",
"103 41 CURVE",
"102 19 OFFCURVE",
"119 1 OFFCURVE",
"141 0 CURVE",
"142 0 LINE SMOOTH",
"163 0 OFFCURVE",
"181 18 OFFCURVE",
"182 40 CURVE",
"182 41 OFFCURVE",
"184 185 OFFCURVE",
"184 335 CURVE SMOOTH",
"184 357 LINE",
"257 360 LINE SMOOTH",
"279 361 OFFCURVE",
"295 381 OFFCURVE",
"294 403 CURVE",
"292 425 OFFCURVE",
"273 441 OFFCURVE",
"251 440 CURVE SMOOTH",
"181 437 LINE",
"181 442 LINE SMOOTH",
"182 516 OFFCURVE",
"161 618 OFFCURVE",
"229 618 CURVE SMOOTH",
"252 618 OFFCURVE",
"270 589 OFFCURVE",
"273 584 CURVE",
"299 529 OFFCURVE",
"363 564 OFFCURVE",
"349 608 CURVE"
);
}
);
width = 360;
}
);
unicode = 0066;
},
{
glyphname = g;
lastChange = "2014-09-27 15:23:54 +0100";
layers = (
{
layerId = "24C63A81-7FC6-4EE9-AF2B-C1140AFD6C4B";
name = Regular;
paths = (
{
closed = 1;
nodes = (
"296 57 OFFCURVE",
"146 27 OFFCURVE",
"144 68 CURVE SMOOTH",
"142 104 OFFCURVE",
"181 103 OFFCURVE",
"219 104 CURVE",
"240 103 LINE",
"365 103 OFFCURVE",
"430 182 OFFCURVE",
"430 289 CURVE SMOOTH",
"430 341 OFFCURVE",
"410 391 OFFCURVE",
"373 425 CURVE",
"355 464 OFFCURVE",
"407 489 OFFCURVE",
"431 438 CURVE",
"438 425 OFFCURVE",
"452 418 OFFCURVE",
"466 418 CURVE SMOOTH",
"491 418 OFFCURVE",
"505 437 OFFCURVE",
"505 457 CURVE SMOOTH",
"505 490 OFFCURVE",
"470 526 OFFCURVE",
"418 526 CURVE SMOOTH",
"368 526 OFFCURVE",
"329 497 OFFCURVE",
"316 459 CURVE",
"297 465 OFFCURVE",
"277 469 OFFCURVE",
"254 469 CURVE SMOOTH",
"123 469 OFFCURVE",
"59 388 OFFCURVE",
"59 280 CURVE SMOOTH",
"59 224 OFFCURVE",
"77 175 OFFCURVE",
"116 142 CURVE",
"90 124 OFFCURVE",
"73 99 OFFCURVE",
"73 67 CURVE SMOOTH",
"73 43 OFFCURVE",
"84 21 OFFCURVE",
"105 3 CURVE",
"71 -17 OFFCURVE",
"47 -48 OFFCURVE",
"47 -82 CURVE SMOOTH",
"47 -150 OFFCURVE",
"115 -229 OFFCURVE",
"236 -229 CURVE SMOOTH",
"439 -229 OFFCURVE",
"509 -158 OFFCURVE",
"509 -82 CURVE SMOOTH",
"509 -40 OFFCURVE",
"496 26 OFFCURVE",
"412 39 CURVE SMOOTH"
);
},
{
closed = 1;
nodes = (
"317 397 OFFCURVE",
"350 337 OFFCURVE",
"350 289 CURVE SMOOTH",
"350 219 OFFCURVE",
"311 183 OFFCURVE",
"240 183 CURVE SMOOTH",
"171 183 OFFCURVE",
"139 216 OFFCURVE",
"139 280 CURVE SMOOTH",
"139 339 OFFCURVE",
"164 397 OFFCURVE",
"254 397 CURVE SMOOTH"
);
},
{
closed = 1;
nodes = (
"174 -154 OFFCURVE",
"125 -125 OFFCURVE",
"125 -87 CURVE SMOOTH",
"125 -56 OFFCURVE",
"171 -30 OFFCURVE",
"236 -30 CURVE",
"396 -21 OFFCURVE",
"434 -28 OFFCURVE",
"434 -72 CURVE SMOOTH",
"434 -111 OFFCURVE",
"396 -154 OFFCURVE",
"236 -154 CURVE SMOOTH"
);
}
);
width = 538;
}
);
unicode = 0067;
},
{
glyphname = h;
lastChange = "2014-11-05 19:44:44 +0100";
layers = (
{
layerId = "24C63A81-7FC6-4EE9-AF2B-C1140AFD6C4B";
name = Regular;
paths = (
{
closed = 1;
nodes = (
"80 711 OFFCURVE",
"80 659 CURVE SMOOTH",
"82 228 LINE SMOOTH",
"82 89 OFFCURVE",
"80 40 OFFCURVE",
"80 39 CURVE SMOOTH",
"80 -13 OFFCURVE",
"160 -17 OFFCURVE",
"160 37 CURVE SMOOTH",
"162 228 LINE",
"162 329 LINE",
"196 373 OFFCURVE",
"256 403 OFFCURVE",
"307 403 CURVE SMOOTH",
"356 403 OFFCURVE",
"397 396 OFFCURVE",
"396 305 CURVE SMOOTH",
"394 36 LINE SMOOTH",
"394 -10 OFFCURVE",
"468 -15 OFFCURVE",
"468 35 CURVE SMOOTH",
"468 125 OFFCURVE",
"473 215 OFFCURVE",
"473 280 CURVE SMOOTH",
"473 408 OFFCURVE",
"450 478 OFFCURVE",
"331 478 CURVE SMOOTH",
"271 478 OFFCURVE",
"206 454 OFFCURVE",
"161 420 CURVE",
"160 659 LINE",
"160 711 OFFCURVE"
);
}
);
width = 542;
}
);
unicode = 0068;
},
{
glyphname = hbar;
lastChange = "2014-09-27 15:23:54 +0100";
layers = (
{
components = (
{
name = h;
transform = "{1, 0, 0, 1, -18, 0}";
}
);
layerId = "24C63A81-7FC6-4EE9-AF2B-C1140AFD6C4B";
name = Regular;
paths = (
{
closed = 1;
nodes = (
"21 596 OFFCURVE",
"-4 589 OFFCURVE",
"-9 563 CURVE SMOOTH",
"-14 540 OFFCURVE",
"3 505 OFFCURVE",
"174 537 CURVE SMOOTH",
"237 550 OFFCURVE",
"255 560 OFFCURVE",
"256 583 CURVE SMOOTH",
"257 605 OFFCURVE",
"252 622 OFFCURVE",
"182 614 CURVE SMOOTH"
);
}
);
width = 542;
}
);
unicode = 0127;
},
{
glyphname = i;
lastChange = "2014-09-27 15:48:59 +0100";
layers = (
{
layerId = "24C63A81-7FC6-4EE9-AF2B-C1140AFD6C4B";
name = Regular;
paths = (
{
closed = 1;
nodes = (
"128 653 OFFCURVE",
"94 642 OFFCURVE",
"83 617 CURVE SMOOTH",
"80 610 LINE SMOOTH",
"69 585 OFFCURVE",
"80 551 OFFCURVE",
"104 540 CURVE",
"112 537 OFFCURVE",
"118 536 OFFCURVE",
"125 536 CURVE SMOOTH",
"144 536 OFFCURVE",
"167 546 OFFCURVE",
"176 563 CURVE",
"179 570 LINE SMOOTH",
"190 595 OFFCURVE",
"178 631 OFFCURVE",
"154 642 CURVE SMOOTH"
);
},
{
closed = 1;
nodes = (
"87 460 OFFCURVE",
"72 439 OFFCURVE",
"68 418 CURVE SMOOTH",
"65 400 OFFCURVE",
"67 360 OFFCURVE",
"100 370 CURVE",
"100 370 OFFCURVE",
"100 309 OFFCURVE",
"100 210 CURVE SMOOTH",
"100 81 LINE SMOOTH",
"99 10 OFFCURVE",
"118 0 OFFCURVE",
"141 0 CURVE SMOOTH",
"164 0 OFFCURVE",
"180 16 OFFCURVE",
"180 50 CURVE SMOOTH",
"180 423 LINE SMOOTH",
"180 443 OFFCURVE",
"173 483 OFFCURVE",
"117 468 CURVE SMOOTH"
);
}
);
width = 250;
}
);
unicode = 0069;
},
{
glyphname = dotlessi;
lastChange = "2014-09-27 15:23:54 +0100";
layers = (
{
layerId = "24C63A81-7FC6-4EE9-AF2B-C1140AFD6C4B";
name = Regular;
paths = (
{
closed = 1;
nodes = (
"87 460 OFFCURVE",
"72 439 OFFCURVE",
"68 418 CURVE SMOOTH",
"65 400 OFFCURVE",
"67 360 OFFCURVE",
"100 370 CURVE",
"100 370 OFFCURVE",
"100 309 OFFCURVE",
"100 210 CURVE SMOOTH",
"100 81 LINE SMOOTH",
"99 10 OFFCURVE",
"118 0 OFFCURVE",
"141 0 CURVE SMOOTH",
"164 0 OFFCURVE",
"180 16 OFFCURVE",
"180 50 CURVE SMOOTH",
"180 423 LINE SMOOTH",
"180 443 OFFCURVE",
"173 483 OFFCURVE",
"117 468 CURVE SMOOTH"
);
}
);
width = 250;
}
);
unicode = 0131;
},
{
glyphname = iacute;
lastChange = "2014-09-27 15:23:54 +0100";
layers = (
{
components = (
{
name = acute;
transform = "{1, 0, 0, 1, -41, -120}";
}
);
layerId = "24C63A81-7FC6-4EE9-AF2B-C1140AFD6C4B";
name = Regular;
paths = (
{
closed = 1;
nodes = (
"87 460 OFFCURVE",
"72 439 OFFCURVE",
"68 418 CURVE SMOOTH",
"65 400 OFFCURVE",
"67 360 OFFCURVE",
"100 370 CURVE",
"100 370 OFFCURVE",
"100 309 OFFCURVE",
"100 210 CURVE SMOOTH",
"100 81 LINE SMOOTH",
"99 10 OFFCURVE",
"118 0 OFFCURVE",
"141 0 CURVE SMOOTH",
"164 0 OFFCURVE",
"180 16 OFFCURVE",
"180 50 CURVE SMOOTH",
"180 423 LINE SMOOTH",
"180 443 OFFCURVE",
"173 483 OFFCURVE",
"117 468 CURVE SMOOTH"
);
}
);
width = 289;
}
);
unicode = 00ED;
},
{
glyphname = icircumflex;
lastChange = "2014-09-27 15:23:54 +0100";
layers = (
{
components = (
{
name = circumflex;
transform = "{1, 0, 0, 1, -111, -110}";
}
);
layerId = "24C63A81-7FC6-4EE9-AF2B-C1140AFD6C4B";
name = Regular;
paths = (
{
closed = 1;
nodes = (
"150 460 OFFCURVE",
"135 439 OFFCURVE",
"131 418 CURVE SMOOTH",
"128 400 OFFCURVE",
"130 360 OFFCURVE",
"163 370 CURVE",
"163 370 OFFCURVE",
"163 309 OFFCURVE",
"163 210 CURVE SMOOTH",
"163 81 LINE SMOOTH",
"162 10 OFFCURVE",
"181 0 OFFCURVE",
"204 0 CURVE SMOOTH",
"227 0 OFFCURVE",
"243 16 OFFCURVE",
"243 50 CURVE SMOOTH",
"243 423 LINE SMOOTH",
"243 443 OFFCURVE",
"236 483 OFFCURVE",
"180 468 CURVE SMOOTH"
);
}
);
width = 398;
}
);
unicode = 00EE;
},
{
glyphname = idieresis;
lastChange = "2014-09-27 15:23:54 +0100";
layers = (
{
components = (
{
name = dieresis;
transform = "{1, 0, 0, 1, -95, -133}";
}
);
layerId = "24C63A81-7FC6-4EE9-AF2B-C1140AFD6C4B";
name = Regular;
paths = (
{
closed = 1;
nodes = (
"165 460 OFFCURVE",
"150 439 OFFCURVE",
"146 418 CURVE SMOOTH",
"143 400 OFFCURVE",
"145 360 OFFCURVE",
"178 370 CURVE",
"178 370 OFFCURVE",
"178 309 OFFCURVE",
"178 210 CURVE SMOOTH",
"178 81 LINE SMOOTH",
"177 10 OFFCURVE",
"196 0 OFFCURVE",
"219 0 CURVE SMOOTH",
"242 0 OFFCURVE",
"258 16 OFFCURVE",
"258 50 CURVE SMOOTH",
"258 423 LINE SMOOTH",
"258 443 OFFCURVE",
"251 483 OFFCURVE",
"195 468 CURVE SMOOTH"
);
}
);
width = 430;
}
);
unicode = 00EF;
},
{
glyphname = igrave;
lastChange = "2014-09-27 15:23:54 +0100";
layers = (
{
components = (
{
name = grave;
transform = "{1, 0, 0, 1, -52, -82}";
}
);
layerId = "24C63A81-7FC6-4EE9-AF2B-C1140AFD6C4B";
name = Regular;
paths = (
{
closed = 1;
nodes = (
"108 460 OFFCURVE",
"93 439 OFFCURVE",
"89 418 CURVE SMOOTH",
"86 400 OFFCURVE",
"88 360 OFFCURVE",
"121 370 CURVE",
"121 370 OFFCURVE",
"121 309 OFFCURVE",
"121 210 CURVE SMOOTH",
"121 81 LINE SMOOTH",
"120 10 OFFCURVE",
"139 0 OFFCURVE",
"162 0 CURVE SMOOTH",
"185 0 OFFCURVE",
"201 16 OFFCURVE",
"201 50 CURVE SMOOTH",
"201 423 LINE SMOOTH",
"201 443 OFFCURVE",
"194 483 OFFCURVE",
"138 468 CURVE SMOOTH"
);
}
);
width = 280;
}
);
unicode = 00EC;
},
{
glyphname = ij;
lastChange = "2014-09-27 15:23:54 +0100";
layers = (
{
layerId = "24C63A81-7FC6-4EE9-AF2B-C1140AFD6C4B";
name = Regular;
paths = (
{
closed = 1;
nodes = (
"140 653 OFFCURVE",
"106 642 OFFCURVE",
"95 617 CURVE SMOOTH",
"92 610 LINE SMOOTH",
"81 585 OFFCURVE",
"92 551 OFFCURVE",
"116 540 CURVE",
"124 537 OFFCURVE",
"130 536 OFFCURVE",
"137 536 CURVE SMOOTH",
"156 536 OFFCURVE",
"179 546 OFFCURVE",
"188 563 CURVE",
"191 570 LINE SMOOTH",
"202 595 OFFCURVE",
"190 631 OFFCURVE",
"166 642 CURVE SMOOTH"
);
},
{
closed = 1;
nodes = (
"330 637 OFFCURVE",
"310 612 OFFCURVE",
"314 582 CURVE SMOOTH",
"315 574 LINE SMOOTH",
"319 546 OFFCURVE",
"342 532 OFFCURVE",
"369 532 CURVE SMOOTH",
"376 532 LINE",
"406 536 OFFCURVE",
"428 560 OFFCURVE",
"421 588 CURVE SMOOTH",
"419 596 LINE SMOOTH",
"411 627 OFFCURVE",
"390 646 OFFCURVE",
"360 641 CURVE SMOOTH"
);
},
{
closed = 1;
nodes = (
"72 450 OFFCURVE",
"64 429 OFFCURVE",
"60 408 CURVE SMOOTH",
"57 390 OFFCURVE",
"69 350 OFFCURVE",
"112 370 CURVE",
"112 370 OFFCURVE",
"112 309 OFFCURVE",
"112 210 CURVE SMOOTH",
"112 81 LINE SMOOTH",
"111 10 OFFCURVE",
"130 0 OFFCURVE",
"153 0 CURVE SMOOTH",
"176 0 OFFCURVE",
"192 16 OFFCURVE",
"192 50 CURVE SMOOTH",
"192 423 LINE SMOOTH",
"192 443 OFFCURVE",
"183 485 OFFCURVE",
"129 468 CURVE SMOOTH"
);
},
{
closed = 1;
nodes = (
"320 453 OFFCURVE",
"292 421 OFFCURVE",
"293 393 CURVE",
"293 373 OFFCURVE",
"299 349 OFFCURVE",
"341 359 CURVE",
"341 17 LINE SMOOTH",
"341 -166 OFFCURVE",
"184 -41 OFFCURVE",
"142 -47 CURVE SMOOTH",
"127 -49 OFFCURVE",
"118 -71 OFFCURVE",
"127 -84 CURVE SMOOTH",
"177 -156 OFFCURVE",
"414 -222 OFFCURVE",
"414 17 CURVE SMOOTH",
"414 234 LINE SMOOTH",
"414 449 OFFCURVE",
"422 473 OFFCURVE",
"385 465 CURVE SMOOTH"
);
}
);
width = 506;
}
);
unicode = 0133;
},
{
glyphname = imacron;
lastChange = "2014-09-27 15:23:54 +0100";
layers = (
{
components = (
{
name = macron;
transform = "{1, 0, 0, 1, -113, -101}";
}
);
layerId = "24C63A81-7FC6-4EE9-AF2B-C1140AFD6C4B";
name = Regular;
paths = (
{
closed = 1;
nodes = (
"172 460 OFFCURVE",
"157 439 OFFCURVE",
"153 418 CURVE SMOOTH",
"150 400 OFFCURVE",
"152 360 OFFCURVE",
"185 370 CURVE",
"185 370 OFFCURVE",
"185 309 OFFCURVE",
"185 210 CURVE SMOOTH",
"185 81 LINE SMOOTH",
"184 10 OFFCURVE",
"203 0 OFFCURVE",
"226 0 CURVE SMOOTH",
"249 0 OFFCURVE",
"265 16 OFFCURVE",
"265 50 CURVE SMOOTH",
"265 423 LINE SMOOTH",
"265 443 OFFCURVE",
"258 483 OFFCURVE",
"202 468 CURVE SMOOTH"
);
}
);
width = 419;
}
);
unicode = 012B;
},
{
glyphname = iogonek;
lastChange = "2014-09-27 15:23:54 +0100";
layers = (
{
layerId = "24C63A81-7FC6-4EE9-AF2B-C1140AFD6C4B";
name = Regular;
paths = (
{
closed = 1;
nodes = (
"124 537 OFFCURVE",
"130 536 OFFCURVE",
"137 536 CURVE SMOOTH",
"156 536 OFFCURVE",
"179 546 OFFCURVE",
"188 563 CURVE",
"191 570 LINE SMOOTH",
"202 595 OFFCURVE",
"190 631 OFFCURVE",
"166 642 CURVE SMOOTH",
"140 653 OFFCURVE",
"106 642 OFFCURVE",
"95 617 CURVE SMOOTH",
"92 610 LINE SMOOTH",
"81 585 OFFCURVE",
"92 551 OFFCURVE",
"116 540 CURVE"
);
},
{
closed = 1;
nodes = (
"128 -100 OFFCURVE",
"125 -72 OFFCURVE",
"175 7 CURVE",
"186 14 OFFCURVE",
"192 29 OFFCURVE",
"192 50 CURVE SMOOTH",
"192 423 LINE SMOOTH",
"192 443 OFFCURVE",
"183 485 OFFCURVE",
"129 468 CURVE SMOOTH",
"72 450 OFFCURVE",
"64 429 OFFCURVE",
"60 408 CURVE SMOOTH",
"57 390 OFFCURVE",
"69 350 OFFCURVE",
"112 370 CURVE",
"112 370 OFFCURVE",
"112 309 OFFCURVE",
"112 210 CURVE SMOOTH",
"112 81 LINE SMOOTH",
"112 53 OFFCURVE",
"114 34 OFFCURVE",
"119 22 CURVE",
"31 -73 OFFCURVE",
"53 -180 OFFCURVE",
"199 -141 CURVE SMOOTH",
"236 -131 OFFCURVE",
"233 -61 OFFCURVE",
"198 -74 CURVE SMOOTH"
);
}
);
width = 263;
}
);
unicode = 012F;
},
{
glyphname = j;
lastChange = "2014-09-27 15:23:54 +0100";
layers = (
{
layerId = "24C63A81-7FC6-4EE9-AF2B-C1140AFD6C4B";
name = Regular;
paths = (
{
closed = 1;
nodes = (
"105 647 OFFCURVE",
"85 622 OFFCURVE",
"89 592 CURVE SMOOTH",
"90 584 LINE SMOOTH",
"94 556 OFFCURVE",
"117 542 OFFCURVE",
"144 542 CURVE SMOOTH",
"151 542 LINE",
"181 546 OFFCURVE",
"203 570 OFFCURVE",
"196 598 CURVE SMOOTH",
"194 606 LINE SMOOTH",
"186 637 OFFCURVE",
"165 656 OFFCURVE",
"135 651 CURVE SMOOTH"
);
},
{
closed = 1;
nodes = (
"95 463 OFFCURVE",
"67 431 OFFCURVE",
"68 403 CURVE",
"68 383 OFFCURVE",
"78 359 OFFCURVE",
"120 369 CURVE",
"120 242 LINE SMOOTH",
"120 90 OFFCURVE",
"123 50 OFFCURVE",
"114 -19 CURVE",
"109 -49 OFFCURVE",
"100 -70 OFFCURVE",
"90 -82 CURVE SMOOTH",
"84 -89 OFFCURVE",
"75 -98 OFFCURVE",
"53 -101 CURVE",
"31 -105 OFFCURVE",
"16 -125 OFFCURVE",
"19 -147 CURVE SMOOTH",
"22 -167 OFFCURVE",
"39 -181 OFFCURVE",
"59 -181 CURVE SMOOTH",
"61 -181 OFFCURVE",
"63 -180 OFFCURVE",
"65 -180 CURVE",
"150 -166 OFFCURVE",
"184 -89 OFFCURVE",
"190 -32 CURVE SMOOTH",
"198 44 OFFCURVE",
"197 81 OFFCURVE",
"197 244 CURVE SMOOTH",
"197 459 OFFCURVE",
"205 483 OFFCURVE",
"160 475 CURVE SMOOTH"
);
}
);
width = 281;
}
);
unicode = 006A;
},
{
glyphname = k;
lastChange = "2014-09-27 15:23:54 +0100";
layers = (
{
layerId = "24C63A81-7FC6-4EE9-AF2B-C1140AFD6C4B";
name = Regular;
paths = (
{
closed = 1;
nodes = (
"293 343 OFFCURVE",
"334 368 OFFCURVE",
"364 388 CURVE SMOOTH",
"411 420 OFFCURVE",
"413 439 OFFCURVE",
"400 458 CURVE SMOOTH",
"386 478 OFFCURVE",
"360 470 OFFCURVE",
"315 445 CURVE SMOOTH",
"285 428 OFFCURVE",
"255 410 OFFCURVE",
"198 375 CURVE SMOOTH",
"177 362 OFFCURVE",
"160 350 OFFCURVE",
"144 340 CURVE",
"143 484 OFFCURVE",
"140 659 OFFCURVE",
"140 661 CURVE SMOOTH",
"140 683 OFFCURVE",
"122 701 OFFCURVE",
"100 700 CURVE",
"78 700 OFFCURVE",
"60 682 OFFCURVE",
"60 660 CURVE SMOOTH",
"60 657 OFFCURVE",
"65 370 OFFCURVE",
"65 230 CURVE SMOOTH",
"65 93 OFFCURVE",
"61 44 OFFCURVE",
"61 44 CURVE",
"58 22 OFFCURVE",
"74 2 OFFCURVE",
"96 0 CURVE",
"156 0 OFFCURVE",
"145 68 OFFCURVE",
"145 230 CURVE SMOOTH",
"145 243 LINE",
"186 243 OFFCURVE",
"247 238 OFFCURVE",
"283 200 CURVE SMOOTH",
"328 151 OFFCURVE",
"329 98 OFFCURVE",
"329 42 CURVE",
"328 20 OFFCURVE",
"344 1 OFFCURVE",
"366 0 CURVE",
"390 0 OFFCURVE",
"408 16 OFFCURVE",
"409 37 CURVE",
"409 133 OFFCURVE",
"394 288 OFFCURVE",
"221 301 CURVE"
);
}
);
width = 469;
}
);
unicode = 006B;
},
{
glyphname = l;
lastChange = "2014-09-27 15:23:54 +0100";
layers = (
{
layerId = "24C63A81-7FC6-4EE9-AF2B-C1140AFD6C4B";
name = Regular;
paths = (
{
closed = 1;
nodes = (
"90 700 OFFCURVE",
"72 682 OFFCURVE",
"72 660 CURVE SMOOTH",
"71 534 OFFCURVE",
"72 445 OFFCURVE",
"72 366 CURVE SMOOTH",
"72 273 OFFCURVE",
"73 199 OFFCURVE",
"71 107 CURVE SMOOTH",
"70 39 OFFCURVE",
"103 15 OFFCURVE",
"123 6 CURVE SMOOTH",
"132 2 OFFCURVE",
"143 0 OFFCURVE",
"153 0 CURVE SMOOTH",
"186 0 OFFCURVE",
"222 19 OFFCURVE",
"257 54 CURVE SMOOTH",
"272 70 OFFCURVE",
"272 95 OFFCURVE",
"257 111 CURVE",
"241 126 OFFCURVE",
"215 126 OFFCURVE",
"200 110 CURVE SMOOTH",
"177 87 OFFCURVE",
"160 81 OFFCURVE",
"155 80 CURVE",
"153 83 OFFCURVE",
"151 91 OFFCURVE",
"151 106 CURVE SMOOTH",
"153 198 OFFCURVE",
"152 272 OFFCURVE",
"152 366 CURVE SMOOTH",
"152 445 OFFCURVE",
"151 534 OFFCURVE",
"152 660 CURVE SMOOTH",
"152 682 OFFCURVE",
"134 700 OFFCURVE",
"112 700 CURVE SMOOTH"
);
}
);
width = 301;
}
);
unicode = 006C;
},
{
glyphname = lacute;
lastChange = "2014-09-27 15:23:54 +0100";
layers = (
{
layerId = "24C63A81-7FC6-4EE9-AF2B-C1140AFD6C4B";
name = Regular;
paths = (
{
closed = 1;
nodes = (
"182 831 LINE SMOOTH",
"215 858 OFFCURVE",
"204 877 OFFCURVE",
"193 886 CURVE SMOOTH",
"182 895 OFFCURVE",
"164 900 OFFCURVE",
"121 863 CURVE SMOOTH",
"94 840 OFFCURVE",
"72 824 OFFCURVE",
"62 804 CURVE SMOOTH",
"56 791 OFFCURVE",
"58 777 OFFCURVE",
"63 770 CURVE",
"69 760 OFFCURVE",
"88 751 OFFCURVE",
"107 767 CURVE SMOOTH"
);
},
{
closed = 1;
nodes = (
"90 700 OFFCURVE",
"72 682 OFFCURVE",
"72 660 CURVE SMOOTH",
"71 534 OFFCURVE",
"72 445 OFFCURVE",
"72 366 CURVE SMOOTH",
"72 273 OFFCURVE",
"73 199 OFFCURVE",
"71 107 CURVE SMOOTH",
"70 39 OFFCURVE",
"103 15 OFFCURVE",
"123 6 CURVE SMOOTH",
"132 2 OFFCURVE",
"143 0 OFFCURVE",
"153 0 CURVE SMOOTH",
"186 0 OFFCURVE",
"222 19 OFFCURVE",
"257 54 CURVE SMOOTH",
"272 70 OFFCURVE",
"272 95 OFFCURVE",
"257 111 CURVE",
"241 126 OFFCURVE",
"215 126 OFFCURVE",
"200 110 CURVE SMOOTH",
"177 87 OFFCURVE",
"160 81 OFFCURVE",
"155 80 CURVE",
"153 83 OFFCURVE",
"151 91 OFFCURVE",
"151 106 CURVE SMOOTH",
"153 198 OFFCURVE",
"152 272 OFFCURVE",
"152 366 CURVE SMOOTH",
"152 445 OFFCURVE",
"151 534 OFFCURVE",
"152 660 CURVE SMOOTH",
"152 682 OFFCURVE",
"134 700 OFFCURVE",
"112 700 CURVE SMOOTH"
);
}
);
width = 301;
}
);
unicode = 013A;
},
{
glyphname = ldot;
lastChange = "2014-09-27 15:23:54 +0100";
layers = (
{
layerId = "24C63A81-7FC6-4EE9-AF2B-C1140AFD6C4B";
name = Regular;
paths = (
{
closed = 1;
nodes = (
"112 700 LINE",
"90 700 OFFCURVE",
"72 682 OFFCURVE",
"72 660 CURVE SMOOTH",
"71 534 OFFCURVE",
"72 445 OFFCURVE",
"72 366 CURVE SMOOTH",
"72 273 OFFCURVE",
"73 199 OFFCURVE",
"71 107 CURVE SMOOTH",
"70 39 OFFCURVE",
"103 15 OFFCURVE",
"123 6 CURVE SMOOTH",
"132 2 OFFCURVE",
"143 0 OFFCURVE",
"153 0 CURVE SMOOTH",
"186 0 OFFCURVE",
"222 19 OFFCURVE",
"257 54 CURVE SMOOTH",
"272 70 OFFCURVE",
"272 95 OFFCURVE",
"257 111 CURVE",
"241 126 OFFCURVE",
"215 126 OFFCURVE",
"200 110 CURVE SMOOTH",
"177 87 OFFCURVE",
"160 81 OFFCURVE",
"155 80 CURVE",
"153 83 OFFCURVE",
"151 91 OFFCURVE",
"151 106 CURVE SMOOTH",
"153 198 OFFCURVE",
"152 272 OFFCURVE",
"152 366 CURVE SMOOTH",
"152 445 OFFCURVE",
"151 534 OFFCURVE",
"152 660 CURVE"
);
},
{
closed = 1;
nodes = (
"286 362 OFFCURVE",
"261 337 OFFCURVE",
"261 307 CURVE SMOOTH",
"261 277 OFFCURVE",
"286 252 OFFCURVE",
"317 252 CURVE SMOOTH",
"348 252 OFFCURVE",
"372 277 OFFCURVE",
"372 307 CURVE SMOOTH",
"372 337 OFFCURVE",
"348 362 OFFCURVE",
"317 362 CURVE SMOOTH"
);
}
);
width = 301;
}
);
unicode = 0140;
},
{
glyphname = lslash;
lastChange = "2014-09-27 15:23:54 +0100";
layers = (
{
layerId = "24C63A81-7FC6-4EE9-AF2B-C1140AFD6C4B";
name = Regular;
paths = (
{
closed = 1;
nodes = (
"333 126 OFFCURVE",
"307 126 OFFCURVE",
"292 110 CURVE SMOOTH",
"269 87 OFFCURVE",
"252 81 OFFCURVE",
"247 80 CURVE",
"245 83 OFFCURVE",
"243 91 OFFCURVE",
"243 106 CURVE SMOOTH",
"245 186 OFFCURVE",
"244 252 OFFCURVE",
"244 329 CURVE",
"293 377 LINE SMOOTH",
"355 438 OFFCURVE",
"364 434 OFFCURVE",
"332 467 CURVE SMOOTH",
"298 501 OFFCURVE",
"306 500 OFFCURVE",
"244 437 CURVE",
"244 499 OFFCURVE",
"243 570 OFFCURVE",
"244 660 CURVE SMOOTH",
"244 682 OFFCURVE",
"226 700 OFFCURVE",
"204 700 CURVE SMOOTH",
"182 700 OFFCURVE",
"164 682 OFFCURVE",
"164 660 CURVE SMOOTH",
"163 534 OFFCURVE",
"164 445 OFFCURVE",
"164 366 CURVE SMOOTH",
"164 358 LINE",
"59 257 OFFCURVE",
"56 261 OFFCURVE",
"87 227 CURVE",
"103 211 OFFCURVE",
"108 203 OFFCURVE",
"164 253 CURVE",
"164 206 OFFCURVE",
"164 159 OFFCURVE",
"163 107 CURVE SMOOTH",
"162 39 OFFCURVE",
"195 15 OFFCURVE",
"215 6 CURVE SMOOTH",
"224 2 OFFCURVE",
"235 0 OFFCURVE",
"245 0 CURVE SMOOTH",
"278 0 OFFCURVE",
"314 19 OFFCURVE",
"349 54 CURVE SMOOTH",
"364 70 OFFCURVE",
"364 95 OFFCURVE",
"349 111 CURVE"
);
}
);
width = 393;
}
);
unicode = 0142;
},
{
glyphname = m;
lastChange = "2014-09-27 15:23:54 +0100";
layers = (
{
layerId = "24C63A81-7FC6-4EE9-AF2B-C1140AFD6C4B";
name = Regular;
paths = (
{
closed = 1;
nodes = (
"462 508 OFFCURVE",
"387 467 OFFCURVE",
"338 416 CURVE",
"334 428 OFFCURVE",
"328 439 OFFCURVE",
"320 447 CURVE SMOOTH",
"260 511 OFFCURVE",
"182 465 OFFCURVE",
"134 414 CURVE",
"129 431 LINE SMOOTH",
"123 452 OFFCURVE",
"101 464 OFFCURVE",
"80 458 CURVE SMOOTH",
"59 452 OFFCURVE",
"46 429 OFFCURVE",
"53 408 CURVE",
"77 325 OFFCURVE",
"67 116 OFFCURVE",
"61 43 CURVE SMOOTH",
"59 21 OFFCURVE",
"76 2 OFFCURVE",
"98 0 CURVE",
"101 0 LINE SMOOTH",
"121 0 OFFCURVE",
"139 16 OFFCURVE",
"141 37 CURVE",
"141 103 OFFCURVE",
"153 230 OFFCURVE",
"145 335 CURVE",
"207 411 OFFCURVE",
"272 440 OFFCURVE",
"272 309 CURVE SMOOTH",
"272 46 LINE SMOOTH",
"272 14 OFFCURVE",
"288 1 OFFCURVE",
"312 1 CURVE SMOOTH",
"335 1 OFFCURVE",
"349 16 OFFCURVE",
"349 45 CURVE SMOOTH",
"349 162 OFFCURVE",
"358 265 OFFCURVE",
"352 340 CURVE",
"412 414 OFFCURVE",
"471 434 OFFCURVE",
"471 309 CURVE SMOOTH",
"471 46 LINE SMOOTH",
"471 14 OFFCURVE",
"487 1 OFFCURVE",
"511 1 CURVE SMOOTH",
"534 1 OFFCURVE",
"548 16 OFFCURVE",
"548 45 CURVE SMOOTH",
"548 237 OFFCURVE",
"571 391 OFFCURVE",
"519 447 CURVE SMOOTH"
);
}
);
width = 604;
}
);
unicode = 006D;
},
{
glyphname = n;
lastChange = "2014-09-27 15:23:54 +0100";
layers = (
{
layerId = "24C63A81-7FC6-4EE9-AF2B-C1140AFD6C4B";
name = Regular;
paths = (
{
closed = 1;
nodes = (
"342 507 OFFCURVE",
"207 477 OFFCURVE",
"131 422 CURVE",
"131 423 LINE",
"129 445 OFFCURVE",
"110 462 OFFCURVE",
"88 461 CURVE SMOOTH",
"66 460 OFFCURVE",
"49 441 OFFCURVE",
"51 419 CURVE SMOOTH",
"57 314 OFFCURVE",
"55 43 OFFCURVE",
"55 40 CURVE SMOOTH",
"55 18 OFFCURVE",
"73 0 OFFCURVE",
"95 0 CURVE SMOOTH",
"117 0 OFFCURVE",
"135 18 OFFCURVE",
"135 40 CURVE SMOOTH",
"135 49 OFFCURVE",
"136 212 OFFCURVE",
"134 334 CURVE",
"203 416 OFFCURVE",
"364 446 OFFCURVE",
"364 305 CURVE SMOOTH",
"364 46 LINE SMOOTH",
"364 14 OFFCURVE",
"379 1 OFFCURVE",
"400 1 CURVE SMOOTH",
"423 1 OFFCURVE",
"436 16 OFFCURVE",
"436 45 CURVE SMOOTH",
"436 237 OFFCURVE",
"459 381 OFFCURVE",
"407 437 CURVE SMOOTH"
);
}
);
width = 498;
}
);
unicode = 006E;
},
{
glyphname = nacute;
lastChange = "2014-09-27 15:23:54 +0100";
layers = (
{
layerId = "24C63A81-7FC6-4EE9-AF2B-C1140AFD6C4B";
name = Regular;
paths = (
{
closed = 1;
nodes = (
"360 623 LINE SMOOTH",
"393 650 OFFCURVE",
"382 669 OFFCURVE",
"371 678 CURVE SMOOTH",
"360 687 OFFCURVE",
"342 692 OFFCURVE",
"299 655 CURVE SMOOTH",
"272 632 OFFCURVE",
"250 616 OFFCURVE",
"240 596 CURVE SMOOTH",
"234 583 OFFCURVE",
"236 569 OFFCURVE",
"241 562 CURVE",
"247 552 OFFCURVE",
"266 543 OFFCURVE",
"285 559 CURVE SMOOTH"
);
},
{
closed = 1;
nodes = (
"342 507 OFFCURVE",
"207 477 OFFCURVE",
"131 422 CURVE",
"131 423 LINE",
"129 445 OFFCURVE",
"110 462 OFFCURVE",
"88 461 CURVE SMOOTH",
"66 460 OFFCURVE",
"49 441 OFFCURVE",
"51 419 CURVE SMOOTH",
"57 314 OFFCURVE",
"55 43 OFFCURVE",
"55 40 CURVE SMOOTH",
"55 18 OFFCURVE",
"73 0 OFFCURVE",
"95 0 CURVE SMOOTH",
"117 0 OFFCURVE",
"135 18 OFFCURVE",
"135 40 CURVE SMOOTH",
"135 49 OFFCURVE",
"136 212 OFFCURVE",
"134 334 CURVE",
"203 416 OFFCURVE",
"364 446 OFFCURVE",
"364 305 CURVE SMOOTH",
"364 46 LINE SMOOTH",
"364 14 OFFCURVE",
"379 1 OFFCURVE",
"400 1 CURVE SMOOTH",
"423 1 OFFCURVE",
"436 16 OFFCURVE",
"436 45 CURVE SMOOTH",
"436 237 OFFCURVE",
"459 381 OFFCURVE",
"407 437 CURVE SMOOTH"
);
}
);
width = 498;
}
);
unicode = 0144;
},
{
glyphname = ncaron;
lastChange = "2014-09-27 15:23:54 +0100";
layers = (
{
layerId = "24C63A81-7FC6-4EE9-AF2B-C1140AFD6C4B";
name = Regular;
paths = (
{
closed = 1;
nodes = (
"401 677 OFFCURVE",
"369 718 OFFCURVE",
"341 697 CURVE SMOOTH",
"226 605 OFFCURVE",
"272 600 OFFCURVE",
"166 693 CURVE",
"140 719 OFFCURVE",
"95 679 OFFCURVE",
"134 639 CURVE SMOOTH",
"241 526 OFFCURVE",
"248 518 OFFCURVE",
"368 641 CURVE SMOOTH"
);
},
{
closed = 1;
nodes = (
"342 507 OFFCURVE",
"207 477 OFFCURVE",
"131 422 CURVE",
"131 423 LINE",
"129 445 OFFCURVE",
"110 462 OFFCURVE",
"88 461 CURVE SMOOTH",
"66 460 OFFCURVE",
"49 441 OFFCURVE",
"51 419 CURVE SMOOTH",
"57 314 OFFCURVE",
"55 43 OFFCURVE",
"55 40 CURVE SMOOTH",
"55 18 OFFCURVE",
"73 0 OFFCURVE",
"95 0 CURVE SMOOTH",
"117 0 OFFCURVE",
"135 18 OFFCURVE",
"135 40 CURVE SMOOTH",
"135 49 OFFCURVE",
"136 212 OFFCURVE",
"134 334 CURVE",
"203 416 OFFCURVE",
"364 446 OFFCURVE",
"364 305 CURVE SMOOTH",
"364 46 LINE SMOOTH",
"364 14 OFFCURVE",
"379 1 OFFCURVE",
"400 1 CURVE SMOOTH",
"423 1 OFFCURVE",
"436 16 OFFCURVE",
"436 45 CURVE SMOOTH",
"436 237 OFFCURVE",
"459 381 OFFCURVE",
"407 437 CURVE SMOOTH"
);
}
);
width = 498;
}
);
unicode = 0148;
},
{
glyphname = eng;
lastChange = "2014-09-27 15:23:54 +0100";
layers = (
{
layerId = "24C63A81-7FC6-4EE9-AF2B-C1140AFD6C4B";
name = Regular;
paths = (
{
closed = 1;
nodes = (
"342 507 OFFCURVE",
"207 477 OFFCURVE",
"131 422 CURVE",
"131 423 LINE",
"129 445 OFFCURVE",
"110 462 OFFCURVE",
"88 461 CURVE SMOOTH",
"66 460 OFFCURVE",
"49 441 OFFCURVE",
"51 419 CURVE SMOOTH",
"57 314 OFFCURVE",
"55 43 OFFCURVE",
"55 40 CURVE SMOOTH",
"55 18 OFFCURVE",
"73 0 OFFCURVE",
"95 0 CURVE SMOOTH",
"117 0 OFFCURVE",
"135 18 OFFCURVE",
"135 40 CURVE SMOOTH",
"135 49 OFFCURVE",
"136 212 OFFCURVE",
"134 334 CURVE",
"203 416 OFFCURVE",
"364 446 OFFCURVE",
"364 305 CURVE SMOOTH",
"364 46 LINE SMOOTH",
"364 -79 OFFCURVE",
"213 -58 OFFCURVE",
"293 -113 CURVE SMOOTH",
"316 -129 OFFCURVE",
"427 -92 OFFCURVE",
"436 39 CURVE",
"436 41 OFFCURVE",
"436 43 OFFCURVE",
"436 45 CURVE SMOOTH",
"436 49 LINE SMOOTH",
"436 239 OFFCURVE",
"459 381 OFFCURVE",
"407 437 CURVE SMOOTH"
);
}
);
width = 498;
}
);
unicode = 014B;
},
{
glyphname = ntilde;
lastChange = "2014-09-27 15:23:54 +0100";
layers = (
{
layerId = "24C63A81-7FC6-4EE9-AF2B-C1140AFD6C4B";
name = Regular;
paths = (
{
closed = 1;
nodes = (
"173 547 OFFCURVE",
"155 607 OFFCURVE",
"196 607 CURVE SMOOTH",
"232 607 OFFCURVE",
"256 542 OFFCURVE",
"313 543 CURVE SMOOTH",
"372 544 OFFCURVE",
"409 582 OFFCURVE",
"409 640 CURVE SMOOTH",
"409 659 OFFCURVE",
"390 667 OFFCURVE",
"379 667 CURVE SMOOTH",
"318 667 OFFCURVE",
"363 607 OFFCURVE",
"313 606 CURVE SMOOTH",
"279 605 OFFCURVE",
"259 672 OFFCURVE",
"199 672 CURVE SMOOTH",
"140 672 OFFCURVE",
"103 635 OFFCURVE",
"103 576 CURVE SMOOTH",
"103 563 OFFCURVE",
"111 547 OFFCURVE",
"133 547 CURVE SMOOTH"
);
},
{
closed = 1;
nodes = (
"342 507 OFFCURVE",
"207 477 OFFCURVE",
"131 422 CURVE",
"131 423 LINE",
"129 445 OFFCURVE",
"110 462 OFFCURVE",
"88 461 CURVE SMOOTH",
"66 460 OFFCURVE",
"49 441 OFFCURVE",
"51 419 CURVE SMOOTH",
"57 314 OFFCURVE",
"55 43 OFFCURVE",
"55 40 CURVE SMOOTH",
"55 18 OFFCURVE",
"73 0 OFFCURVE",
"95 0 CURVE SMOOTH",
"117 0 OFFCURVE",
"135 18 OFFCURVE",
"135 40 CURVE SMOOTH",
"135 49 OFFCURVE",
"136 212 OFFCURVE",
"134 334 CURVE",
"203 416 OFFCURVE",
"364 446 OFFCURVE",
"364 305 CURVE SMOOTH",
"364 46 LINE SMOOTH",
"364 14 OFFCURVE",
"379 1 OFFCURVE",
"400 1 CURVE SMOOTH",
"423 1 OFFCURVE",
"436 16 OFFCURVE",
"436 45 CURVE SMOOTH",
"436 237 OFFCURVE",
"459 381 OFFCURVE",
"407 437 CURVE SMOOTH"
);
}
);
width = 498;
}
);
unicode = 00F1;
},
{
glyphname = o;
lastChange = "2014-09-27 15:23:54 +0100";
layers = (
{
layerId = "24C63A81-7FC6-4EE9-AF2B-C1140AFD6C4B";
name = Regular;
paths = (
{
closed = 1;
nodes = (
"127 487 OFFCURVE",
"32 375 OFFCURVE",
"32 225 CURVE SMOOTH",
"36 100 OFFCURVE",
"108 3 OFFCURVE",
"227 3 CURVE SMOOTH",
"362 3 OFFCURVE",
"461 118 OFFCURVE",
"461 256 CURVE SMOOTH",
"461 383 OFFCURVE",
"390 487 OFFCURVE",
"259 487 CURVE SMOOTH"
);
},
{
closed = 1;
nodes = (
"342 407 OFFCURVE",
"381 351 OFFCURVE",
"381 251 CURVE SMOOTH",
"381 158 OFFCURVE",
"314 83 OFFCURVE",
"227 83 CURVE SMOOTH",
"146 83 OFFCURVE",
"112 152 OFFCURVE",
"112 225 CURVE SMOOTH",
"112 341 OFFCURVE",
"182 407 OFFCURVE",
"259 407 CURVE SMOOTH"
);
}
);
width = 491;
}
);
unicode = 006F;
},
